<mxfile host="Electron" modified="2024-03-25T00:06:39.496Z" agent="Mozilla/5.0 (Windows NT 10.0; Win64; x64) AppleWebKit/537.36 (KHTML, like Gecko) draw.io/21.2.1 Chrome/112.0.5615.87 Electron/24.1.2 Safari/537.36" etag="IlI8ZI0eCEAQXUg4awlx" version="21.2.1" type="device">
  <diagram name="Page-1" id="CdZMIxsCgBjxf3eFNofw">
    <mxGraphModel dx="-10504" dy="945" grid="1" gridSize="10" guides="1" tooltips="1" connect="1" arrows="1" fold="1" page="1" pageScale="1" pageWidth="6049" pageHeight="4068" math="0" shadow="0">
      <root>
        <mxCell id="0" />
        <mxCell id="1" parent="0" />
        <mxCell id="MWMOtJagE3GRHmI_m3Ce-10" value="" style="rounded=1;whiteSpace=wrap;html=1;fillColor=none;dashed=1;" vertex="1" parent="1">
          <mxGeometry x="13194" y="1690" width="756" height="1140" as="geometry" />
        </mxCell>
        <mxCell id="VN2mlmmHDfHBYRUEVJJL-72" value="" style="rounded=1;whiteSpace=wrap;html=1;fillColor=none;dashed=1;" parent="1" vertex="1">
          <mxGeometry x="13210" y="1830" width="200" height="860" as="geometry" />
        </mxCell>
        <mxCell id="VN2mlmmHDfHBYRUEVJJL-76" value="" style="rounded=1;whiteSpace=wrap;html=1;fillColor=none;dashed=1;" parent="1" vertex="1">
          <mxGeometry x="13740" y="1830" width="200" height="930" as="geometry" />
        </mxCell>
        <mxCell id="BC6KzmhpLjGoGfEVz04S-1" value="&lt;b&gt;MSV Cliente&lt;/b&gt;" style="html=1;outlineConnect=0;whiteSpace=wrap;fillColor=#FFFF00;shape=mxgraph.archimate3.application;appType=comp;archiType=square;strokeColor=#000000;" parent="1" vertex="1">
          <mxGeometry x="13230" y="2140" width="150" height="75" as="geometry" />
        </mxCell>
        <mxCell id="VN2mlmmHDfHBYRUEVJJL-61" style="edgeStyle=orthogonalEdgeStyle;rounded=0;orthogonalLoop=1;jettySize=auto;html=1;entryX=1;entryY=0.75;entryDx=0;entryDy=0;entryPerimeter=0;fontColor=#00CC00;strokeColor=#00CC00;" parent="1" source="BC6KzmhpLjGoGfEVz04S-2" target="BC6KzmhpLjGoGfEVz04S-1" edge="1">
          <mxGeometry relative="1" as="geometry">
            <Array as="points">
              <mxPoint x="13720" y="2200" />
              <mxPoint x="13720" y="2290" />
              <mxPoint x="13430" y="2290" />
              <mxPoint x="13430" y="2196" />
            </Array>
          </mxGeometry>
        </mxCell>
        <mxCell id="BC6KzmhpLjGoGfEVz04S-2" value="&lt;b&gt;MSV Cuenta&lt;/b&gt;" style="html=1;outlineConnect=0;whiteSpace=wrap;fillColor=#FFFF00;shape=mxgraph.archimate3.application;appType=comp;archiType=square;strokeColor=#000000;" parent="1" vertex="1">
          <mxGeometry x="13770" y="2140" width="150" height="75" as="geometry" />
        </mxCell>
        <mxCell id="BC6KzmhpLjGoGfEVz04S-4" value="&lt;b&gt;Apache Kafka&lt;/b&gt;" style="html=1;outlineConnect=0;whiteSpace=wrap;fillColor=#dae8fc;shape=mxgraph.archimate3.businessObject;overflow=fill;align=center;verticalAlign=top;strokeColor=#6c8ebf;" parent="1" vertex="1">
          <mxGeometry x="13480" y="2146" width="190" height="86" as="geometry" />
        </mxCell>
        <mxCell id="BC6KzmhpLjGoGfEVz04S-5" value="&lt;b style=&quot;border-color: var(--border-color);&quot;&gt;topico-movimiento&lt;/b&gt;" style="html=1;outlineConnect=0;whiteSpace=wrap;fillColor=#dae8fc;shape=mxgraph.archimate3.businessObject;overflow=fill;align=center;verticalAlign=top;strokeColor=#6c8ebf;" parent="1" vertex="1">
          <mxGeometry x="13499.93" y="2171.25" width="150" height="47.5" as="geometry" />
        </mxCell>
        <mxCell id="BC6KzmhpLjGoGfEVz04S-21" style="edgeStyle=orthogonalEdgeStyle;rounded=0;orthogonalLoop=1;jettySize=auto;html=1;entryX=0.5;entryY=0;entryDx=0;entryDy=0;endArrow=ERone;endFill=0;" parent="1" source="BC6KzmhpLjGoGfEVz04S-6" target="BC6KzmhpLjGoGfEVz04S-14" edge="1">
          <mxGeometry relative="1" as="geometry" />
        </mxCell>
        <mxCell id="BC6KzmhpLjGoGfEVz04S-6" value="Persona" style="swimlane;fontStyle=0;childLayout=stackLayout;horizontal=1;startSize=30;horizontalStack=0;resizeParent=1;resizeParentMax=0;resizeLast=0;collapsible=1;marginBottom=0;whiteSpace=wrap;html=1;" parent="1" vertex="1">
          <mxGeometry x="13235" y="2240" width="140" height="240" as="geometry" />
        </mxCell>
        <mxCell id="BC6KzmhpLjGoGfEVz04S-7" value="id_persona" style="text;strokeColor=none;fillColor=none;align=left;verticalAlign=middle;spacingLeft=4;spacingRight=4;overflow=hidden;points=[[0,0.5],[1,0.5]];portConstraint=eastwest;rotatable=0;whiteSpace=wrap;html=1;" parent="BC6KzmhpLjGoGfEVz04S-6" vertex="1">
          <mxGeometry y="30" width="140" height="30" as="geometry" />
        </mxCell>
        <mxCell id="BC6KzmhpLjGoGfEVz04S-8" value="nombre" style="text;strokeColor=none;fillColor=none;align=left;verticalAlign=middle;spacingLeft=4;spacingRight=4;overflow=hidden;points=[[0,0.5],[1,0.5]];portConstraint=eastwest;rotatable=0;whiteSpace=wrap;html=1;" parent="BC6KzmhpLjGoGfEVz04S-6" vertex="1">
          <mxGeometry y="60" width="140" height="30" as="geometry" />
        </mxCell>
        <mxCell id="BC6KzmhpLjGoGfEVz04S-9" value="genero" style="text;strokeColor=none;fillColor=none;align=left;verticalAlign=middle;spacingLeft=4;spacingRight=4;overflow=hidden;points=[[0,0.5],[1,0.5]];portConstraint=eastwest;rotatable=0;whiteSpace=wrap;html=1;" parent="BC6KzmhpLjGoGfEVz04S-6" vertex="1">
          <mxGeometry y="90" width="140" height="30" as="geometry" />
        </mxCell>
        <mxCell id="NgKmMzxXcldi6Crt5pSA-1" value="edad" style="text;strokeColor=none;fillColor=none;align=left;verticalAlign=middle;spacingLeft=4;spacingRight=4;overflow=hidden;points=[[0,0.5],[1,0.5]];portConstraint=eastwest;rotatable=0;whiteSpace=wrap;html=1;" parent="BC6KzmhpLjGoGfEVz04S-6" vertex="1">
          <mxGeometry y="120" width="140" height="30" as="geometry" />
        </mxCell>
        <mxCell id="BC6KzmhpLjGoGfEVz04S-10" value="identificacion" style="text;strokeColor=none;fillColor=none;align=left;verticalAlign=middle;spacingLeft=4;spacingRight=4;overflow=hidden;points=[[0,0.5],[1,0.5]];portConstraint=eastwest;rotatable=0;whiteSpace=wrap;html=1;" parent="BC6KzmhpLjGoGfEVz04S-6" vertex="1">
          <mxGeometry y="150" width="140" height="30" as="geometry" />
        </mxCell>
        <mxCell id="BC6KzmhpLjGoGfEVz04S-11" value="direccion" style="text;strokeColor=none;fillColor=none;align=left;verticalAlign=middle;spacingLeft=4;spacingRight=4;overflow=hidden;points=[[0,0.5],[1,0.5]];portConstraint=eastwest;rotatable=0;whiteSpace=wrap;html=1;" parent="BC6KzmhpLjGoGfEVz04S-6" vertex="1">
          <mxGeometry y="180" width="140" height="30" as="geometry" />
        </mxCell>
        <mxCell id="BC6KzmhpLjGoGfEVz04S-13" value="telefono" style="text;strokeColor=none;fillColor=none;align=left;verticalAlign=middle;spacingLeft=4;spacingRight=4;overflow=hidden;points=[[0,0.5],[1,0.5]];portConstraint=eastwest;rotatable=0;whiteSpace=wrap;html=1;" parent="BC6KzmhpLjGoGfEVz04S-6" vertex="1">
          <mxGeometry y="210" width="140" height="30" as="geometry" />
        </mxCell>
        <mxCell id="BC6KzmhpLjGoGfEVz04S-14" value="Cliente" style="swimlane;fontStyle=0;childLayout=stackLayout;horizontal=1;startSize=30;horizontalStack=0;resizeParent=1;resizeParentMax=0;resizeLast=0;collapsible=1;marginBottom=0;whiteSpace=wrap;html=1;" parent="1" vertex="1">
          <mxGeometry x="13235" y="2510" width="140" height="150" as="geometry" />
        </mxCell>
        <mxCell id="BC6KzmhpLjGoGfEVz04S-15" value="id_cliente" style="text;strokeColor=none;fillColor=none;align=left;verticalAlign=middle;spacingLeft=4;spacingRight=4;overflow=hidden;points=[[0,0.5],[1,0.5]];portConstraint=eastwest;rotatable=0;whiteSpace=wrap;html=1;" parent="BC6KzmhpLjGoGfEVz04S-14" vertex="1">
          <mxGeometry y="30" width="140" height="30" as="geometry" />
        </mxCell>
        <mxCell id="BC6KzmhpLjGoGfEVz04S-16" value="id_persona" style="text;strokeColor=none;fillColor=none;align=left;verticalAlign=middle;spacingLeft=4;spacingRight=4;overflow=hidden;points=[[0,0.5],[1,0.5]];portConstraint=eastwest;rotatable=0;whiteSpace=wrap;html=1;" parent="BC6KzmhpLjGoGfEVz04S-14" vertex="1">
          <mxGeometry y="60" width="140" height="30" as="geometry" />
        </mxCell>
        <mxCell id="BC6KzmhpLjGoGfEVz04S-17" value="contrasena" style="text;strokeColor=none;fillColor=none;align=left;verticalAlign=middle;spacingLeft=4;spacingRight=4;overflow=hidden;points=[[0,0.5],[1,0.5]];portConstraint=eastwest;rotatable=0;whiteSpace=wrap;html=1;" parent="BC6KzmhpLjGoGfEVz04S-14" vertex="1">
          <mxGeometry y="90" width="140" height="30" as="geometry" />
        </mxCell>
        <mxCell id="BC6KzmhpLjGoGfEVz04S-18" value="estado" style="text;strokeColor=none;fillColor=none;align=left;verticalAlign=middle;spacingLeft=4;spacingRight=4;overflow=hidden;points=[[0,0.5],[1,0.5]];portConstraint=eastwest;rotatable=0;whiteSpace=wrap;html=1;" parent="BC6KzmhpLjGoGfEVz04S-14" vertex="1">
          <mxGeometry y="120" width="140" height="30" as="geometry" />
        </mxCell>
        <mxCell id="VN2mlmmHDfHBYRUEVJJL-69" style="edgeStyle=orthogonalEdgeStyle;rounded=0;orthogonalLoop=1;jettySize=auto;html=1;endArrow=ERoneToMany;endFill=0;" parent="1" source="NgKmMzxXcldi6Crt5pSA-2" target="NgKmMzxXcldi6Crt5pSA-10" edge="1">
          <mxGeometry relative="1" as="geometry" />
        </mxCell>
        <mxCell id="NgKmMzxXcldi6Crt5pSA-2" value="Cuenta" style="swimlane;fontStyle=0;childLayout=stackLayout;horizontal=1;startSize=30;horizontalStack=0;resizeParent=1;resizeParentMax=0;resizeLast=0;collapsible=1;marginBottom=0;whiteSpace=wrap;html=1;" parent="1" vertex="1">
          <mxGeometry x="13775" y="2240" width="140" height="240" as="geometry" />
        </mxCell>
        <mxCell id="NgKmMzxXcldi6Crt5pSA-3" value="id_cuenta" style="text;strokeColor=none;fillColor=none;align=left;verticalAlign=middle;spacingLeft=4;spacingRight=4;overflow=hidden;points=[[0,0.5],[1,0.5]];portConstraint=eastwest;rotatable=0;whiteSpace=wrap;html=1;" parent="NgKmMzxXcldi6Crt5pSA-2" vertex="1">
          <mxGeometry y="30" width="140" height="30" as="geometry" />
        </mxCell>
        <mxCell id="NgKmMzxXcldi6Crt5pSA-4" value="nro_cuenta" style="text;strokeColor=none;fillColor=none;align=left;verticalAlign=middle;spacingLeft=4;spacingRight=4;overflow=hidden;points=[[0,0.5],[1,0.5]];portConstraint=eastwest;rotatable=0;whiteSpace=wrap;html=1;" parent="NgKmMzxXcldi6Crt5pSA-2" vertex="1">
          <mxGeometry y="60" width="140" height="30" as="geometry" />
        </mxCell>
        <mxCell id="NgKmMzxXcldi6Crt5pSA-5" value="tipo_cuenta" style="text;strokeColor=none;fillColor=none;align=left;verticalAlign=middle;spacingLeft=4;spacingRight=4;overflow=hidden;points=[[0,0.5],[1,0.5]];portConstraint=eastwest;rotatable=0;whiteSpace=wrap;html=1;" parent="NgKmMzxXcldi6Crt5pSA-2" vertex="1">
          <mxGeometry y="90" width="140" height="30" as="geometry" />
        </mxCell>
        <mxCell id="NgKmMzxXcldi6Crt5pSA-6" value="saldo_inicial" style="text;strokeColor=none;fillColor=none;align=left;verticalAlign=middle;spacingLeft=4;spacingRight=4;overflow=hidden;points=[[0,0.5],[1,0.5]];portConstraint=eastwest;rotatable=0;whiteSpace=wrap;html=1;" parent="NgKmMzxXcldi6Crt5pSA-2" vertex="1">
          <mxGeometry y="120" width="140" height="30" as="geometry" />
        </mxCell>
        <mxCell id="VN2mlmmHDfHBYRUEVJJL-3" value="identificacion_cliente" style="text;strokeColor=none;fillColor=none;align=left;verticalAlign=middle;spacingLeft=4;spacingRight=4;overflow=hidden;points=[[0,0.5],[1,0.5]];portConstraint=eastwest;rotatable=0;whiteSpace=wrap;html=1;" parent="NgKmMzxXcldi6Crt5pSA-2" vertex="1">
          <mxGeometry y="150" width="140" height="30" as="geometry" />
        </mxCell>
        <mxCell id="NgKmMzxXcldi6Crt5pSA-7" value="nombre_cliente" style="text;strokeColor=none;fillColor=none;align=left;verticalAlign=middle;spacingLeft=4;spacingRight=4;overflow=hidden;points=[[0,0.5],[1,0.5]];portConstraint=eastwest;rotatable=0;whiteSpace=wrap;html=1;" parent="NgKmMzxXcldi6Crt5pSA-2" vertex="1">
          <mxGeometry y="180" width="140" height="30" as="geometry" />
        </mxCell>
        <mxCell id="NgKmMzxXcldi6Crt5pSA-16" value="estado" style="text;strokeColor=none;fillColor=none;align=left;verticalAlign=middle;spacingLeft=4;spacingRight=4;overflow=hidden;points=[[0,0.5],[1,0.5]];portConstraint=eastwest;rotatable=0;whiteSpace=wrap;html=1;" parent="NgKmMzxXcldi6Crt5pSA-2" vertex="1">
          <mxGeometry y="210" width="140" height="30" as="geometry" />
        </mxCell>
        <mxCell id="NgKmMzxXcldi6Crt5pSA-10" value="Movimiento" style="swimlane;fontStyle=0;childLayout=stackLayout;horizontal=1;startSize=30;horizontalStack=0;resizeParent=1;resizeParentMax=0;resizeLast=0;collapsible=1;marginBottom=0;whiteSpace=wrap;html=1;" parent="1" vertex="1">
          <mxGeometry x="13775" y="2500" width="140" height="240" as="geometry" />
        </mxCell>
        <mxCell id="NgKmMzxXcldi6Crt5pSA-11" value="id_movimiento" style="text;strokeColor=none;fillColor=none;align=left;verticalAlign=middle;spacingLeft=4;spacingRight=4;overflow=hidden;points=[[0,0.5],[1,0.5]];portConstraint=eastwest;rotatable=0;whiteSpace=wrap;html=1;" parent="NgKmMzxXcldi6Crt5pSA-10" vertex="1">
          <mxGeometry y="30" width="140" height="30" as="geometry" />
        </mxCell>
        <mxCell id="NgKmMzxXcldi6Crt5pSA-12" value="fecha" style="text;strokeColor=none;fillColor=none;align=left;verticalAlign=middle;spacingLeft=4;spacingRight=4;overflow=hidden;points=[[0,0.5],[1,0.5]];portConstraint=eastwest;rotatable=0;whiteSpace=wrap;html=1;" parent="NgKmMzxXcldi6Crt5pSA-10" vertex="1">
          <mxGeometry y="60" width="140" height="30" as="geometry" />
        </mxCell>
        <mxCell id="NgKmMzxXcldi6Crt5pSA-13" value="tipo_movimiento" style="text;strokeColor=none;fillColor=none;align=left;verticalAlign=middle;spacingLeft=4;spacingRight=4;overflow=hidden;points=[[0,0.5],[1,0.5]];portConstraint=eastwest;rotatable=0;whiteSpace=wrap;html=1;" parent="NgKmMzxXcldi6Crt5pSA-10" vertex="1">
          <mxGeometry y="90" width="140" height="30" as="geometry" />
        </mxCell>
        <mxCell id="NgKmMzxXcldi6Crt5pSA-14" value="saldo_inicial" style="text;strokeColor=none;fillColor=none;align=left;verticalAlign=middle;spacingLeft=4;spacingRight=4;overflow=hidden;points=[[0,0.5],[1,0.5]];portConstraint=eastwest;rotatable=0;whiteSpace=wrap;html=1;" parent="NgKmMzxXcldi6Crt5pSA-10" vertex="1">
          <mxGeometry y="120" width="140" height="30" as="geometry" />
        </mxCell>
        <mxCell id="NgKmMzxXcldi6Crt5pSA-15" value="monto" style="text;strokeColor=none;fillColor=none;align=left;verticalAlign=middle;spacingLeft=4;spacingRight=4;overflow=hidden;points=[[0,0.5],[1,0.5]];portConstraint=eastwest;rotatable=0;whiteSpace=wrap;html=1;" parent="NgKmMzxXcldi6Crt5pSA-10" vertex="1">
          <mxGeometry y="150" width="140" height="30" as="geometry" />
        </mxCell>
        <mxCell id="VN2mlmmHDfHBYRUEVJJL-2" value="saldo_disponible" style="text;strokeColor=none;fillColor=none;align=left;verticalAlign=middle;spacingLeft=4;spacingRight=4;overflow=hidden;points=[[0,0.5],[1,0.5]];portConstraint=eastwest;rotatable=0;whiteSpace=wrap;html=1;" parent="NgKmMzxXcldi6Crt5pSA-10" vertex="1">
          <mxGeometry y="180" width="140" height="30" as="geometry" />
        </mxCell>
        <mxCell id="VN2mlmmHDfHBYRUEVJJL-1" value="id_cuenta" style="text;strokeColor=none;fillColor=none;align=left;verticalAlign=middle;spacingLeft=4;spacingRight=4;overflow=hidden;points=[[0,0.5],[1,0.5]];portConstraint=eastwest;rotatable=0;whiteSpace=wrap;html=1;" parent="NgKmMzxXcldi6Crt5pSA-10" vertex="1">
          <mxGeometry y="210" width="140" height="30" as="geometry" />
        </mxCell>
        <mxCell id="VN2mlmmHDfHBYRUEVJJL-4" value="" style="shape=image;verticalLabelPosition=bottom;labelBackgroundColor=default;verticalAlign=top;aspect=fixed;imageAspect=0;image=https://niixer.com/wp-content/uploads/2020/11/spring-boot.png;" parent="1" vertex="1">
          <mxGeometry x="13230" y="1850" width="133.33" height="70" as="geometry" />
        </mxCell>
        <mxCell id="VN2mlmmHDfHBYRUEVJJL-5" value="" style="shape=image;verticalLabelPosition=bottom;labelBackgroundColor=default;verticalAlign=top;aspect=fixed;imageAspect=0;image=https://niixer.com/wp-content/uploads/2020/11/spring-boot.png;" parent="1" vertex="1">
          <mxGeometry x="13778.33" y="1850" width="133.33" height="70" as="geometry" />
        </mxCell>
        <mxCell id="VN2mlmmHDfHBYRUEVJJL-7" value="" style="shape=image;verticalLabelPosition=bottom;labelBackgroundColor=default;verticalAlign=top;aspect=fixed;imageAspect=0;image=https://r2dbc.io/images/PVLG-R2DBC-Logo-RGB.png;" parent="1" vertex="1">
          <mxGeometry x="13797.245" y="2020.5" width="95.5" height="20" as="geometry" />
        </mxCell>
        <mxCell id="VN2mlmmHDfHBYRUEVJJL-8" value="" style="shape=image;verticalLabelPosition=bottom;labelBackgroundColor=default;verticalAlign=top;aspect=fixed;imageAspect=0;image=https://dbdb.io/media/logos/h2-logo.svg;" parent="1" vertex="1">
          <mxGeometry x="13266.665" y="2050" width="60" height="60" as="geometry" />
        </mxCell>
        <mxCell id="VN2mlmmHDfHBYRUEVJJL-10" value="" style="shape=image;verticalLabelPosition=bottom;labelBackgroundColor=default;verticalAlign=top;aspect=fixed;imageAspect=0;image=https://dbdb.io/media/logos/h2-logo.svg;" parent="1" vertex="1">
          <mxGeometry x="13814.995" y="2051" width="60" height="60" as="geometry" />
        </mxCell>
        <mxCell id="VN2mlmmHDfHBYRUEVJJL-12" value="" style="shape=image;verticalLabelPosition=bottom;labelBackgroundColor=default;verticalAlign=top;aspect=fixed;imageAspect=0;image=data:image/png,iVBORw0KGgoAAAANSUhEUgAAAhwAAADwCAYAAABL572sAAAgAElEQVR4nOy96ZPcRpbt+bvuACJy31duokipJPVS6+ua6p55Nu+1jT2z+aNnxl7bdE9Xt0pVpSqVJEpckswtcl8iYwHcfT64A4HcmJSYTJEqPzIoIiMQgAMRhB/ce+654pxzREREvKW46J+n3PgorhuXXXTe/SOLiIi4DMkPPYCIiLcbr8LH39Q06V5x/+Xql43DvVUz+dVHdfFg35ZDuHzs7hXH+LYcSUTEzSISjoiIy+AIc8PLpkcBF1Z8I/PI2X3LxeO5lGzUNiNvVzDz/Gik9v8bxrWFXK44xy/7niIPifiRIxKOiIjLUE4AV03m8iZnijrBuGg/r7LvsI2rjuNVNnNtOBsNkDOPb3DXPwgkfI0vORL38rcjIt51RMIREfFSvA0zwFXRi1clHW8LXo1svE0jvh68whFF0hHxI0YkHBERV+EHnAAGAfrL7vyvSOW8hROYfO9IzdsOeUlm5iXf09uV6YqIeGOIhCMi4iV41bngTUyX58nG+b1cOb5rHti1bO6q1MK17ejm8aqyUXhnDzEi4nsjEo6IiEvgzjyefV5ioMUMT+Syu/jvivKO+e2Ymko1yVUBlatY0JU63FMrvjt4WfVN/XXhzLm8RAccEfFjQyQcERE1nL3u1yeR+mM95nAqEiHf5R73VfBqW7uIHJ3dwuuOqzzuq+bGq96XywZ7doBvYTroVfAq30X5PJKOiL8mRMIRERFwWUTjIsJRh8jgtTebWnn5Om/LfPUqhOTC8/SOEowSjot/Ly/Dq0SNIiJ+LIiEIyIiwDmHdY6iKHj85AmFsegkw4lgrX+vtjaJ0uAsRd4nyxKWFxcZGRkGB2ny+v+0nAMLdPs5f/nLF2RZRpY1ACiMwdqQcBGpTXLn4xmCe4mc8dWhEJQIzjqss/41UehEkyQJiU5oNJuMDA+jtCLRCUrL4A6+HKMFsQ6dvFrVhnMOUX5dYwzOOZRSKKVe+5heB71+nzRNEBGKomB375Ct7R1/tsOheblK7dtx/vsaajZZmp+n0WiAdSRK4axFBET/sMcVEfGmEAlHRESAc45er8fm5ib/+q//xkarRa9fYMN0LaIQEaxzWGPQSsBZEiUsLy3yj7/5X3j//ntkaXY94wGKwrK3u8e//Mv/y/HxMdZZjLE450D58ZQ8aFAdK+dur6+HcPi50zlXLSKCUgqtFUppALTWjI6OMjU1xcz0NFNTU0xOTTExPs7wyAhDWUaalAQClApWJgLOgMPiEERA6dOkRCmFtf74rbU3RjrKDhD+dyDVcUoY+O7eHv/+20/59He/x4X3HeV3MiAc1loEmJuZ4X/9x9/wt5/8DVmS+uNXgisJVaJv5LgiIm4SkXBERASI+EnupNNhY3OTJ0+f0enniGg/uWuNqhEOhcMUOVniX2+3TwBB6+uZLPxcpujnORubm7S2tjBF4d8Q8RO8iJ+AwwcuEpmKu54Ix+m5051KBdRTSkop0iyj0WjQbDQYHhlmYmKS6elpJicnmZueZnlxkenJSUZGRxDloznO+g2IqDNaB6nIhYiglfIE4AbzEBLOs7GWJESvtFYhymTZWN/gL19+ydOV54O0irjBWQ9RDmctOMf+3h7zc3N8+PADEq0RFApBlI75lYgfLSLhiIgIkJBQt9ZHEazDT+pK40Qw1mHE39WLUmilqrIMEyYj5yzXmpUX/H6NxTnChBSiA9aFSU1CUOOyfV7PWPzdfdiiCqRAgrV7GfUI65l+n06/h933qZc0yxgeGmJ4eJiJsVEW5+Z57949bt++zfj4OJMTEzSyFK3BWHDGkJR3+YJP49gyjVOSsR9iZq4TLf+DOel0WFtbo9XaqpJXrvxeqEeeXDhvjm6/y9NnT2l3TmikGTrxkSpBfCgpIuJHiEg4IiICBnemnlAorVEIiMa4oFtwoJQE0qFR2iLiNQaOwYR7/ePRKKWqbRvr9+ZJyCCycSqtcmpL11Cl4vx0KyLVZF89dz5tY4O+Q0RQolGJj0bkRcHh8TFH7TatVotnKys8e/Gc+bl5lhYXefjgAcvLS4yPjaGU+HSNtZThDxGvBalSOaosLr05SBlVwmFsmU4Sdnd22dhYp91uE0I0hBNSnrnBa+G7yAvDi9U11tc3GB8Zo5GmmKLwOplripBFRLxtiIQjIqKCIMqTDQQvIDW2uqVWSlcTrLWGwhhMUZCEQIco5ZdruvMOGRWUSgAfYbHWhpSKJ0QOKjHrQKh4Zv+BELw2ERIHLtzBWxf2JAPfEZ9PQeFJhimJToiGeN2F/5zNc1ZW11hd3+DJs2esbazz/v37vP/+fW7fWmZkZAhnHcZZxHlRZag6xlmHsw654XlZRNAhbWVsQaI11sLGxjqtVouiMIGUMYh0BOLhnMOF4IVCKIzh4PCIP3/xBe/few8Zal7b7yYi4m1FJBwRERVcSKcUGGOwzosTfepAVYTDBrGBtT6VIvjqCWtMJWi8rnC/c/jxWOPTKoCqRWAcYIviFNkooyL1jVyLDZko0D76gLVVxKPMMUiI/iBCUXgy5pxDaU2itY8YJYJWgiCYPCc3Bbv7+xwcHvDo20d89OFP+PWv/4EPHz5keKjpdRshulQqOwaBg+s7z1ehFI2W+yv1JO32MWtra+zs7gYtjfLnpSIZrmom7JxDJwlZmmL6PbCWL/7yF/7rP/0TYyMjJKl+e2qbIyLeACLhiIgIEASdaNI0JWs0yLIMJxYnCmMdeWHCBOtQAqnWpJKRasiyjCRNSRLtJ+ZrghJI0jSMKSvlEhhnyYsC4HRVBNTEo+VxXQ+clMLaMo3iBoQj7Luw1pMDUWTNJjqUeFrrx1sUBYR0BM6SJglZmuCsYWd3j9/9/jO2tlr88hc/5x9+9SumpybJkgRrHFacJzQ/QDmsrwZyFclJlCd7GxsbbGxs0D5uY6wFdIgw1WS0QTzqBHp5n263Q6IUQ1nG7t4ea+sbzE3PkAwPvVlDl4iIHxiRcERE1OAsFIWh3+uT93OMxc/6tUlEKe2zLEqwhSW3ll6vT7/f9ymY6xyPA1MU5HlOnue+giOkF1x561yDhA/VKYfiespiXc2LxGsqyugPoTTXhQIahSA4ZykKW4k9BaGRZShRiIA1lqLIaZ+ckKYJOk3pF4aVF6vkeU632+NXv/gF9+/dQSUJzphwhJ6s1EWsrw2f87liBU4df14Y1tY32T88IjfWi3iD74grNScDuUtIkWmUTkiUr3rpGcNXj77m3p27DA0NoSLRiPgRIxKOiIg6Sn2E0n5iNyZMbj4NoIIXh+AgGG8pUWidkOgUdY3RDQAtkCYK8KZQSgmFtX4iC+WhtjSMwpfAWmtJE+0jENaEqMQ1jEsG0YoybVQacLkgGC3LWn0ayIs7/af8nb5YR+EKrHPBGEz7NFYIz4gTjFNs7R7w208/Y+/gkP/zf/wPlhbn0Vr7yiGodCnXgzJdctUG/THqRGEd7B8csd7aYWfviJ4B0QkVAwvEQVEqXYKiw1mMNWhJ0Fpj+jlPnq6wtbvL9MwsqVbgrE+bQdR1RPyoEAlHREQdZXGBeIJRvgbVvfXAj0Jqd/shzXCdE0R9f+IGc9mpslsRQsADKQmGtSRopqenGBsexoknKa8bpy+Ji7VuoGnAURhDv9+n1+9zcnJCr9shzTKyLA1GZYZKYFo+UxJ8LPxWlNJe82AduXEUnR6FsWQrq/zf//Nf+Of/9t+YnpygkWiqOMe1TsbuzGP5vL4P79NirI9c7O4fsNHa5rDdIbcEQnrqjIX/17fjCa21jsI68rxg7+CAjVaL27fvMDE24te5xsrqiIi3BZFwRES80xhMlKIEZ3ypZpalPHjwgPfv3SNtNK6p1HKgFanIg3PkeU6n26Xb69LpdDg6Pubw8JCdnR0ODg+82VW46bfB+EpE+UoX54IupSy3JRAaS54XtLZanLSPmJ6c5Fe/+DkzU1NoLTgng2rTa8UZ/UX9dRFEQV4UiErYaLXYbG3S6/eC4+nZwZwpjSWITcFHzYIkpNftsba2zv77+4yNjgQH26gejfjxIRKOiIh3GW7gTaG110ZopUmSlHv37vHTn/6UtJFVtuOX4lUm7lIfGsQTZYTBWus1JkVBXuT0uj32D/bZam2xvrHO6toam61NTtonOBwqiHCtC7GKmk156fbqK4Kg3W5j8j6//e1vmRgfo/HJJ4yPj/rhOId6I2GAOuko/y6feoOuTqfDixcv2NvfxxhLkqa+9805DY87/6cMyIdOEow1bGxusLW9zfzCAiPNJFarRPwoEQlHRMS7DBncDQ/EiV6wOTY6yszsDEq92g3zldGCOuHwOxoMAS9pcZZQTnybfr/P/sE+T58+48uvvuLp06fs7u7S7fexIX2idYJSyjejM6YiGhIqYpTSKKV5uvKM//iP/2BqapJm835omvbdT9eroyQdZVTHC2ad+MYvrVaL58+f0+10qvWlFs2oPu2ombGBcxZr/ftKe3JorGN7e4fNVov33nuP4cZEzKZE/CgRCUdExDsMgdD0K5h/1TreGmO9SRbCtTQgldOPdRLjNRWABvCOqEnSZHh4icWFBR68f58vv/wLf/zjH3my8pzD4za9fo5WijTJsNZPxD7dQhCgClmWYZylKAx/+vOfuX3nNlOTE8zPz3lr+TeKwbRfpn28cNTw9OlTNjY2PAnBYUyBCk5knmycJh317QQPc6wxoQrJm4BttlrsHxwwNTFGFstVIn6EiIQjIuIdR+kPUQUexDeQ82WpBWmicaFe4jKUqYyr93XRiwNjrNJRU4fKlbzfJ8sybi0uMDoyxNzMDL/74+d89ofP2drept/voZPEt70XhyqdXF2BcY4kmLHpJKHT7fL5539ieXmZ8YkJRoea3/lcXY7y4C8+RyKgUBig3T7hydOnHB0dhe61YIz1JUW1rV2k+xTfArcyi8M5DEKv36O1tcX2zg63FhfImtfTcTgi4m1CbBMUEfEOo6zsKA3JvLxCyLKGL1nViiTx2g71kqUqq33JQnAYlWB8puuLCg6i4nDGIEAiikRrnPVVKhNj43z4wUN+9Ytf8DeffMzM9JTXbxQFzlpfeKwkVCYrRAn9PK+67zaaTdbW13n06BHb2ztlVfI1oDpCzlOEwToigikKWpubrKysYIxFUJS9dwikqapeumgrodtt2XFWQmmxA7Z3dlnf2KR9chIrVCJ+lIgRjoiIdxjlhFU6TDnroxrg76BNYZBUh+jFNZTFqsF26pGVMjKRKIUSwZgCEfF+IGEsDkcjy3jw/vs40Rwftzlpt71fR+lWWpmL+UqWosgxypBmGSfHxwwNNXm28pxnKysszM2im41rnJvrcYnTolEbhK15UbC+ucHW1hYOX7Fi8d4j9VLh+hbrsMZ7eaRpSjhxgHcx3dvfZ2Nzk6PjY+ZnJiPniPjRIUY4IiLeYQzSKIBzJEkSbLhtiHDo2prXsJSmIJWrqAyMWBn4kiRahZ4pBIGkQoeoRaORcf/eXf73//pfWVxYpNfphghLWSbrKudSAJ0k5HlBkmU4YP/ggOdra2zv7oZeMwYg6EBs9dxdmP+54Bw63yTO1f4uYcvutKFZXqfT47PPfk8/9/12tB409FNKsKag2+2itSZJEvKiqMZXQildKUmdpfI2EVHs7u+ztr5O3u+f+pwxphpX/TgjIt4lRMIREfFO43zJSHVnXH9erXvNS+VINnittDwP9+6UVRslqRAczUaDe3fv8Mtf/IL5uTmfUhFvBqZrHXf9o++UC1AYw/HJCVvb2+zs7mJMUR1dZcBWfe67ncHyeblPKM3f/P/7/ZzN1iZb29ueDIhgg8bEBQKgAqkSgW6vy8jwEM1mI5Ao63vB2JLU+G2X5cD9omBnd4/NzRadTjd4ewyO7aLjjIh4lxAJR0TEXwXE31W/znJdQX7nEHGMjY3xi5//nAcP3ifRSSjnDaMN1b4iUuuE6yMOvV6Pre1tWq0W3V7v9FF+j4m4nMB92qSsLzm9Twe0T9p88823HB4eYZ3z2pLSuKx0FVVCGvQZRZ5za/kWS4tLZGmKs14U60IX4nLxn1MURcH+wQHrG+vs7Oz4MZV9aMIYq/Uj4Yh4BxEJR0TEXwMcXC0LvWK5JpFmmf4RZ1laXODhgwdMTk74ZnjG+GhBmVIJk6wLIRJRGuMcB4eHbG1t0T5uXzoJf9dJ2TlLrdancgJ1ePv2/f19Hj/+lm63e2r73j1UfBmysyitMNbSbDR5+PAhH/3kJ0xOTNRiJlJV9lhrsM550alS9Po5m60tnr94Xmlx6uTkVdNEERFvIyLhiIj4a8Brco0qJ3Iu4nF+cWeW0xUgghAm6MKQaM17791jeWkpCEzL1vVlCa5Pp/inCq29EVi322N3b5/Do8NzeobKJv27wEkVUQEf1ah3hu12u7Q2t1hf3/DbR3Depd1rMpRgrDcvE8DkObOz0zx4/30++fgTFuYXfPO52ljLiI6xNhyb19/s7+/z7Okzjo+Pq/HEyEbEjwGRcERERHwH1CMeF5ONq5hL8L3y5EFgcWGRpaVFsjQl0dp7iODFlEgQgIa9O5RPPxjD0fERhwcH1SRev/v/fhEBqbr9Whf6vwRF7PHxMaurqxweHgebePHuqHZAbmzoGeP3b1laXGJudpY7d26zvLTIUKOJCSXAhJSM0qEZHoQoh3BycnIqrXJRKiVGOiLeRUTCERHxI8e1Tk1n+cMr7Pvc4rzIshHKdcdGR5mZnqHZbFSeG875niuCYJ31UQPrMManIIy1tNsnHBweVtUcdfOx74qzBa3OhzsQhKIo2NnZ5cWLVfr9PiIqVJbYSt9hw/reml0YGmpy69Yyw8NDjI4Os7i4xOTkZLVtFwhHkqQDUhWiKv28z/7+PqurqxWZqgtIY2ol4l1FJBwRERGvjZJMvNq6Vb4EZyFNhJnpacbGxhHlJ/Ky1NQTFBfKex1F0DyU4tHj4+NThON7T8RnCJSteYycnJywsbFBq9UKRmsWrVVl2GVdIAW1Cpm5uTnu3r3L0NAQiYalpUUWFhbI0syvF9JFSlTwUzutH2m323z77be0216jclnFSkTEu4RIOCIiIt4YLpoatVKkqa/wKPIcAWamp5manKz6oyTBmr0UkCqlfcoBqqZuxlp6vX4VHXjdu/6Sczgc1vj28XlecHB4xM7uHsftEwidbkVrdJoiSgXNiB+XNQYtwtzsLIsLCwwPNVHAzMw0c3MzDDUb1bFZY3yjuzB+ESFJEm/j3uuz8vwF+4dH5IXxxMY6H+0pzd4iIt4xxF9tRETEa+MyxUb5ngpSUb9AWUjaTBP/2MgYGWqSKAXO+qhBqN5QKsEYByiUSnFOsNa3gu/3exRF4futhHRMqXt4Vb8KwaGwaOXTPTW7MhyKre09Vp6vcXzSw6JBpxQWrPOW5k750l0BEoSx4RHeu3OXmclJsD76MjYyxN1by8zNTWNtjg/YGJQQtCuJ1484AdE4Sdg/avPb//wdNjTD85EhsNZgbMHZZNXp/645lRYRcQ2IhCMiIuKN4UIS4pzPpQTnUgGyNCFLU2+MRa3Tar0k10mNDAjWOorCnPKqqD++Knwkxfd7KVM9vmIEjo5O2GztsLd/RGHBiSchDsEKuNCExgkoJWRJytiIJxwjw0PebdVBM0tZWJhlcWGONFE4axDxPWl8FCd09rXe1yM3jpNuzkZrm8OjY4wFJPRtkfIYLzNki4h4OxEJR0RExM2jZpDqHCRJQpqmVUns6XnzjLNpgLUWE6IbrzuUMhtTlsIq7StkdnZ3WFtb5fDo8OLx1AaqlKLRaDA1OcmtW7dItAqlrw5RwuTkJIuLi4yMjGCMCeJTwVoTPDnsQNsSxKO7uzs8f/GcvCh8xYwM3DwiIt41RMIRERFxs3CABZCqWZsKIkyhdPY8c6d+QVWMw1ernNVufFcth1BqIrzbqAl1u0UBW1tbbG5u0jnpnB7LJVsaGhpieXmZ8fExwEc9SqOvZnOI2dlZpqanT23Hi0JriZxARIwx7O/t8/Tp08psbNBnJiLi3UMkHBERETeKSo/AwCujNBd1XBThuGALruzP8upajctw6vOhCkWA9skJra0t9vYPyIviHNGokjtuYHM2OjrCgwcPKi8RJVDqO9M0ZXp6mvn5ObIs9cJR61NLSutBOin4fzjguN3mxeoqh0dHwcl0YEh2wZFwITOLiHhLEAlHRETEjcJPqD6iUE72eZ7Tz4vg9qlC6uAiuCD98KWiaZJcS8VGOYcrrf3+Hezu7tFqbdNun1R+G2czPZXVmXMkWjE1Ncn9++8NuujWkKYJk5OTLCwsMjoyirPWiz9FqpJah8PW9tLL+2xtb7O1tUWv3/cajiq1UoeceYyIePsQCUdERMTNQga3/aI8ueh0u3Q6HYy1VffU8xiQDfCls41mgyQ0S4PvZ/plK/0EaOUjDYWBtbU1NlubvkFcbTy1bivVKwIMDw+zuLjI9PSEJ1Ll9oPERCvF6OgoiwsLzMxMV2W0KjRpK5u6WWsxIdVUGMPh4SEvXrzguH0MULmhRkS8a4i/3IiIiBuGF1IWxlZRg6PjY47bbQpTVGZfp+EQV5/kQScJQ82hgdj0ws+9ymjqtuw+2tHpdHi2skJra4u8yC8gQMFq3IVxOZidmeHhw4fAII1SFBZjirIgh6FGg4X5ORYWFmhkGUoUWqnQtK60SRes8zTGOWifdHi28pzd3T3yvLg02xSTKRFvOyLhiIiIuHFYB4XxhlbGOjrdDiedDnlR+CZodeIgg0jCAM4biGXpKTv074PSSKysis1zw3G7zcbmJgeHh16LETQZoa63GkO9i8zs7CwPHzzAGq/d8BqT0DNGleJQxfj4GDPT0zQa2aB3TNByaOUb1IkapE76eU5ra4uDwyMKU2Ar7cdFjicREW8vIuGIiIh4I7DWnnIBLdMFZdOzNMtwQLfXp7W1zeHRUTDwStBaVekNFwSiaZbR7/dwzpIkmuZQk4nxiSrCYUM6ptyXMaZq8f4qcIRsj9Z8+dVXbLY2ERF0mmCsqdI9niQoVKgkSbRmfnaWW0uLjI4MEfgPAIlW3ouDktgIw8Mj3L9/n9GRUfr9flUW682/fO8WF0zP+nkfUYrdvT02NjbY2z+gMBYJDeQGkFPPYrQj4m1EJBwRERHXinLCP+v4WS6lTXlhLBY4ODqktbXFyclJcA01oTGaDT4dFmMNztkg6vTlpkPNJiMjw+ccRuudVV+lesWVFh8iFIXDGMuTJ09on5x4EWfoVusrT5wnH8b7f3jpq2NmepqlhcVBZCNs+6L4Q5alzM/PMTMz47fpHEoLxhQVQZJSvBoISKfbYW19naPjY++bVo0+UouIdweRcERERFwb6j1NLpvwJeQarLNYB5utFqtrawNxpshAyBngoyWGLE0QEdIkYXx8jLGxsYpk1PdV/v3KFSxS9lHxZl/PX7yg2+35pnGhMkQlKqR7LNZ4ky6lhDTRLC7Ms7S0eHaT55+HKpyx8XHee+8eaZp4D44QobHWVLkYK16nUlhDYQyra2vs7OyQ57k/z0Rf0Yh3C5FwREREXDvOTv5lOsWF1vLWWkQp2icdnj59ysbGJnlekCRppZdw4qqZupyQtVYIjqGhJrMzM4yPj18axfhO/hxuYP/x6NEj9vcPKPLCp3fSBMR3hTWm8MZcyqdHlMDY6ChLi4tMT00N9n3ReMKOBBhqNnn48CHDIULjrCcvSilvPhaqVHSSBMKj2d7Z4cXqKkfB9TSSjYh3DZFwREREXBvORhXq+o06HGCM5dmzZzx69A1HQb8hquyH4rflCF1UQ9qkbF0/Pj7O/MICo6Ojp/Z90fNXgQ3mY52TDp//6c/keY4NbdAkHIcxpmoSl2iNEu8iujC/wMLCPFmWXZHcKM3KIEk0t2/fYmlxEcHbmydJUqVYvK7Dlw2LKJIkodvtsbLynK3t7Zf4lEREvL2IhCMiIuKN4KL0ilKqshHf2d3j009/x7OVFRDfcbXUcJSmYM4Oeps45yiKgjTLmJubY35ujkajcW6/3715G+CEojBsbGzw5MnTYLeuyYvCkw97Nk0kOGvJ0pTbt28xOzNbjfXivQcfVQnuowijo6N89OFPUBK66AaC5bz7GeBJ2UCn4VjfWGdjc5M8z09tOfZxi3gXEAlHRETEtaNONkojr1JrYazj4OiIrx99zed/+hOHh4c0Gg20Up5wBG1EuR0vHB1YoU9OTnDr1i2mp6eraErdh+O7Wp1751Po9/t8+/gJx0dHGGNIkwRrvH5Cgs5Ca42xRSUanZyc5NbyLSbHxwmNYy86G2f36MtlleLjTz5hZGSENMsw1mIKU5Eyhy8dts5WJcRHh0dsbGxwcHAwaDrnzvCMUN4b+UbE24ZIOCIiIq4V9TTKWS2HMYa9vT2+/OpLPvvsM3Z2diqRqKhSG6F8RCPYl6vQUVUEGo2MpaVF7t27w8TkRLXNEnWh6UWpnIsgAtY6Dg4OePr0CYUpqm2KUqEyxpOlJEko8sJXzChheXmJ2ZnSU+MSd9RTj4PnWglLS4vcunWLRqOBCeWwSg3a0IMnbDaU5RamYGNjg9XV1Vf6LiIi3iZEwhER8Zbj5ffqZ2shyjZiA4ni9Wb7XyFuL4OGsPW1+kXBSafDyotV/r9//w+++MvXIJokyTg+blMUxvtLqEBAEJJEo7XgrEFrxVCzwcLcLLPT02RJgrWuSndcPdZL1nLQ6/XZ2tpme3uHXj+nsJZOv4erohrWt5RXgjE5WguNRsbi4gLDw00Ee653yrmTUn4/DorCE5pEa+7cvk2aaKw13rND8HoR51BKk6YZDsEYi1IJe3v7rK+3Lj8kOfUQEfHWIBKOiIi3GOf9HOTU4umEwjmhMBalE0RpP3mLN6gCLs/xf5elemJDi7HS1KuUV1ZKBa/HsIZuXmDw5GNrZ5d//8/f8X/9P/+TL796TG4ElTRxkoBKQSUoXfPV+ZQAACAASURBVJIIH0Ho97sIjlQrlLPcvX2Lv/vkYxZmpnHWO3PWe6kopUNUxSHiF+cMRZFXozNFQfAOB+vbvbe7Pb59+ozt/X1UmlJY7xFSVcxgEe3HMzwyRN7vsbQ4z+zMFGOjw6SpHpiQnlpOf1/lt1l3KP3oJx8yPTWJxoHJEWfRIihRIbrhEBRp0gA0+wdtVtc22Nrex4SATt7PQ5dbh2ARsTWH1oiItwPJ1atERET8YHBn7lSrOaRGQcIKzikEn4pANNaFefXsNr73WByWkGoIwslyw76bail29KIInWZY69je3WN1dZ2vvvqSL774go3WHsYIxgq5MRBqQRwSSkAVzhovHg3t4p0tGBuf4Jc//xn3bt+mkaYoF9IOdRf0uuFF7aSJlAzgbMRHKArL3v4Ba5sbHLfbOJHAFcIjg9SQtZaiyEkSzeTkBMvLi4yMDNd6vFxwps+8JRC65UKj0WB2ZprF+Tk2N9bpdDo1W3ep7NZxnlxaJ+S5ZWdnn+fPV5kYHydpKJI0QQkYk1e+HgRbsoiItwWRcEREvMOoiyVtyPErfKge5zuVuuTVSMdVcgc/AatQrgqDe3TvrWGCbXk/z+n1c9rtNjs7uzx+/JhvHz9mY2OTdvsY6xIcKTZ0R1VaofBVKKYowp25TwpprREsaZrx85/9jA8efsDoqG/tbt3LjL1qTEQEEVVZpJcdasvVur0eG5ubrK9v0O120VmK4H02vNtpKXi1vpLEWoaaTRYWFpiamiJNU0oy8yoo1xRAi+8yu7y8zLNnz+j1uhhnvYo1mHuVKlAH/riBvb1dnj57xoMH92k2hoPI1oWyYRVKeW1FbCIi3gZEwhER8Y5DKPUSZSrCT657+3usra3RSBNw9qXToXuFmgbH+TB9mf7Ii4LCGHr9nMOjI7a3ttlsbbGzs8PO7i57+/vk/T46SRBF1YFVay8ULS3D/YQJShyiIE1ScJZPPvoJ/+VXv2J2ZiakLhxXZ4QltHwPE28oNxVf9uIJmYPDoyPW1tfY3tnBOZ+WMcagRAVL9cBPbNBUJJqx0VHu3r3L0NBQ4C7frSoGhLLgNcsyFhcWmZqcYmd7x0d9pPatBLLoh+zP9/HxMRvr6xwcHDA+Nkzo81ZZv5dOpDG+EfE2IRKOiIh3GPWJRStdTTAnnQ5ff/01RwcHYQKyL9nKK0LqSg1w1pe4msJQmILCWvJ+znG7zcHBAYeHR6H7a+huqjSI8n87yNIMBO/eGZw7nStTHg5nHY0sZXF+gd/8+je8d/cew80mRb+PVkKSJldOqi6QiqRMNYW1S51pnhfs7u2xtr7OSeeEJEtC1YolSRIECefYV7xo5U2/5ubmuH3rFolOvBnYyyIJcsGfoTJGlBelzs3NMjM7w/MXz+m2T3wkxZVRmEFX2rJEuNfvs7e/z9bWFouL86FJHKGvTAhtRboR8ZYhEo6IiHcYZemnCqZaEpL+nU6HR48e8fTbxxTW4OTlMYxXqWURxSlzKmsHj6WGwxqLdY4kSf2ErRKcLbChXsYiOPF9SUQLeZ6T5z0ajQylFMY4rDEogWazwcLcPP/bP/0THzx8wHBzCIUnOmeLTC8dfRnRYJAy8iJM3x+ln+dsbW+zsbmBtZas2fBN5YzXj4gIEqIhSrw5lzWW9+7dY3JiEiUC1kdjLjmx5+CqnIp/UyeKyakp5ufmGB0Z5ajTxQ2EOWFVqcIcTrw/x8HhIWvr6/zkow9JdCMQmPAZwTd/i4h4ixAJR0TEO45KU+F86WYSvCu63S5d60ArJFRbvA5875AB4ah0IaG3iAjoxN+L+w6nfQDSLCVrNrHW0u/1MNa7hYLDmqKKzoCl6PexpmBifJwH9+/z85/+lF/+/Oc0g224s5Zmo+GVIyFC8NIxi+BE+0hHSDcZa9HaX/oOj49ZX99gZ3ev0juYYLJFKM1VQQirxBO7LE15+OAhWZbRyFLUS8qDz8JZMM6htVQpHg2MDA8zNzfP5OQErd29QODw2608OUK9cehHc3R8xPPVVQ6PjhgZbuKMp3XWOj9W/V2+3YiIN49IOCIifgQoc/x5XqCzlKzRAGtItcZpzUm///Iohlwd5fAVGgOTrYGrp5/4xXmdh7EOrRVZMw2aA58CwOHLdrUvVQ16TLI0JdWKfj8nTTQT01N88P77/OqXv+QXP/spOnRk7XV7NLIMJYIpCixCoq6+hJXyUWsdOhHEKhAoDGxstnj2/DndXtd3Zi0MzlrSJAkRkZJ0+C1ppbl75w53bt9GKy/O9GZjXt9xaqcXYFBGrIMpmV8xTRTzc7PMz83zfG2dvNNFysqfUAMjItX3DNDt93mxusrKygpzczOBDHob+EEJdUTE24NIOCIi3mG4UDaapql357QGEYW1lu7Jia9YaQ55UenLVaNceJdeg+DbpV/+rt+GUs5rJEKqB+ctu0FCO3aFtQVe6mrBQZHnOGOYnZnmp3//d/yXX/6K99+7R7ORoYBet+efi1DkOSJ4UlAb/oWHF4SWPpgwSGE4oNPrsbq+zvrmBoiQZimdTgcE0iyjKHxprgoN1HCWVCf85MMPGRsbC+f/ktNwCZQWfEwjRKbCwAWYnJxkYX6ekZERDk9OKsLjsIjo6jhdEIcisLu/x9OVFT7++CNGR4Z89EaVPWhMFcmJiHgbEH+NERHvMEob7Dwv/CScZpi8DxaazSa2MBRFAWlyfi4802/kKhtw5xymbld+6vOu0jyUVTJYrzdQIiRJ4kWmxkBhg1WHjxw4axgZG+X99z7m7/72b/joo5+wMDdPlqrKSaLZaFROnkmSnPbRGozgwmMUJ6U1CN1eTpqlINDa2ubF2hrH7ROsc/TzHJ1oypSQJynKazCNQXAMDTX58IMPSJOUROH1GwzIzKXnrj6k8u/QM8YYP7ax0TGWFheZmZ5mc3sb5yzGWEZGRzk8PEJrTZZlYEN6CN//ZX1jg63tbYaat8jSxJNOooYj4u1DJBwREe8wXPC/wDkSHaIHItWttwqpjspMqt7CvUYwRORKPUSpg6jKRCsNR0jHhH4jXkvgBtvFaxC8V0Tp4eHI0oSR4XEWFxb46MMP+fCDD1leWmCo2UQxsK3y3hnUDLTOECXOEI260VZ52AhKaXTi0ynGQWtri9bWNv0iR5TCOuuJgxtERCrJqYNG1uDW0jKzM7NoFYpyRRBUcDQdpEDOQ06TDqm/45EliqkgHl1ZXaXb69Hv9zF5QZIklaOqcRacrbxQNjY32dvbZ3FhgTRNENG+rDi2sI94yxAJR0TEO4wyokBoflYUeTXlWWuR0AxMgt7w7BxUWUi4l/UkKfflO5xWkZB6q9Iy6EEgB5R6A69ZKFmKUoqhoSFmZ6aYm5vj1vIyd27d5tbyMtNTUzQbSdWE5VwQ44KIxktTKmWayIINERWt/cR/3O7xYm2N7d1drPO6B5+eKomSIlCJartjIyM8fPCQifHxygFEKu2Lq4Sdl53FUn9REraSEKjArASYmvSEI0k0Rdt3pO10T0izBjrRlYZGaY1zFotje3uH5y9ecP/+ezSzjESrSDYi3kpEwhER8Q6j7KZqCj855f2cLE2CdsIbhquyuAF3fjoshYgQqi0uh3M1C/Na/3NPMgbdTV14rxSVZlnC6MgIExMTjI2PMzM9xfLSIosLCywsLDA2MkqWZr5xmaUysbp0HLXHK82tzq4cBry1tc3q2jrHJydeZKl8uWspEh1ENnzMQoswPjrGvTt3yNLSxdWhRSidUZHLzuDFI/RkzJ83F2wzRkZHvIPpxCT7BwdkWUq31/ceJcFJVkQhWnn5izF0el2++fZbfvb3f8/o0DCJUpVJmLoiahURcZOIhCMi4h2GLXuNON/ITClFmiSYokAFMmHtwLny1ORXq0wpbR5ehlMTfEiRaKXQSqMTXZlxNbIGWXgcHh5ibGyMmZlp5ubmmJqaYnxsjNHRUYaHhxnK0sHG7WCYTgb7OTuG+uPFo6wdYO04Ld7wy4KPbuzsYoxFlKZMhoDXnHhnUbDOopzQGGowN+urSM6ep9Iy/VWKQk6tV/IUBkZkaaKYm5vj7t07rK6tgQhZ5t/MjW9fX6W+ZLA8X33B2vo6szPTNBupT6G5K+lYRMSNIhKOiIh3GMYYjDGkiddvJEmCiEIrxcL8PFMT4yBluN+dCh1UpZMhxHGlvbkILggRlVJVp9Y0SUkST3aGh5pMTIz7iMb4BGNjYwwNNWk2GzQaDdIkCTbjXjBaT5uUfd/K6MhFWo3y8dU8RcqQC5UxlwNOOgUvXnj/CkewPy8t20PzOMLrWD+O8fFx7t69y8TEuC/vVYAOpcCuvsfLUyrlkEo5Sp0Dahm8NjU5yb27d/n0d59ydNwGURiM716baK/TCYZvWiuMEdrtNo++ecTDB+8zNjZCaVQWEfE2IRKOiIh3GEmS0Gg0wDm63S62KMCmTE9N8c///b/z63/4B0aGL3aAOlNjcqWGwzhHYQcTsxJvp10Sh2o7xvj0SJi0rTV+8ha82NF4UaaqlWw6Y0MfEy/qrDQIZ27SXW155em0DAiEcbZaLdY3NjjpdDDOVmJRRyjjDSGHMiWktWZ6aorbt2+TJskglVRKWayt8bbLZKODV1z1v8E7LkRUAEaGh1heWmJ6apq9vQNUKP/1ZENjnaMoCkQcOkmwxqIamkfffMNvfv1rZqamvI4jplMi3jJEwhER8Q7DGt/wLEtTEq3JmkPgLHko8cyy4Plg8ZGOi6bC8JK+YoLSCMkF3KXUgJSaBx3u4n1RioBKOB2TCCpJ58j7OQIkOvG6BAj5BQd6UNbpLljKfZ8fzcV/OufNvr59/Jid3V36/X5IUdRLYMp1/d9aaxqNBlNTU8zNznpbdRFM4VNZ5Slzgbi4Winq6ZEIpRGKw4tTvQDXUhSn5bEWy/DwMO/du8fW9jb9osDg1SVlkzyCgNeTRC96aW22WFtbY3lxkfHR0XNnJiLih0YkHBERdYi/sEM9hB/C+/Vb03rX1Jp4EnfRlH694xvstKxLdeR5zslJm2RMh34jBq29h4QpHFkiF5KNOq7y4fBphvDsjLDTT5kuCD59AzFrDMaa0P3VpyqUlB1cQYnyvhJ+51TWo+r0BMy5v+r7PP/8/HFBXhicKHr9nJWVFU5O2hhrUVqFtEQBBM8OS1XiqrQma2Qctdv8/o9/pNls0MxSnLXkeZ9Ue/2Kc4bcmDJIcclYpIrcmML4tvbOURTeXKyKkYhw0uty0unR6fboFwUqSRGtqqZyaZpiTYEtDFmWkfdznClYXV3jow9/wsTYKBdkpSIiflBEwhHx/XCBNu/0+6GKQcmplV01nV8x+dX2cWGJ31X7/x7wU3iYFKR8LPP/rtqPdQ5xFqeEsqGIDDZwrXByNo1wuhh0YLlhGR5qYk0OQDbcBOtbsyepeqVTdFUppeLyCezsdyoISuswkXJeoHpOZSkXb/yCgMWpiEr1+BIZqYBKFCddXwr7/MVzOp0uaZpSWEuRFyhAh2JXzyU9QSqM4eC4zZePvuHxs5VAqCrRC6XHiK9msSGI4S4Yzukz5MJ5KFetk0Gvn3X08wKLRmvlfwe27AYrmLwAZ9GiSJSi2+mQJQmPv33C3/3N37M4v1APEFW9b1RdcHr+TF361xum0RF/JYiEI+L18dJJ9nRdQf2yWvoeSBl6l2pKCmr+V7zIXasYXwYRjjC7uWongx26+qRfruTezIX5yrhDmPBUIEDOOS9q9L1Zr21EL4siXLz+JSTiso1/h1VOr36mduXUmwMBhwNevHjByckJ1hpM8B4R6yqTr/rnSrJXWEPRt3T6/QtHNAh2uZC7el3UhacyYCbUfl/OIVZAyu/be28cHh3Tam1x3O4yOdas/m2cOjoXPFqU1Ejmy+p/ItmIuB5E79uI64GcWQjTctm+3DqstcGpMlw8S3fLMpJQbaj++Ir7joh4CYwx9Ho9vn38mG6v623aC69/KUnRWX0I1auce3XwmmPgw3Fd4a0zI7hguyICykfbjLW+x40InW6XF6ur7Ozunu+dU0lk/Gd807nL8T3+JUZEvBSRcES8EfiotGcfUqYnLrjjLd+TMxl5F+7UfxiE+MUPtv+I64LDpxOKomBre4tnz57R6/VrWhT/+3NnCbOc3Ur98YJ9nEl9ve5SEpiLyMYA/t+T18n4Aff6fVbX11jf3KSf24tHHLl8xA+ESDgi3ghKHcRgUUjZdVNU6V5N6X3pF1c9vvRK9wZ5QEV0gsNk5BzvKjxrKL/Dfj/n6bMVdnZ3fWfakIYoUxFw0aRfR510vJwqXA8u3n75nw2PIoJ1/u9y2dnbY31zg6Pj48HWasMT8YZt0f484qYRCUfEG0GZThk0tIKzk4ANgjnrBourrXelWPRNjf2U5u+6J5KIa8VLvx7/OzLWcdxu8+23j+n3+n6CDr4gpf/Gq1GIGyQbcsk+JEQ+Au0oq3CNtRhf+kOn12WjtcnWzk5VNYMwqKARAvmPhCPiZhEJR8Tr40JeMIhclERicFkOpR+icLXnvp32S5wa629cGPq+DoRRxtDGOwJXexj8KOpdY/KiYLO1xfPnL6rfXylYdtZ6L4uX/J7KrV22nPllX8/ic3oX/msYpFwEV+vy64myUBjD1vYO6xsb9Pp9v37NaXUQq3GDLsIRETeASDgiXg9nLtDlBc0Xngw0G4W1GKgWS+lcacmNIS8K8sJQFMZPAO6CjV6yz+tCGXkZXIPjxfjtxtnU22nW4PC/s/ZJh6fPnrG9s4O1DqUVSnyHXe8meiaOIPUtDhJ/4i4iGeFvuZgcfO/jYlBddNF2y5Jta323O6W113MYgzGW/f191tbWODg4IDdmcD7c4Bit4wfUSUX8NSKWxUZ8f7xk4jfW0uvn5HlOP8/Ji8ITkbIEFvwdJr6sVGtFqn1fjkaWIkmKHlQD/iCI1+J3Af5Ov84S6nTAOmifnLC6uk6n28UhZKJwyoUGd6FTrDtfsVEvKa60myWbrv44w4Wv4zcjYathX+UuTznYBAOWwhrfQC9NsDanXxSkidDudNjZ2+Pg8JCxsVGSZCh4eViUU95frWwjHBFxQ4iEI+JacPa6Zayj1Wrxr//2b3z7+DFKaTq9LjrRA0cAKSMK/uI/1Ghy5/Zt/o9//meWFhduSK8x2Il1UBQ5ed7n5OSEJPSw6PVzEEEnaThWR6I0eb+HM4as2URESJIkGDPdHHzkPbRUFwaCV3dlK7YfB0LqwRiDTpJg++0bvJTfXau1xaNvvgER0jTDiffWKJUQODDOgoPhoSHyXg9jCrI0xYXogFaqYqCVuReCk7pC6RLd0Xc+JhfIkkWc78BrnCMvCh+hSTRKNA7QSiOC762ihCRNAaGX99na2WZ1fY3FxQU/PgG0whjre92ErriD8UdEvFlEwhFx7XD4UO9Jp8P29g7Pn78gSVM6vZ53TazdJdrQ2tsaQ7PRJMsy2icdjHHBmOjmxq1EUEpjCkOv36ff6+FEULrUl1B5FzihctH0ERpvcX3zDbP+KmjFxagdugRjL6U0TsBY/x0dHh3zbOU5x+02Ir7LKsH0SofvtCQd1hp6nS4CfPThh8xMT6PDjOw91Qbfffm5smzVCYhTiAv26K8BUb4brbEGpTXGWgrnWFtfZ31jg0636wM7SlX/PsqWcSXhsc5xeHjI6toaH3/0EWNjoxjrzeHKuCKlfbvEzHrEzSASjojvB7n4vqgeeXb41Eq31ydDMMZiSuOvMEGYEBLG+ju4fj/3fSGsJxynQ9hnUe/M+foTfRkh6Ha7FIVPBSmtUTpBtMbWOoj61uAJiL8DTtOUNEljS/CbRJVyE5TyYkmldfWyc7Czu8c3j5/Qzwu09hEQB94oy4UoAr7rrrMKZwqmp6b5x9/8htvLt0i1rlIrgwyE8+kJGVS3IG5AOF7zt1hqRAprSNKEbr+PdfDnL77gP4qCtY0NLmrse3av7ZM2a2tr7O3vMT8/h3EWhQ6l6VVwKCLixhAJR8T3QF0aevrV8lGUQicpKkm8q2Hoyll6BpR3pE4EJwoRh7VQGEs/z0+3Sr9EMFpd/F/7Eu9hHfR6PQ4OD7zldRC9WucQ6xuOSQitW2tJ0kEX1GbTR2ci3/jhYK1DdGg2K9Dp9Flb32BtfQOHGqRcnI9KOXG+UZsPb/g+KTrh9q1bfPjwA5bmZ9AqVKJKUNifFZjWlrL92utCIJSNe9KdW4sTod/vB/Fr2en25dvp93O2d3ZYXVvl4QcfAOW/zboW5ApOHxFxjYixtIjXxOkSkiruETQNWZZ5e/OydaXUymCVQoK6vsxZF0VBt9OlKIrz1SmX7PPajsRaOp0OOzu7GFOQaI1WutKYOFxlmFSG18ueFCMjIzQajUg4fhCE1IAK3XGN/23s7u3x/Plz2icnKO3pgChN2ZvEGevTCtZR5DlFXtBsNHj//n3GRkfR4smGAlSNTVev4Sdq/9xdW0lsyEmSKMFZR6oUqQjzc3PMz80y1MiCbudl/wY8kzhuH/Pt48ecdDooraoyWMd1UvWIiFdDJBwRr4H6xH+adDgBpRVZowFKhVRKqbvzl9ayyNBYh3VgjKXX63N0fEx+rlHWy/Z9PbDOBcKx7e2vAa2Vz3tXQZ1ghe18lY0xvs345OQkjWYj3ireKAbxBWet1weFd6yD1tY2a+vrnhQySLkAVW8fHBWxFITJiQkePnhAojTO4utq7aldVYsnHoMyWbkm0uGMwRrjoy954SMswNTEOMuLi0yMjZ3a5/nTIv4zStHr93ny9CmtrRbgy2Z9uslWpDki4qYQCUfEG4GIkKYpwyPDJGnioxycjnT4S6VPWZTX8X6/z8HBAd1eL2zo5sac5zn7+/tsb2+T531MWaEQ2qx751Qbjs9HZKy1DA8PMzMzw1BzKObEbxI1EUKZXvBpL6HXy9na2mZ3dw/nvJYozwu00mG9wfeotaaRZTQbDRYXFri1tEyaaLTgUyrlVbIiHz4Fg7PBzCIwEmfBmtdetBLSJEEEkkT7VI+DRpKwvLjE7MyMj7SFYZ39J1ImTEQEay27e3s8efIEU9O4DE5h/MFG3Bwi4Yh4I1AiNJpNxsbGaDSbiA4/NRGvgyjv50LEwFd4KDq9Lju7uxweHVah8ZvC4eEhT58+ZWdnx5MMEYrCeKGoEh+lDtoSkUGZ5NjoKDMzMzQajVM9KyLeMMqZM1RfQCgLFtjY2OTF8xe02ycVobXOeXGoczjnfShEHEWRY4qC4aEhbt+6TbPZPP0d1vXRQi0t6F0+lQga/xhefq1lsF9XRTesMTjrmJuZYX5ujixNq/dODa02bmtt1RX2z198QafT8WME7z8Sq1MibhjxFxfxPXEq6wzIqVcUkCYJzUbDXxxDJMOGi711DmtcuGMURLRPaXS77B3sc3B0RC/vn99dLaZ93l76+x6Hx/7+Pt88fszB4RHNoWGSNMNYE0gHSPjn4pyrqlGUKIaGhhgbHSVN9Rmn0og3C69TKEXKhbFVdcrG5iabW1vkIYXgRcw6CH09yVXKf18mz1E45qaneHD/HkPNhEZDUOr0rs783E+9ea1aiFCKa/KiIuo+0iHMTE9z59YtJscnKoLhF+F0y1vIjaWwDtEJj775ltb2NoWxwc/DDj5/9nBOD+b6jivirx6RcER8D5wP4tavw6WgLtWaibFxZqamscaiJFhKyxmiEu66RBR5Ydje2+P52hq7RwcYBU6B9WboICGu7czg0ZkQ5jacSrI7iyvLcPF3fP2aNqT0A7EO9vYP+OrRNzx5ukJjaJhev8A6UDpFqQQRDagQ9fbHkihNqjX3791jdGTYh9/FN9WKuClI+H69W63Wwu7eAZutFvuHB/Tyvrfxxtvr9/IcnSQY478jrTXKWYYSxe3FOZbnZzH9flXBcY5knPr7omRGyMG81uJ7pKAHRYSmsJW+Y2lhkffu3MHmOY0kwRnje8IYS6JTr4tygk4bkDQ4OumRW/jzF1/S7fW9QZ1SiPWpISlZ2zmmfFnSJiLi+yESjojvibNX3/OvpFozPTXF3OwsQ80mzjqU0ljjoxxaJZ6qOKEwFqU0Smv29g94+nyFzZ0dunlOt8h9O24pc85lLLkW2ShD3XUhYa1Trb+euoFxF9DudCiMpdfv8+3jx3z51dd08xyUDj0nZDAJhCPzpEnjjMVZx8T4OO/fv8/w8FAYhouX55tC+OrLSEVeWKyD7Z0dNlstjtttH1ErG5yJePEyVGkVF0SjE6PDLM3PMj46TJaoSoxZmnu5eijg1M/+OmSip5dSdO1Cv5T6nhKtmZ6YYGF+jpGhIawxVYqEoFWxpQgbwaAwKArjeP5ijePjNtZSfUYFi/TqZNY4x0tkqRER3wuRcERcE06nNUrdw/j4OEtLS2RZBvgLnQuRB8IrSgVTLSBJUk5OTnj+YpXHT56ws7eP0gmE6EeeFzgnOCeYwgRNRe2iWd2l1RPj4SWl0WmGcZAbg04TjLOsrq/z+Z//zMqL57WjcZUmsbQLFxxaCYlWmFBJcPfOXZaXlsnS7FROPeKGEAihDYLewnhL/dZWi36/571UglmbUgprfTQgKD4AyLKU6elplpaWaDabF9rT32Qr92pPtSqSelBlZHSExYVFZmdnq34wKriO+iqU4HPju7ORaB/RWVtfp9Xaot/Pa/9Mrss9JCLiakTCEXGNGJAOER8NaDQa3Ll9m6GhIRKlwZX9H6QqV9Q68bbTxgWfBMX+/gFffvkVjx49otvtQog2uCph45+7kljURlBdQIMwzlFJRVBaUQQjpSRNaW1v8/mf/8Sjb7/h6PiYKhUOp+78qvtPGdyHDjeb/M0nnzA2NopWErrcuug2elOopeZKTUanc8L6+hr7e/tYa6vqojJ1Z631lSlJeekTms0hZmdnmZ+fR+vBb7NMxd0k2agOrSQEFTGQiiRkWcb83By3lpbLt1DKE6rSqrxsC6CVRmuNtZa9M6Tm+AAAIABJREFU3X1WVlaCkDZqmyNuHpFwRFwjqpnah2yVkKUJy8tLLC8ukGUpzlkSrc7dRSqlg9+RI0lTjLWsPH/Bp5/9nr989TVH7RO0TtBJihOFE+1THyisZZD7DuJU47w2wzjnF2sxzlGEELsTxcbWFr/7wx/4/eefs7m1hcVV5KWMcAwKdkNwOZQ+NrKMu3fv8sknHwf7axBXXsUj4bgxOIexvnxZKWFra5u19Q3anZPTDjGhZ4+z1ldFKU35nY6MDDM/P8/k5GTYpPtByYbfsVdGlSRDSrMy659PTE5y69YtX1EDoerGl8oqrVAhu6iCDb+1jqIoePr0GfsH+5WG5dQOTz1/uZQ0IuL7IFqbR1wTBmSjHhVI04TpqSk++eRjVp6vekMta33VgPZkoSgK7w8gQmEKtFIoLbRPOnz51dfgPBH54MEDhoeaZFmKAIUrnRgFFS7OztnK2rrMtAy8P7y5WF4UbO/s8Omnv+P3f/g96+vr9Pp9CKRngHBnXB2PeP8FYGpygp/+/d+xvLiAKwokhO3rn4t48/AusIYk0+R5wcrKCq2tFnmeY8N376NcQZNhHejB53SSMDkxwfLyEsPDw0Bwj61HzX4g8lF2cvXkPVh/hOMYHh5mcXGRmekZVjc2vDZJVIgsBq2Kszjn03/iLEmSsLq+xtbWlr8BSJshklJqn+qakfj7jbh+RMIR8Ubg8KI8bwCW8PHHH/OHP3zOSafDUfsYlCZNG1gchTGk4juuFrnFWEOG777a7fb48quvMcaytbXNwwcPWFparEiH1imifMrEkwp9avK3AoLGWEeRG7q9Hk+ePuE/P/2Ur79+xO7eLnlRIFojSuMGrUAZaELKShp/lzzcbHL3zh3+9pNP0ApIvEslAlhvmS3Jzbap/6uFSOUeenh0xNNnzzg+bg+iG855mYJzKIEi6IesNVhraDSGmZ+fY3FxqYq6FUVRpVbKaMeNkw0ANYhwgI/g+O7KQrPRYHZ2hlu3btHa3qFXFLWSbFcJpEUkVFWBKOFgf5/1jQ0evH+fkeGm73Jb7dHV9x4Rce2IhCPie+HKS1MI4yrt7y7n52b5+c9/RvvkhPaTNoUpsDrBOd9zxVrrO3dqDdZQGEOmUpK0wUmnxx8//xPr6xu0Wlt88MFDZudmmZyYZHRsFKv97Z9WXjxX5rstXhza7fU4ODhge2eX7d0dfvfZZ3zxxRfeCCr1Dea8AZnyfc3D+MvjKzUbAgw1m/8/e2/23UiOpXn+AJiRIqldLt/dY80tcs/s5anPTM9D/b9zzkzXvMzSU1PV0zUnKysjcomK3XftEiWKmxlw5wGAmZGi5HIXPUIeYZ8fuiTSaAaDAbjfXcHDhw/47W9+za2bm8GErcoKlHURjm8VsWhc7mB7Z5cnT5+RZXnxuS9L7y1cOsQ1gCcdiTGsrq5y9+491tfXsdYW8Q6RfHxnrhV1/txSCMZoVlZWePfdd/j03z4jO+2Th92MpTIGBZ/6iziGwyFKHM+fv2B3b4+1lWUWGunkRc/9q0aNq6MmHDVeGZcRqVppv3Mngglbbf7+97/jm0eP2N7Z4bTf9yl9OmGhtUD/tM9oOGJxsYPSKaPhgHGW+X0ugrZ51O3yD//4T/zxT3/i/oP7PLj/gOWVZVaXFtlcX6fRSEkSP6Sz3NIfDDjsHnFweMj+wSHPX7zg0ePHnPb7NJtNsjz32SomFOyyNmQ1xBuN1g0pdgxdWuzw4w8/4De//jWNNEEXGTCA9QcVVVVrvFFY61NATWIYjcZsb2+zt7eHdRZrfcyODgRCK4VO0lBBFtCKZrPB+voaGxsbNBop4/GYVqtVCOzvyroRY5VjyRo/T0JpfSegPXlqt9vcvnWbVrvF6XBIbvOQMe4/16Ix2vgslTxjMBiw2GpxcHjAwcEBwwf3aQbCUZOLGt8GasJR443Ax1L4rBMdypcvL3X4za9/Ra/X42+ffkr35BRlhNEAjNa0Fpp+0yorJIFkgGBjgSLlNc3uSY/Tz77gm0dPWFhosthqsdheIDGJJxxKYZ23bPQHA/qDAYPhkOFoTJZnRYExB0VBL60Uor2FQsSRZxlpktBsePKjUGxs3uC3v/4Vv//db2mkhrABKTa36OB2med2sTEapnAPiUM5Ffz4isngRkK6cKUGiXz/dsqoau/emgW5FbLc8smf/0KWZVjrXQnRJeL3S9GBEwp5bmm3Woi13NjY4N13HqK1DqXphTRNJ68RrvttEY+JUCB8QLV/X4ER4j5E3kKzwjsPH3J80qN32qex0PKxG6FmjLU5moTEJGTKkOWWw8PSrbKy2Al1SVwIUpWQ2VPGsmhd05Ea80FNOGq8ESjlC4H72ggOlE9//eC99+mf9smyjC+/fsRwnPtg0TwnG2c+5qORopUmyzNfRyBNiniQKETGWc44yzntDzg2x6RaFZ/72E4fC5Jb/3KCd5koTaiRhEIXu9QChWqpRDDGkBiDy3OUEzZurPPLn/+cX/3yF9xYX6fZSEKdMSn3wIhFlIS5Eo8CL2UPZ4s3fZ8Ru9k64cXWFs9fvGCc50VgpQmEJI6dLMtw1pJoTZ6NWVtd5fatW3Q6Hbwly5/3O8tMuQwqbTNGs7S0yN27d/j0s89oNFK//48LhENrEIVzFoUOdUgcp/0+Ozt7HBwecXNzkzSZ3Fclxono+F4dA11jTqgJR40r4WWxHCKC0dpvtCnC0tIiP/nJj7HOIig+/+IrxlmGOEuzkQSykJMLRUyGq2iXsUKkUt7EnDuHOItVVLT7yvWVAvSU1ugj+dEaHYLl/F4pobJHMGNnoxGJMdy+dZNf/Pwjfv+73/Duw4e0FppB8xVcLM4UC3SID5id694aNWYicrssy/jiiy842D/AWRc2B4yWn/C7COPx2BduSwzZeMSdO7e5f+8ujTTl+rO0qZkWSFSn3eH+/fssdjoMhmMy6xCxRcaK0hqb575KaZJg8zGj8ZjtnW22d3Z4+OA+S4sdTIVs+T70BMw5rzTo2k1YYw6oCUeNN4Zo1jcmQeGDSJVSrK+t8fOPPkIpgzEJjx8/Zm9/D20apGnKOMvIc4sKbgpx0dzrSzeDDwZEqfC+d98UIZ6qmlKoKuI/kBEpf1Z5gVKxRLRFidBIE27fvMWvf/kLfvOrX/LOw/t02u3iXHF7el9wKfANBbU6+G3BbwB4cnLMF59/znA0xDQa/hlIGH/W1+hQWgHOl9PXikYj5f69e9y8uYk3hFxziqggsFlK0iE0Gg3u3rnDzc2bHB2fkNmRJ9PxeAjpsT641jmNE79l/YutFxyfnNDpdIqgaK0qpcxVSMO97lysxluDmnDUeC1U16CZC3VwNfj6GBatNKIUDofWnnT86le/YGlpkY8/+YSPP/mEo8MjbJ6RGF3UErC5C1UUfUogLu6BEV0ovgU2+KC1rogO8bvTuqLYk55ssVBsN4/4/TKs+M3hlhYXefjgPh/99Cf84qOPuHv3NguNFHG2UnKkQlgCwRF1zQXX9whKKbI8Y2t7hydPn5EkKUob8hD8K/hS37EKqTEJSmuctdxYX+fu3TssLS76c323t3IBZrnJpPhfa1hdWeXhw4d8+c0jRIY+06bYN0ijlClcJlr7DRQHwwEvtrbYPzjg9u1bODyxT4t0YEoCcn07p8Zbhppw1Hhj8GENygsA460HgvLWC61ZXV7kpz/5MUtLiywtLfLnT/7M9s4O1jq08bEaNvifIezQmhjESdDHQvAkhBgNCtdItIhIwSe8Nqxj6iz4zWahCEZVymFMwtJihw8/eJ/f/uY3fPjBe6yvrpAkGgn7cGgVqjpq5U0aKgZyUjtTvmX0B0MePX7C4dERjeYC4yzDhswVpUBVinilSYKzFovj7t27bG5ukoY9fq4nZOpn+F2BEhXLvtBoJLz73nt0/vAHjnunhVUwzx3GaBJj0Fr5AFKlMIlmPMrY2d3hxdYLfvLjH9FsNHxwtgn1PmxwDCrqEV1jbqgJR403A/F1NbRJ0Fr7Ykppig4ZIeBjOtLE8P6777Cxsc79u3f5y1//yqNHj9k/OCDPcrzZ3GGzHKUNSZKgjPEEolIjwRd/itkZ0T2iwqZWviKps94KQojAj38nJqGRpiwvd7h39zbvvfcuP/nxj7h/7y6d9gIKX8xLK3zKa7wAlQwSqEnHt4w8txwd+f1BRuMxaUh1jiRTK4UKadIi3vXlsjGthQXu37vH2uoqRl9n68YFiJY08Zsk3rt3l1u3brF3cEiW5X4zxLhpndEgjjzPSZOQAi7C0VGXp0+fcdTtcmtz06eHE1yDziHavJHY5xo/XNSEo8acEQI3KVM2tdakWgcrhJCaSgnxUJFzfWWZf/f73/PgwQM+//xzPv23z3j85AknJ6dkeU7vtM94PPYEIdUhlU+KBdE5V1xTxLtyXIjU13itLU1TEJ/Gmmc5iNBaaLG6usra6irvvHOfX//qF7z33rssLTawuQ8e1QovmJSmKMhBadiOG9LHUmFFOusb7+sfNvr9Ps+ePWN7awujNeNx5ot2pWlwJ6gi6FicgPIWrhubN7hz9zaLnc5bvJmUFGXMBVhdWeb9997jm0ePODjqehdikVruObKzDlJDbnO01mRZxtbWFk+fPWVzc5MkVjat45BqvCHUhKPGlXBuNURt0CiycUaSpl5Y+52ngEBJigBQ7d0k1nHn1k1ubW7y85//nK2tbT7//Av++re/sr2zy9HRkacRYn1FUGfBabTRoUhSJY0v5kOKgDgkF1wIQjVK0Ww1WVnxNQx++tOf8qMPPmRzc4Nm05D4woy4PKfRSNAa8jxD4VMRCRkxEqszEYotURKNeSzXisBvkOKlJexiWqm7oarXF29rURJeBR36/uH09JStF885OT4mNYYsG5EoxUKa0B8NcbknHzjng0dVwkKacPvmJmsrK6TpNS4/X0Qgn09dYzaUE0gNPLh3h05rge7hIYlJ/F4yLgcXM7AcifIuzTTxlrrj7hHPnz7jFx99RNJo+u3uk6SsdFoz5xpzhJJqJZ0aNS6J84NGJ/3NsQaCX/KmV6/JVL/oqRAodrccjcf0+wO63S4vtrbY3tpmZ3eH/YMDer0e4/HYB88ZX2PAWusFsngiY0KlUmMMrYUFNjZucP/ePe7ff8CtWzdZWlxiYWGBNE1JjKKa/SdCWUk0TpNK88/ej5or4QDvox9nGXv7+2RZRpFcU2QihEbF8pTiW5YYw8ryMu122xe9egtt4y9bmsbjjJNej35/4K0Y4ncCLvZA8WfBuWhpU6HA3AKLix2ajYaviKuuu0yd1Q+lVS2mB/cHA7rdY8ZZFj5TE30o4oJFJJJUIUkSlpYWWVxc8mNEKMaKmrxUjRpXRk04alx7iATyMRoxGo3o9/sMBgMGgwHj8ZjhaMRwNAwGDYeIt0QYk5CmCcYkLEQh02zS6XRotdo0m41QxTGk7EIlk+X6IKYXO+cmKl5WfxaVRcPn1Vf12LcJl1maXnZMdRMz4HvRLxHVEuzxZ/X36n1ehOox34d+qXF9UROOGtcaVYFRrTQarRnWWnKbV4IFy4JPxugiKyWSD4g7v5ZBnvFbqqLdXUe44IKCs0JiWvh8HwTHZZamy9zf9Hne5j6JmN6kbRYuQzgmy+O//WOmxvVGTThqXGtME474XnVRnKyFNHs4+/NIsTdE+f3oJ7++xZ8mzeIXa67f2e6m3wFel5DM+t7b1l+zCMf0uLjs0j49n962vqjx9uD62Y9r1JjCNNmovl98Hv7pUNK5mkkS0wAlZtAU9Tmu/8I6TTZe53vfV7yOdeNlf78tmHabzSKhlyUONcGo8W2htnDUuNaIFg6gqKlR/awIDiyqjlYxK0C1/Kx0q5SWjeu29J43PV9m4bjomB8aLuN6+CHjh2QVq/HdoiYcNd4KzDIfF8GUwXoR916JrEGhJlwt0wGXVQdKGblfL7rfN/yQSNj3MV6lxvcHdR2OGtca1eyLqqUjWjuUUpfyCwq+GqjmrOnZb2Xv40QSc41rM7wifgiCdl6Bpd9X1P1T4zqhtnDUeGsxK8I+4qJFdPp7b9uCOyuI9KJjgHL/mBrfi6BRqK0ZNd4+1ISjRo0aNWrUqPHGUas9NWrUqFGjRo03jppw1KhRo0aNGjXeOOqg0RrfD8zDMVi7wGvUqFHjjaG2cNSoUaNGjRo13jhqwlGjRo0aNWrUeOOoCUeNGjVq1KhR442jJhw1atSoUaNGjTeO72HQ6EXRg3VU4PcW5aavNWrUuLao1+fvJy73XK9MOOaWHPCdnqge6N8L1I+xxneKeTLeeQzm69ie67U+XzcdZV53Oq/7mlHD+DWv6M90JcJx3R7WxQP6PBU4vl9LqxrU6bU15oCrDqJ5D6Dr1J7rsz5fP/k1H7z5+3od0jEHwjEvCMzYWvx1MWvgqnN+v+i9GjVq1HgVzEs4zms9um7tieeq1+e3G9PPQyrvn0caPa4F4Xh9U9t5eNkArQdwjRo13gSu29py3doD9fr8NuM8snHe55O4IuF4FaLwbQwi9S1dp0aNGjVqvBq+z2vzPJTmeckvmfr5urhMe16tvXMgHI5Jk8p5jfg24iS+zwO6Ro0aNd52fB/X6CgH54F59c+32Z7Lt/lKhOPymYgXERGPOmyzxrVAPQhr1PhBYH6Z9NESMI+zXf0cCrm2AbFXjuFQlf/Ld6ZX7YsJx7wMQMUVLo5bqVGjRo0aNeYsFq6PkFFzacsczjFlSbgi4VCcLVZ6Htm4+CxzY2TXldrVqFGjxg8d09737w0018XCcW06d8atXK0Oh4BzgtYaVclrFQm3fN59z2jI3NJi43kErBWUVmhVtmuu1/qWIKHh6pyGiwgiglJq6jnMfn9ecM4V5xaR4m+tz1bMj+2ofldEMMa81rVjn8SfWuvifoE3ds+vg3iv1Xky3R/zuAZQ9H312XzbqN6bc25iPMx67vG5TffR9OezxlX1GDh/jlTPEzHv/vFzALRSKB3fo1jv1JTxV2RyTbpwzbxy28pr6WkjtISQRwntqKyXzglKgdZzbtgrEY/ZJut5zfe4dvnzaHTxMF4V8y3b5USQ2C6t0Gpy/NuizcGiUWju8xzXr5aFUv1aHFMIxKmrpDoDX6MtVYuJAFKJVakO3m8L1ZoeZwjGWxooUiUO8e/qBJsWNtPfjZi38DmPRMRrRSISP4vCpPr+Zdp0nqCYRaiq532Va5x33Ym/udzwie2KQnW6HVdt13nXm+6HKtG5SFjPE9W2VH+P1z9PSFQJ5PR34vvVZxrxqn34JufDxHo4JdAJ7xVKmlIoNSV33+TaFNo2PYiL685qu1Ta94bk18vvf1b2R8mY5jPfpZQV/gRnzn2JU8wFgivll29EaJiqPBaZel7TDhQ9R0PJdPDpJFv1RFZmunAmxnf4eE4xHJWmnJegctGX5/awQLCBdEwuZuWAuj6a72UR2ztrwa1+ft53q4v5PIXc9LmmyUS1bVWB86rayLRQmn7/Zed9lfueuMLEd6qfvOxcMnF4Vfi+Ccy6tyiw521JeZW2zCIUUFqj4HxLzHl/v6qFyDk3QcjfqNVHASK4ijlBBbNGec2Q1ad0ISiE8J2wts+zjRLMzUopFDJj6KqJtnulMQp5NX8rUPXKCtQMS4dMkIxzCIec/ywvOzb8nHRBbgXtuGoKkijSXzZv5yPg/Z1OaskTCsTUuqrPu8dZXfa6bVIXE45Z1hSZWPsmv331wl+zrV2T4+VlJ6hSoStAqZiiGxlXfIUnoMD72t4uwhFxRuN+yd8vIypXaUf1fNPm8Hi9aeHzMiFzEc47V7UN0wTkos9n3heVCX/BMS8drEoVJuhp1095yHzH4LRFIb53Hll7k5j1/GdZNmaNh1nWqyqmNdrLPNfzPq+2aT4WIAkSVKZW3fBZ+F1rUPG4+HGVDMzN3CHhOpXrz2pztZ0S7qFQn4W5rZnTXTLxS3mQKiTmbNIhoj1RUJNuuYmzXGZchOdUHlcSLd93VP5+81BVcxNQ+LhmHDhzXsR5P7cWVZ9FtW0V2fqSi017GeZDOKqkpxgrlQmkqx9Uv1g9AVy5q5RD4SamccnS43uCVyWmmdr1xasKq6r5eVoznBcuEu7x8+kFfR5tmGXVqF6v+v7rCtuXGeRe2kbUxDrxpt1a5513Wsh/W6j6xGdZFc5r0yzX2bQrcda1ps9V/c60W2bW9+fZN15bhuoAEEKMSrQaQNBWq1aEuTVhBmTGb/GNCmkL7VCXECSvhaoiOnH+aWJx3t/xu4JCX32+K1CmKrigdCFUGqhecj5hNjF4ZUh5LZm0LKhgpSql5fQzlQpBcfNpj7JMulSqsroU/BJ8hf6dyjovZ8fb1QnHlNwWsUxYGYr5XlofZi7pCpCrdpIgoYMEPWXlKPUJNZFZ83aQjmrw3ZuKBbgspi0MxphzNfnp91/HRHuRoInnjIhxC5cRcLOgmF6ApnWcy7V92oVQfX/eQq664J6n6X3bhCP+nI7dqX4OZ60w8TtVl9B5pAImx17EebFMs6xu84xt8b51FxQ/NfmJOJxIMLLqifYoNTU+0MwvRrM6jqcsL4TARJGwKiqotqUihBWvF9w9jbPDUCZe5TVl6lU5BzqyuivP97MxCvG5lFd7OV5NobnwTLOsQBWmNmnDKK0xExxRuTPP+fXgCnk62ar4qpAOkdIDpXRBWqd7bw57qUhgyT7YRUXrm4gnHy76LKNlYZrBxsk5Jz9YYclwOAGlNBqDANZ6y0ZiUt4WogHlYmmtPWN2nsasBTy+P8/2WGuLiW6MQamzkz9+BmVg66u2pSqEgDPnq8aGxODI6rVe+d6Ka7ri2sU8ilrgZU7kZKJ/YhurfZQkc+D7U2Sr+v4sof2mUSUCsU1V0lFt8/TYrFolqmOsej/xnFWBXe3TOAaq1pFZLqY3de/OWbQuSUQUoEorkkLRkTOCXSq/T1iHr9YiqouqXxpVpVUhoyakdPqjXUGWRJyP51Aao+dDOGa3T4IVyMsHpdTEZ+Wx8TefvaG1ueJ8l9KSUBjEK2NEosx6CSktXPlXg4gX3npibJT/x3FR0g0541zw9+MqrrQrtYiLi4iVREhrVaydk+N3ciBfbcVTAmKLgVLkvuAYZ0OGwwF5nqF1HDgO1PQg8uYxMwcG7ZRClEZrg7WO3FqajSatVodEpxhzCV+kvPyQbxtxobTWkuf5uVkHUYhd5GaYZ5ustYzHY9I0LTTNKFyioGm1WoUgiIQptiee52WI582yDGPMhBCN17LWsrCwUHxeprldXsiI+DETz2etw8VFt2ILvszplJSEqypskyQpCNq8EJ/zdMqptZbRaISI0Gw253a9i5BlGc45Op3OxHOPqBLF6niJf4/HY4bDIc45jDETmTZxjGVZxng8Ls4biYnWmmazSaPRKOaH1po0TYt+ivMjEpU8z1FKFcdcBVoptDGUFELI8xxnHUpPku8qKYrzwhjjhU0hcK82RqIQL9wk4b1yfFu01iRJUrwX/1YqBCWaoAzOaWGctB5UyIazfq5JRXgXsmJS5OV5jss1CwutK813/wUQ58izHEEwupybBZF9qblpWpF+PYgYb93SBhVEvVeSPYE3xkyQjcKDElthLeMsA3LSpOq/ek0oAqWZetN/ACji0pgk6UTf+ec4qUjAPCwcWoGEaPgwMIeDEXt7u+ztbdHvH6OUBWVRlD4hVSEdSsobuAoEkDDprXU4Byura9y5fY/V1RuYZAHEhKc0m7XKDDPQd42DwyO+/uYbTno9+v0BKAqhJeIQ69jcvMGHH3zIQrPJwkIpXCJDnqeAGwyGbO/ssr2zzeHRkV8skwRrbdDwNIudDjc3N7l18yYry8vnnOniRUzCvX/zzTccnxxzetoPQiMtFk4E1tdWeffdd9Ba02q1yu+/ojvh+YstPvnr37DOYnNLbnMvzAqNOrZLLnTrxuOMMSRJQiMQsoWFBVZWVlhfX2NjfZ3Fxc6FY+1VnlgUprFZ43HG3t4eL7ZecHTUJbfuzQzsKBvCL2kjZW11lTt37rCxsYHRevK6yvePE+cX+Ar5GgyGvNja4vnzFxwcHjAYDovIfGMMJgiW0XDIYDBgNBqR2Rybe8LRaDRotzu0222SNEEpTSNNabVaLDSbLC0tsba2xurqCp1OhzRNSBoNZi3Nr9NVRYids+TZkNPTE057XcajAYjDGF1YWo3x7fPrlKPRSFlaXGR5eZmkuQxcRBAv11rvT4/HC87ljEYDBoNThoNTxqMBIhYdlAfnIG006Swu0+4s02i20CYJImYOgydqv6jCJSI4TzZchsiY094xRwe7vv3i//PreiAmSkj0Au3WColZx5gOYCbkx2QMyjQRqApMcDbntHfCyUmX4bAPOLQiiPtpcVtx2xT9Cl6RduXlznyrSqDCQRPHRTKoggDyirFf3hSNRovO0jKdxRUajQVAF44OCaNXxDIeDxj0TxkOuoxHPWYr+FOumjPrmBTtnD667LsoPxWCJjENlpZXWVpewyQNQJc9F5XfcIarFf4icrvoEvG+x+PjIf/yL39if+8FG+ttmk1hOOjSaRuybIjNxrTbbTSa8ThDnA3Wh6tBgv/UJAmgGI7GnB61aKg+iwsGs3jDt9OWA9IGi5nSAuThlaDw5/i2MB0cF7WfPM/ZOzjkjx//hT998glWxLc3fB4f+48/+JCVlTU+eO89xDqU9uRPBRdTQTzmcE+5gyfPt/hf/st/oXfaRyUaF4N1xS+768sr/P63v+Wdd96NN+iFT2iHKCmmmUdlMld+dnun/MvHn/DxJ5/gXDDvKc+sdSiGc//OLf5HhP/w7//9lQpeff3kKf/z3/9vhbm7rCvi+61qSQD8/YjXsLXRJMZrirkVQKO0LrJVFEKaJKwsL7Gxvs7Gxho3N2/w8MEDHjy4RyNNSMLibl2OUqCVAQkWlYnYhqrJ1/cH4sm2C1pPkqa82N7l//5rjvzvAAAgAElEQVSHf+LLb74hF9CJKS1jE26WCaPsuZCJpapiqpf4qdBIU9579x3+7u/+jhs3b/rwbGX86BBvro8WY6Xi4uUtwc1mi3/77Av+6b/9vxydnJCLYJ0nJokxXp1xDpwXXBbBiiCKYIUCrQ3G+GXNBe0wTVLSNGFpscPGxjo3Nja4ffsW9+7d5e6d2ywtdhABm+ckSYJW/tkPR0MaSYIJ1hdTuMAqY7UgofF9g9ECWtjfecSzx59hsx5aOSAPfWjCzwRjEmzuie366grvv/cu67d/BmYDZxU68Z0VxxgKnMsROOPmUGcESLyWgMrRWlCM2Xr2GXs7T8lGJyjJ0XjlDAzKLHDn/gc8eOfHmIUWzHkdVALOCjpRjDMhSf08MSqje/iMZ998zu6LJ2jBK6IonAKnBGtyrLbgUlaXNvnFL/4dzYXbIAu4TGGSBlF3LVz7xHU99o/ySqcEQZ1bRoMen3/6MaNRD02GUTmIxdmx70EdCI1S6CS456Vq/fCKlrdgaZwVxAlKGx+LIw4JyrYKa7K3OoVGig5cLMORo5TGiSZNWwxHgjIL/PQXv2dluYOVDFTDO76UDqTIYpTD5X32th+x/eIrxsMjEiNk+QilBGMUzvn4Sv80yxjH8um6MK+9W0ZU0U3hON9WL+sNgsFJQqPR4e7991hd/WU4NkHEgPYKUNWvMBfCYZ1fEJyDLIMvv3zCF59/zdHRNtl4lQf310gTy3h0giZnIVW40RG5dSjRGA1ir26SUmJBLMoZlDEYZ3HjAb2j55ysrNFMW5CmE5cRCZX3vAELIUP78KlvDdMBbVV/u4iQW8fpcMzhySmuIMF+APkhDqeDAXkeisZMuDQjV/eaxTzuS4BR5jg8PqU38ITDigvWIYcS0DphMBqXbrYwYWHaJxg0noqxo0o4cif0hyOOjntIMOFJMPXpINBX+wNG46wwk18U43IRxnnOUa9ftFmkbI2K07PyjCLhcMEUrY1FnGBF4TBYmyHivE8fQSvo9vps7+3T6bRYbLdp/+u/8pMf/4iff/Qz7t+7y0Kz6Um8sxilSqEyEeA4pZNL2XnFuwqy3HLSH9Dt9bFaBxI6WaCNyj29FEEr9acP/VIhGwpHmiSs904Z57knxyKYSLqK70ftsYy6F3y3D0cZ3ZM+3dM+OWEoK0/ulAhYC9ahxesN1qiKL98LEKUcSDkWTOaQ0z5HJz229w9IzNcsLra5f/cO77//Lu+/9z737t6l0255gQ7k1pKmaVGgy/vVK2MVZo7X+KbGIvkp+egAybqgLcgYQYNOsNYTDjEp4gSXZYx6fXqHsLi4SWN5HV2xwurCUuQXrMl0xUpjZj+4opc1OTbrkY0OsOMjtPMmeHEakQRMB8luoSRDKR/AOlcowrOqzCUEsUOG/T0GJy+Q4U5QtD0xE6VwWshNRm7GKNdgNMjpdZ/RWVkDqzCqhcKHDE5aqUu12K+U1fUIjIFEO2zex2bHiAxRaoxWFiOZj8UK8VgojRiDU2CdxSEUHjAcyiYgGmejXDE45Ym2SE7M+gh5HShlUEGAi2hQI4zJAIWzCpFF3FihkkWMGmOSMDb9KkuZ/hDuUXIk75OPutjRAco4xI5BOazyVhAdQyXFWyeUqMpM9ETDW2ssogQX+7JgH77NQgKSAA1E5ZD3gCz0b4hZQxX5oHGez6HwVznNRMHu/gF/++wzHj97zqB/hEkyVtdbrK+26ff6GAWtZoNh/xQ7zmmkDc/ynb0i3YitUD4a3DmM1uQidLtH7O6+oNVepbPaAVKgMREvJIUZ6O2t0/FDgJdZaj5B2NPnxvutg7IciGhFqkThqrRfRKwthICIxeWR6Rm87uG1cx3aLeLIMovNR4xGAw4P9kEcR0eHPH78iA8//JDf/vY33NhYBwyusGCFyxTEoPBjTPx5wY0VRYJEynLJ1Vig2eSsQkpiF0RLaVB9VGVxV+L7z2hfHrooTCQEzU55y8olAtqiRUkrX/DIWosO/WGMQYs3x9tYuIlwbmcpcy78e9ZaEL/ojsfC0Oac9I7pdg959uIZjx4/4RcffcSPPvyQmzduIM5htMEYBS7En8y1tLfvN+ssynkrndIwzkYcHOyTtne51XqATlrExVtNyMlZWXZvyZoVmmlz0NF4IpbRaMDJcZdBv8+E9gHEyaeKF2TZmL29XW7dy8AlPr1VMZ1N+hLkCEOcGiBqiDDEygAYY5TDaOfHsJZgQXOIckHuehIj2ocS+CFdChQ/fn27nZ8AYa7FeegPFOU9A565GGyIfbBOQQ7OKbTokHsRg5EnLROq0j9FF4d5npiYMJGhtEIpAyIh9iJa2uK5AuHAVs4aNDwUSgLFEQ2SIJjw0rg4JtVZ+VnRh65KOLymYsJNDYeWzz7/nK8fP6Z70sM5y9HxKds7Bywv30UnDWyWeX8ywSROXADnI0GiFuVNWhrtYDDocbC/y/LKTVrtdXTaAOVtA5PV2iI7+3bKQNe4AtSZX+Zwymg2LFVYVRHy5eQLnlPx1pz4Hedc0IhV0Ke8cNWVs8eIdheEoHOOvb19tre32dreRoCff/QRmzdu0Go2vQVFvHWktK6E5eCyty6BUBTWCOWDGHUlDujM9IukRsI9xq9L8Wmhn0rhSfaUXRV5Z4EcVpSS6KK6hFVFqaKnvStLQrJ7cCtp0RgoiUyI6YnBqgqFE+ctgdr3v3NlJeLBaEh/q8/h4SH7e/t0j475za9+yZ3bt3y8RXABhaCTOZGO6v0LTixaeetOnmccH3fRu1ssLO6xsn4LbRqxN7xICZbCc22VlyWh3wUqhrnC4AmghEG/x3H3kOFogI93jAx/mniAUoLNM7pHhwyOu7TazSKudfawOoeUKQt6VL5MhlIZqAyUw2F9X0uwEksp1mNMiWcaxltjigQK5a0h4X69q7+MCClCWSitZSrGFYr2lg9tcBjQBqUTxClPpoyOK0mpiFTuLs5VpbwlM0lMCMYl2O29QuWcRqkEKjaSMuZDQ3CRS9G2IFdFB9Jj8EqRwboYPFppUWEdVhM9f8XN23zPaa3IcuHZi+f86ZM/s7N3QCaKJFmgP855tr3P2voyN9ba5DZnPM5IlUEnCh20knlM5rjMKaW89hCq0YnL6fdPODjYZnFxjZX1VvEgq/nlKgSU+vfeEo3hB4Fy0E7EEajzFpgrIgSIeo0g/O2knJoiXiA5v5gY7QWBIxAD7a1sLhAKgSKeQ0SFzAHvCgC/CVOWW7Z39/jv//z/cdI75fe/+x3vPXyHEIpzpSyjuBBFZ5aOAku87760eEyf399rfFdDYf0pzhsFaCQVIuAc+ThHHBjtv1Mu+Ze7Bx8r44W8dycoby93vl+9rTf0dwiVN/h+VsH9Yf3NYbQnKOIcWZ4BkKQhnsXBSa/HF198gc1zsvGQ/+k//2cWO220whMVVSWhs/u36ho6544gCC2KYGYCe/SmebGW0Tjj8HCXRvsxrXaLhcZKUJyNX5eCCfz8bgxiQgnIm0hlvRoEHzBsjA6PNENrS6/X5aTXJbdjEiWICnOltK2F1V3C/HSMRkN2drd4590beJdCyGE40zfTYjn80KDwwl2UtzKIThBxWLH+fCi0MsQKT4GuB9karJhxbhWB5Zr4aKMcLqPtVMEznFNFQzRl5l1iGmiTYJ0BlaB0ipMQtxZpRhhwVdKhQvxcVHp8FpcprSkEcuAAleAt/ZrSbRYphnerFEbdguCoQMCCRUYMDo0Tg4uxHUWLSmJd7f0rEY7IpAShPxjwl7/+jS+//oaTfh+UwWnFyFoOjgc8fr7DyvI7NJsd8sExSodYVpcjOgTxXFl4lA/DZzAIOtFoo7B2RPdol4PFVRYXVzELprJtYnyM0bx11XbUmDe81aCiEbyRq0hV/SCaJnFeyzchNbPRTOm02yhCoGFIhbS59bs6aoN1Qm4t49GIcZaR29yThrAKOQlxDNpHnCtjyK3j60ePGYzGdJaW2VjfYH158QzRUL5DLhSC04jWhWp8i7Xe7dhsNsqaIAU5KJebSu9UjbZEohGPVwgLjSat5gI45/smTYpCw9EdhirJzwVPorDKTKaBOxompdVskqRJ0DJ1oYV5q4YwGo8ZDAbkXkktMlmMNgghHVY0SWpoNBdwWc6L588Z9PvcvXuXn3/0M1rNpo/d0IrJaP/z+peXDMxSa1faG7u89qkKQakQBoMTdneesrF5g4XFphcO0bKhXrZkB4GBC0Lhei1mThxZ7mg2veVGXM4463NycsRweArBKijihbpIeQsqjLdYtVXEsruzxcOHP0GRe4KlY82bqIxUrRtV84//3RUvhRUFzsdf6fChKI1SqfciBAKhtEYbjeBwYhHJfIxGVFRUdK54h6qPndLeUaGMD/Ys7i+MWW0Qp7FOoSRFSMlyh2AwJOTW736uk4rCFX8Wlsto4Qj1M6RSwygQqtwKxjRIkjbOGWLwpydCVcIxOd79WhgVlcDWUCSkNBY6aNPEew0m2zdthbkS4dDBGjDKMnZ2dvjL3/7KyekpmXXoxC+6RinEKp5t7XP31gb3bi6jTQNxI6x1PgZ6znPCxZkvXnvTSiHk9E+P2N9/wfLyGusbCaoZJ6QKnVnjuiHKqOLvgnNMD+X5XC1OKBWyaJQrd/dMjGFz8wbvv/8+mzc2SIxhPBoVmQ15boPVRZFbS24tvV6Pnd1ddnZ2OOn1yPIchQ7WD18fY5xnPiOi0cAJHB33+Oqbx7xz/z4rnR+RmKkwZlVqEJO26fPhnK90GWs9OPFBqctLS9y5c5vFTocsy/AkIn7rPMJR7TEpiJlCaC+0ePjgASvLy0VWUmEheKlALqG1xijInSPPvdsBa1lIG2ze3OTdBw/Z2FjHJKYkUeFZjcZjTk5OODo+pnvc5ajbpdvtktmcdruNSROGoyHjbEyWwUKSkqYNTgcDBsMB/9d//a+88/AhzbSB6Fdo9KvCdxwQg8YFrTRix/R6+xwevGBpqcVCezkoR2biazJxnogK4XiVDv8WULgigvbsrWM5J8cH9E6OsDYjieyUQGFjJpOSco0Oxa1ELN3uAae9LosrIT12ZgyemvoZG2QQaaJUh0ZjDSUNFBmaPET0OW/FDJYIEb9xhtYapX0MUWYzlOuhOGWiLLoEy57WaNNAqQQnGqVTtE4QpbGVgqDeAurLnmhlUGjUMMckLRqNjpeZFZfFLBpVJRsxG8aJw1rn68OIv4d2e4WVlU2s84GfMQ5j0k1UsXBIdZ5XHDqiUDqh0WjR7qwEq4nvf1UoFpO4ctCoc5bj4xP+9PHHPHr82Fs60xRRIXUIX8Tk+PSUJ893Wem0aJsUkTFaaTQOO695EQanc7mP7tfB0qEUWjmcG3Hc3WVn5wmtdod2s+WZn1XedBWVxujGqnEtEWMkKu/M57x4yuH9/2HxFx9yro0mTQz3797lf/hP/4mHD+7TSGE0tKSJwRjI8zJ33zpLluecnJzw/MULHj1+zJOnz3ixtcXBwSHDkU9/G47GoBSdpWWazSaDwZD+YMijx0/56qtveHD7NstLHRrBAhHjRF7plitWdo3CaIXNHakx3Lq5yW9+/Wvef/dd0jSlDDw7q83HALMY9KmC1FPF8d711EhTbm5ukkykuocGOy9wXuZC9YWwfPaTcw7rBMlzklabO7fv8Lvf/Y4f/+hD2u1mkQjlnE9iGY3G9E5P6Z2esre/z6PHj/j6m0c8evyIXv8UycagQJsEUULuHNp6F07abPDXv/6NTz/9N377m1+zvLQYsl3moxgppVDax4fEVN7CbeeDczBayNyA3Z0nNBdS7t17l2QhCZaOUuUvyPfE+lnRUl9iRfouoJQiSQ3W5aQajHYc7G/T7x2jxBIrW0aXSoiEAtGFBg94t0c+RqmE/f1t2p11dGMBv89KdX5EbXy6LwRIMXqZpcWUB/eHJEbQyqIkR0msxxFcWeiCM6NAaYV1OeN8xPH+1+y9+BTIvVEJ5TOmxLtjkmSB1bVNNm7cwSRNH5ejjM9mc6FEgAqZIsGVo8SQjXOSpIXWDVbWbtJotAA1sbdewVlV+bePk3JET6R1DpOkxKJia2ubvPPuT9C6jZBWCEe8Px8c6913EN2qkxYVv1Z6L6dCm9RbOBzeDap0tLNMKEVXIhzOCdk45/DwiD/84Q90j49JFxbRxpCLX3qdSshtTkqDnb1j9jZOuLPepqF8brzKB97XNAcBH0tPi/O1OLTRjEZDn2KYGJSCbHzK0dE2t4d3aXPDu1CE0mx5vZSCGi/F5Sp/XvpchOx45QOKbRgMWimSMIactWExim4WLz8TE8JONYhoGqmhtdDg1s1NfvWrX7K1tc2//PFf+e///M88e/4cwMeGpIbhYMTpaSzqltA77bOzu8vh4SHNNKGx6KeqiPdve2txaMRL5IpPyy0rvVrrGI9GqEaDdqvNg3v3+eCDdycXlfO7aOZbxdsxnkJrxLmzBtawuL5MFDpnyUOAZ5o2MFqRjUYorWg0GywvLdNpN2MIREEITAKNpMFip4F1azy4f5+f/uTHPH32jD9+/Cf+8Mc/srO3C1qTNlKsc9jMR+W32h0fj+OE//3/+D95+PAhnXYbFKRpMrOjVUExLwkVq5x6gjORGioOQZEk3tVweLhFq73gyVuzA5LjazY0SgFT0SKv+9IVs7aUEkbDIWkrRWnHSfeA8aiPVrHSaBR8wcUd71B0yI7y4yOzQ1qtNkdHe9y9O0I3fYFJQsGzKYdA0YrIkp0FJxpjFrl18z06nQYqpIQWpgeJAZIqyIpIlgWxGaNsiMr67D3/ohiDnkfGyqcJxjRYWtrg/v0PUEkLkiYxRVeKNoGKlikRf00roFOvEOsmgk+5RQehP+thBz+Uc7aI1RIXyYNC65SlpTU6N+6ANPFxHMEyUU5ipDKa4gg9e62gmYtgc/+7c1IWHIcipViHKrsXEo5qoFqe50VVwPF4TCzFu79/yP/zD/9I9+iYhYUWuQrcWgi5wiYEfikODo94/mKftcUWaaNBZsdoMTNNL2UjKr+/ZDbFHRi10Vjn/Wta46OMw6ZySmn6/S6PHn3OyuoGurHq/X7KVwCbLq3/XeDb3P/h9VEWjpoOJZjQBifM89GG8DIP/qu2xDci9lW1v14p2DL6hqEQzBA2CAv5+EZpjNYkPmyDNI1m3lLwFhPUOYzyGSHOCrdu3eQ//sf/gNKKf/yn/8aLrW2MSQqe22g2sdZikpT+YMCz5y/YPzjg4f17/v1qmXQJC9Ml7s2TFG+2jbUpGo2GF6KhnHSoKTVJHip4Ga8pvheDEWb2e+kMu+zzjxkvWZb7lOVY/MyYIqC22v8T7dE+aDUxLd5/712WV5fZvLnJ//r3f8/uwT7W+rXJ64OlMVppzUmvx8HBIffv3qXRTCtnnb6diitWl0u0ipvKBetYvGGFrzQqaFqtNqenpzQbhjyzwUTtLbQ+pbHB0eE2jx9/xYcftDGtFGyGiEEnZuaDkqmnOPkbQeCHkvP4iepdbOc9+XnDt7DZTADH1tNH9I4PUGRoI+CiIpvRTFskaRMUWDsmyx0qERLjiUfuhDwbcnS0x+7uc+6kLVQjWDSKreurFFom2qGVKaZPu70SYoymd0iNpEdNWb4FlTRQucJF14S4oj6SUrE2TKhvohpYl5KYDtAgVhT1q2EgYkXsTWhvAmD8QMYnOOgY86Uq0z+wK6XKcvk6BLLneUaj2fRjWzxpsk6B057MFISjDDCWwkLmx0Tp/ppe6Mu/TerPrQ2e3HhTSxHAGvFSC0esr1/dDyLuCXB8fMKXX37Nk6fPQuElEwJ6PFP3HQAiiizPSZMWO3tdbqwu0bm3gWiftub9Yflsih7HyaXmghQBRkJM14sacIgzlhybDeidHPD06Vc8fP8XoRsankF/W/PuLcckybhIfEj5423o18qtxH0fCgIxZbqEQtmZFHoi4Lx52Acp+gmbJoYbG+t89LOfsb2zy+7ePuM8J9GNMnOkcvY8zxn0BwWxu+qNlcXQpLQGhoVkmmzMmoavcq2LcTnKoZQqzbyx86PgVuWZzivroQjruvHuk1s3N8mt5fMvvyT79FP6gz4WQRlfzCgvUnD8enXU7TIcj1lopi/Pij3nM99qVdxxzGgoN5pLyHNvYdE6rJ9i0dov+ONhj8ODbQ7Xb3HDLECy5ON5zm2Lmnqd3zZVeQyvGIN8BUiYF2DHfU5PjnD50FtvsIVlI2k2QKVs3LztldWDXdxoBLrcGiMUiicbD+mdHpHbIalqUQrLaqG88vreJyF+YEyNJ5/ZUyEYVat3xZTk5ZvBuySSie+JOB97EjJABINIgoiv/wRNL/wLt4NXhh0OVVT7jO2O9+FfaqopxWHFMlu5VxWy63QklKE9YkrLjSRAQgz49L1btXBEBbE8c7EeVjtkQtUKSgdnh96FjowY4Rq1iuJLWpNlGU+fPefPf/2U3b0Dcmt9I32UTeg4FxU9z8rNAt2TEc93DjkeWnLVxKoGeawoFxf1ib4MWusllrxyfEyZRWLhEvDtcznDQY8nj75k2DsEyUDGwPx8tTXePkg5T2ZjShqf5aZSSD+lCDsoel+6VoQsCcXtW7d5//33WV1d8fVigl8/zjWb5yGLJKc/6JPn+dSgrPgQXuX+Zmkp8XwXfGumdjMFNf3HBU2bd+JEoZxXyODEKxDBhlHcunmTn//sZ2xubKDQuNwFxUiTW+dLqQfr1t7+Pv1+/3LWmAkLS1VSRUy2yqdEa9rtDtZ6E7rWKT5eQNBKUMqX1+4dH7K785yTk0O/Tmk7ee6ZnX8dCxhGW5J3W5yedDk9OQQ7LqpEi/O7fJukgVMJN27eZfPWfUzaRpkGkIQqpb6PtBKsHdHrdRkMTiBUTkXsjLuvkjApB0bxkQOVh5cNf5dfKwwdCnztdQsqg6Bgn+3vKnGoCPjiFZ9RDLZMEKatDhOl/87p07JdwkXzqzoudIUkmakv6YljQ7m98FMXP8v2maljz1NbLiAcUauKlo2Y1xvf73a7fPXV13z99WNOeqeUqqBDqUA4xIWNrxQmWSC3mlwSjk5GbO0eczpyZLqJrTSySjpi8I8q1cyLEdXM6huVLBSClqKUJRufcny8z/bWE1w+8AM1BOxcboWp8X3FmcevLh4W5fSqCJoYsGV9MSAd3CAi0Gg22LyxwebmZrETpYLCf+3E4sTvDDwaDs/ssvuqmujZtofUw/PvuLifiXuacdyZpbD6xoSMVa9Fkl6KeMq4RBSCxL+KJcH5xa7dMLzz8B1Wl1fQ+FiK6N92QdgppcmdZW9/j36//xrNntb+Ko1FBVO+QSvD2uo6ifHWVQm1DLyh3W92abQjGw84PNjl8HCH0eAkKEd2+qKVa1RrIlwnVAiHWE6O9jk9PgSXocXXTSqP0ohK6Cyvsbi8jk4WgpXAeLe3RFImWDsu6njYfIiPwYiWkCkU4xB/nHIV4hD30rL+Z9h0tCAcPuoa0RZRGaJyRGc+wHJi4M8im9E1k1Ax21UQLCEk3mIShXhR3+K8/pz862KyEQ+onve8cTJ5zaBGFcRKqtYbVb4I5D26d6Zd3BcSjrhFdLX8cdxC+vnz53z51dccdo+xIUgzskStPOnwAtzve2CUIc+h0egwHAtPt/fZ7fYZS4KYBrGgir+5siPje5dLWpUwgKoR2mWZ4/IfIajG8fz5Y46PD3Bu7JktUiz8NX5oqE4oVXHPTeMCG378PGwCUubBq8p+HEKr3WJ9fS1kjOTB7+sDU7XShaAstt0+73qXlCnRejNpxSkXxrOUYppoxJervIQy6mXqDGfIxqu191Whiv/OorpkK2BjbY3FziJpkmCmijT5oE6/i2u3e8xwNJprK1UgG9GkvbF+k3Z7GUXiA+/E+O3Jna85kRiNUUL/tMv+3jbd7j42G1S0cH/myScQ9rq4ZihSK3FIPuake8jgtIdyOTF+wVsFfZxBo7VI2uiQNjssLCyCSnFRKw/uTrCIyxkMevR6R4zHQ8o4iJc1yMdNFNb4IrNnynqkyuNlQsbEXdCr341xGLa0lhS7ApXnLixvhZGldKWUW2y8nDRWJaV3kZa9HAZ09Qam/p663QmDz6Sb9bLT9mXHXUg4yqBAmXCrHB0d8dVXX/H06TNyKygdSrG6QDB04D9KSLTfWyEb52iVoM0Co1xx0O2ztX9MLwPTaBVVHdVEZ13yLgpUF8P4MEMN+CKHWyCYthOj6HYP2N56Sp4PgqmyOjhq/BBxpkLv2SPOsXoEh55z5Db65XURPOj3BvHpnmmS0mw2McZgbR7271AkWocqjD4ou9ls+nOEK0wEYr6mpaNwOyo5x410nkVjFvmIZzuPoLxGQ6+McO1YxE2FWNZgFGi3Fmi3Wiw0FkhNQkz/K9YxfODieJyR5/Y1VoNZR1cVJx0qvMLKyjprqxskyQI2Vzin/S7BCDiLxvk02fGQ7uEeRwe7jIY9Sk28dK+c1/vXBf7OBcQyOD3htHeMHQ9RzgZ5Eca30ogyrK7dwDRaJGmLpeUN0rSNiK9RAd66gfOb9eX5kN7JEYNBzycIxPk7syOmxrCaJhvT1DtYBFVpoSlJSrSSVM41QTZi5szsURRV7Bg9UV4zmu3OF34TrZxlNDlDGaaJyNTJJo6aPXpeJopfNubOJRw6VFWMZCPPc7TWjEYjnjx5wtdff83hUddv2qL9RlN5nnvzcSAbRgmpMRilGI/GJGmTzAqZhVEOuwfHHBz3sVTNMLHhZaU0fxeXnT5TTKVSFQ3xdZZ9BLgvfiQu58XWM3q9LuQjz1h1SbguetX4fiGaJCeWHTX9fiUSojJW4/8Q5Fyo5+0zu3RR6jweY60ly/zmhbH8r8/CsGELdue3VF9aIm2kZ8bbq4y/qgV3lsn1POF0vhh7FTJx9rg3JwzPIUlhDRHrnbe+ZLkndkhpRTLG1wxy1luk0tRnp7jzvBev3LzgoBJfNdI6aLU63Ni4yYReQeUAACAASURBVGJnCRPIT1noUXA2D7VgvBZ/1N2n1ztC8hF+8zFLzHIoekDOE7TfPRSQZ2OODg8Y9nuFeyVq1C6kUaaNpicc6QIkDZaW12i2OohovwsxXhZbl/tMRBy90xO6x0eMRkOgojBf2BpfbdMHTxp87ER8+SqchRwRQ9xDZDLOAQqrRkEwojsmWEFiTMgUsfCtcKgKcTwfU59PVQMVwBUp5+dRg5doU1KlJ69n5bgI5xKOGEUNhDQb//vz58/5+OOPefLkCbl1ZfSrUJANX4LWhijiUB8+SfxEc6BNE0fCcX/Ei90DDo6OvRkx+NeqrpVSwF/yjiZC1qPzzfuslISNnxSAw9kMbeC0d8yL50/odg9w1geP1vhhYmKYVSyRBcGYOetkYtxpozFpUnxBK+23rc8tTjx5Pzo6YndnBwipY8HCl+WZrxujNe1Wi5WVFRppo1IkSoFIyK1/BYkybcmYaaG5SDu+6FolFZtt65CJn/NE9Rrlc5h6hZR4v2ss5Jkjz3JslhcbvgGeGIaS9GnaYGV1lYVWa05hJ3EtUmWqtoDRCTdubLK2tkG7tYjWid/tmlCgzeY4a0kSg2A5Pj5ka/sZR919JiuKVjrkGkNwZOMRRwf7jEdDjMLvpRVYkoi3mLc7i3SWllE6AZ2w0F6k01kmSRcQUWXNC5djjC+70O/36HaPGA4Hsy484z1dkg2Je4tUgjZFF9N64usySUo8Kq6UgnTk5d9UXS8VKALZiJ9fgDOekAn1p7RWvpR0vAyVaqVMOGmujIuzVMKlTZKgk4TMOr558pS/fPoZ+0fHmLThbziYwpTS3iyJCmUCxPunbc7iYofReIgxmoVWCyeaLFfs7p+wtdsNGSspjsQHn/izoHDo8DAmb75KJPxufdWc6YnuUvjKdUqjdII2qY8MV7E4kWPrxROOu7s4d4q4EWdJxyyeVzHLvUG9rXqloiVSiV+Ws8dSPZZqy6/eRi98p6RX0ZZi1Idj4+6KE4eeld3nkO4zrZ3XyH8tXEYDEWK8hjjHeJShlSZJEtI0RYf4gMPDQ54+fcZgMPKbjAExNzFJE9rtFouLi7RarZnWz7ifxOWbHl2L5d8VB2aB2RpNXL5edezM1o3O05qkekB4o/BxTy38cT6Umti01aXyZe2rVbpQjyTLc8bjMbm1KOX3WgIJ3e8tTI1GytrqKp1Wq6hRMtnIszcymQVUTWOM/acCR/R1RPxypdBLqyyu3KDZWUHMgt/TQ4US2qGUdLORkhrFaHDM/u4Tjg+3gBGKDB3i5M607cLnUkVZ0rocU9WWXxazLGBTVxaLHQ/pnx7h3BBtHIL1z0Z8+mijscjS0jrNRhulU8CQNpp0FpdptZbQugHRtRK2z0g05KMBg94x+XjAGQGuylE8oUlMHDDxMM/0WHUclsGXwQJS+TCuyXG+TfZ2ZVxWPqi26Mzcm2GUiLP3nCd5zlpfJeXTV64e5Td6k9J8cOaY18X5MRzxpSATL1K/ebrFP//LJxycDNALi1ilEGVx+KqA2vh85DwPpqpwem2E0egUk4BgQ+EwzywHp5ZnW12+etFlbBbJ1AJj69PGNEKiHIYMLRla8mLzqxh0pUhBUpAGhE1vfKSvJtY3sQqsUlilyTHkkuJIcc6gdYJWjtGgy/bzL+kdPUHpEYIldyEdUSlfWjk+H4npjsGHV/ysTLQ5cg+BmF7jB1kYM1oI8bG+aqF11pMr7QufCarMkqC6fMzQAl/hZbQnluPckqZNxDqUU2hRpCZFx+tWvuWKSek7Uc2M1J685zOtnSV450hAFGWthTzP0UpjtAmZDOVLBwGk8Zu3FfLROb/tfNwkwTriHig2dzGcgJ2dfb755gn9wQgn0FxoISj6/T4oSIxhbX2NDz54n3v37uGsK7JZwKfbRlfNZSBOEOsw2vgcCPFh1FgJz65MZitoulTvGaoaKEwujGUodnFFX0UzfJ6HNF+/T03oQyZ4hZ+r8VV9HoTC0gI4X6Rs4rlLDLYLbXVTpmkJQeBa02g1GWWOR48f0zvt+71jNDSbDRSO0bBPmhq0ErLRkIf37rG2slq66M+s0zLznxdYsTYDFJUrRRekY2zHZIyhocE06Wzco7NxF9dcZOSEXDLAkpiUhk5RucAoQ8an2MEex/uP6G5/CYzA5khu0UKRaOcm+ij+V51zVVbnJl5xd1MJ7Z+1CpTn9XDOYa2PfxMszsVYOF9504U22FGfw/3nZOMuWXbCKDsFIz7LQbdI0mUa6QqLnQ0WO6tE4raw0KbdWaXRXEapJs4liNUYDEYEbTMaynJ6tMfx/jZ22MPlo0IvyuMjiPcuUASXzmK/kXdUmECZaBVZRFwFyg3ZcBotCUZStEtQNkE5PxYkngSFm1j+vCtHoafCRM9fIBW+JImuNNzLJyEW89NK0UhTv5dYiGtRym8Y6Vn0WbViWqpVl4Fz4S9ZyKU88/tEVUZicWhy5p4qTCq+rIOT4ZhP/vYpW3sHDHIBpUNRQVfpG12O7fBTBTblJC/jM4SgzRmchdNhzm53zOoarHYWsdZi7ZBUCUjuLRzK+IFL3NAnNDYwTc8mTeXOQ0fgio6dyJVWSUV4O3AZw/4+J0fPaC+tk7Y7fs8DYvEwVXSP39VRVR5PtfMqo1Ym/3xtqLN/VjUaJd7/r40puiUWKvI7lKr5tCNA8Pvk2JDFlJiUuAOnkxD/E3dtjAJEVbojtr1aeei8a00tBhNHz/GeJk8rld/xO6KGtcLv4WDDGA7+fxOJtaH4IGxslMS0V+XdjkfdUz7/7AsePX7ix7HWfnMyrWm1FsnzjDRNuX/vHu+9926xq6aatihNqFsXQytfYEqjcEqRaF9hUcdx7CTM1dla00TfnKmMN/W7BD1fHNHcbILVE8J4jBeban4kEqL8dXTcayKUe1Zah1dcuOOCW6WmlWaFcS8hvkwn3l2xtb3D4eEh4yxnnGfk1qKNot1q4mxOYhRLnQ7rq6s003QG0ai2WSpXlspBMTYA1ETVRt92rRWihbHkLJDQaK/RWj4h7Z6QZbsgXV85ufD4OFIdNhV0p5x2tznYXqC9sES69ADtwhjUUfXJ8Cb/6Tk29fwqLqhqLEgUplI5w8StV7tc4V2C4UiFTKqyUvaPGw/odfcYj04wiUUHU6214KzB6CbNxgqLHZ8K6weEA5PQbi+x0FrG6AXEDgIx1mB9CYZENHbcp3+8z6h/Qnt1CcThRE8KzLhIorigRni4l2IYlWSySrsqFvVi3kuw8ou3FETre0GzVblM+EcQallU58SU2bqk+eXUVzMW1Xhrvnx+7r+rYriCjyPL7RhsDkbO3Po0qZy9FlRVAlUQjuhd8qU0II4pvxnmS0qbV4epc47HTx7z17/8lZOTXtmwOQVOjseWo8NTDpZ7rC3eQpsm+XhEYvwmP2gV9jiI3AuKqOAqPVUWXa2DX3RXeUwMpjLKP3wl3nAkWLLRKYcHOyws7nKjtRmOyRGn0CqZWONVkeIYf86gyW9AIKrKL35r48q11aSojFOmqk/O45H5mvy+xLe1Fm00Cp+NYZ3F6KSynfjbhCh440JEGSActndWymcyxLkeN2GK27QrVVYp9CWsvcB1wN7+IZ9/+SUf/+XPbO/sAN5CkqYpRivGoxHGaG7dvMGPPnyfO7dvFwGlZ4bSKz1Hv7eCDQGpKkm8IhB3dwommwmapRSTborJS59ZAIuvBqGjyjLqrzcWwsJsnXcxEEi1UkHjEpxA5ixGh+3dCVWFo4IhwY2Ct5g6B/8/e+/1JMeRrXn+3D0iVWWWVlCEIEGAbIpmd7PvzOzumI3Z7l6bP3dt93X3vuxe1be7qZogGiAkIUpXVuoQ7vtw3CMis6qAIlnkEG3tZglkVUZFunu4H/+O+s7Tp9/x13t/5eDwkCiOQCmJm1GgjJZ5SjPevnGDhYUFyRj6Ab0/rcluFTe1U4Y0yWnUoVZrML+wzFLvCMbzZIND2au+Jk1uU5TRxCoic5bBYMDO7jb11ksutjeEptrVBIz59Xo2KoFT2mn0rcXnzOA7ASjlyijlrfP4EpsyGvXpHR0yHg+JjBLFxJtlZLgRc+0Onc4CKE2RcKIEkLfbCxzWGySZEEVqo4pgbKU1Ns/o9Q7p9bq0li8KAJ7Nkg1C8E0UUWdpwYrihP4hBEe7kEGqLJACiVzvaoiVpnyCDjflglVVu4eyladsQBlPpa4KcVJM+Mwyem2ydmYdvX6PO1/f4cXLF0wmEofhUDgbCIletThfv+izzHHUG7O722VjeZFWLUbp2IOaFE3ga3SlRaWwLgSYKJMSaFinv7uCPn1vtTIF+BCqYEuejegd7lFvbTG3eJnWnI9UtrKYfSnAypDKx3PWsf6YVh1NYSQIQt8fiHkOxlASSlUOR1e9yY9ozqPrOK6RDAcAmMgI5b2TMujngmx+5lZoqUoX2oYELpdiNNQksEGI+kPbFWqLABanwTnJThmPEl5ub/OXO3e4c/cuj548YZJMRKA6JwWLcyH6unjhMh9/+CHvvnODdnuuBBsnIY7go3nNQw0ptlKZUsaUZ7knOBT32EmruLB2+K+pZvAc7wtT9OxKi7ummA9XqXVzxqfh/PyHegxl0TNLqKyKdysVCrcqAULh4NCa3Dqev9ziD//xR+7du0+v30ObCG0MEVLqPJlMiLSm1Wrx/vvvM7+wUNRrOa7i/8DmZB6NMlg0Nnc4q1A6pj3XYWV5jXywzOFoG5ulRNoUoEg7hYk1GkOa5/T7ffb2d1heO6AxZ7wmXpdn5fSP6O8JFqPTZNyshlzwY3hQaIOUUuTphEG/y3DUI8sSIqO9Jcx5IrSIer1Bu7NAozVHUJpCpdi43qTdXqDRbJGMJDZPRwabZ4BCa9DWMRr2OTo6YD2doKK4KC8Q+urKO/9ttiCvglVea2yW4YAohjjWYCyo1E+GIxSoUyqACy8H0RROFlWGDZRqkPP6iZyT4ZNS559Gda8EHNbBcDDk4cNH3Llzh9FQKrtGRkx1tqil+eN2orWK8Thn/3DIi60D3rqwRCNqYfOBBx7KB3z5vBcVjFv51OKpHsjSvJRw4X15WOpwT+ckQ0YLgJqMBxwcbNPaeU6tVieK5zxhk/Xmsyr4V4VGNyuGz9mLcWoL35pkGYfdI7Z29qQKrwuCPgj9cP2P32hH/REHh4fexSBWDe18GrXFa2RvYKaPf4zTc1X65q1z5M6ROUuaARFi3Qh/7vBB0jL+4WjE3t4+T777jkePn/D4yRO2d3cZT5Li2RijydIUpeDKpYt8+tvf8smvP2ZzfR2jXk9sfPahhcBABVp5EC17YDgZczScSGxOBVqFvyw8lJ7AyxZxHLL2rZUYIaNF01Hed1wNLJ6q4TKrHp/U3+JZaF9jxGJ9qfqqfUV5jpKQySYGDg98tKS4joYjXm7t8KfPPufPn33GYfeQ3Dqy3ILSYj1Viiy31OtN3r91m+vXrzPXap1h3k9R5U69VhQfX8ATlATnKTRx3GRhYYV0sMm4u80oOyR3UoXY5TmZsygXy/h8BsvR0T5bW4+5cCmi1lgSa46PBzi972U/vP/qpCfwypGEA7z6l85JGQtjvHXDWl/LQ0z6k8mAbneXLB1jtANnyb3SqlREZGo0mm3anQUwNVmjKiLEJaBrNOfmac3N0zuMpMR9pLFWwL7SDmOk0Fu/d0i/d0B7oYY2kWRTBm1dhbFzytjf7FZAAiXqt1LeXeaQirz5GCZ9MDllxo3MwxTfiNPe3eMoUnpVkIqhLkuEooaJmwI6PMVynltfpXpawXgl4MizjL29Xb744nOeP39GmkpUt7MWVxRzOw+kKPEZ/UHKd892WOq0aSzVsXmC0SJgcpuLoFRVS4cD5QPccISgrLJLoX+zi0q2o3OyIZTRGKXIHTibMegdsrX1lPmFRRaW6mKutPa4bCluP30kVPWDc1nOrrzPifdTsH9wwJ8//5xHjx9LCrIPNCwo6sNhcQ7PazxJefbsJZMk8aRUzhf5CyCHN9LCUW7VaWAWxpTllsFwxNb2DqoIKM1l7eQZaZowHI4Yj0ckWUq32+XRkyfcu3ef4WiENrHn4wDny0fX6zWctWxsrPEPv/89n/z6YzY21omNObWXvldnXlwSw5CT5RlKaeJI7p1by/7BAXe+uUuv1yOOgjiYfnbKgw6UHMyBt0J7c7+MRRNHEfOdDpubG6wuL09ZM5yz06LnLH1XwpcRLBvOWvE7I31Ic+lb0KFcEajmeU6ylF6vz6PHT/jyL1/zl6+/odvrobXBGOUDq51PQ3W0Gg0ubG7wP/9P/4XV5WUiX3HzdCPS9wUbfjadIvc1XIyWKqA4jVYSp7CyfIFxd49kkjIaH4FSmEj5Ut+WELlicYxGfV68eMj84gK1hsQ8aCUuvNLj7E7sx+sfwuy4jt9nWsZNSylrc1HulAOXM+x3OdjfwtmEWmxQ5GQ+WxCjMVGd1lyHufY8oMidD44GbO73S6NDZ36JvZ064+GQyNeeEYuYRWvZW8PhEQf7OzRaC8SmgcKIi09XILxzZ95Db1ITN6bB2Ywsy4jiqHBzWDthf39LYu+iFs7zihTWXRzOc4YonwEqv6+ADSWxKRaDVg1arUWWVi4QkhpkjbsyVpNymk8FHM7BcDjkyZOn3L37VyaThNxCVKtLxoZzGKOFJOdHz5AE1aRpyu5+j+3dQ9rNVepG0Lxolqk31XgEFkxxIdDJCbZ3btYxdxwMSBVKyWsXNBf5LAoFypCmKQcHu+ztbdNuzWPqHUo7UWWFnhuieHWriKoTP3fA9s4O2zs71GIJMkyTFKDQOLX301fJp35o01oIiibjMfVGA+skQt25wHEyzZ//5rVgDfMVVgmHdsZ3z57R6/XotNuSkeKzICaTCePxmEG/z2A0JHc5URwTxzHD8YTcURDooSTNsdlosLiwwIXNdT7+6CPevXmTxYV5YmOmDvkT25Rq+erRRFFEXKsxmUx8XIUmJ2cyGvHw0SOev3jh43GyU77KWxSUHO/WWhSytgLgMFpTi2u8//57/Pd//N9ZXlwU33Fxj4qQ5xXjqn6vUoVSI/Vk5M/H4zH7+/u0mg3iyBBFkY8FsKRpynA4oNvt0u12efbsOXfu3uXJk6ekuaXZbJF4EsN6vS7AJBkTx4a1tVV+8+tf8/bbN5ibawjVuJJxvs4oo4pZetXDUMXL+RouWscUdVQUGK3odFZZX79Ov9+nP+yRZBmNhuTr5LmQhllncSonz8YcHm6xt/eMufY8cd2gVB1lzSsUeHVCn04QZifiw5PUqfJ/FSi5fUyTMQqUI52MOOrucdTdRZMSmQib461XCpymVm/R7izSaLYBA9pndgChmmlca9JZWKbdWWQ47JLlnrsDS56naBOhtGYy7nFwsM3S6gZxo1Nae50qPOF/o3hDDn6vHIhcjtFG+aKrE7a3n7O3u4e1Zf0e+TuxYkwDjgLOe0U/WDek5kuztcRbb73L0tIqGClCFyypzitqygmzN7wCcEySCc9fPOerv3zF4eEhxkiqpdaavKg1cj6PK0T4WgxpmvBya5+lTpONlTmckkAgiydh8eYhWTHBvGpRzuHFYHXmj/dRBT+8lgJBQO4izxuiiliNZDJkd+cFndYCa5stuU3uQ3FnMc1PDTxU+JKqaUX+D7/RJkJ5szBAZkW9MSHuxFto3DmQmuWTMWmaEcWxV7RLTU/Mdry5gMO72YIWjw6xAwIWjrpHdLtd4iiqBHxqqZZsLWmaScB5HHNwdEQUxXIgRiIIDRDHMYuLC2xubPD2jWu8/9573Hz7OhEIJbqzGJ8Wcx6zmKQp6WRCZi2RiYiiiJqp02jUxXKTpaR55l2HJ0xJYYsOEflh1RlCCXmltQRCWsd4nBB8t9ZajAq1jLzCgEPzOguOd5EEixliUcmyjK2tLT777DMePHhALY49sFGkacJoOKJ7eMju7m5RfM16bavT7oDS9AYDAm+QtZZ6vcaVSxe49e67/P73n1Kv1VAqBNxV9vsJD0OO6qDFvd5hWVa+DsHFIotUxXmmah2Wli+z0j2g299jPN7DIuzN3rbkrZdS3TrLJ7x8+YjWXIeNzTpGt39APKSaeZ18BcfGOKsGBQuz8lZVsW4M+od0u7vk2QQTO6zN/PzGCAaP6HQWWVpcQZk6IBafQuJpBU5c3+3OIkur6+zsviCzE6mUpRTOZjgyFIo0HdHvHzAaHtFZXAenCmuZmIz1myujXtNsUAI8e7cEzuZellmSyQBFQhQ3gl+Pwm1V1IHJCTxX0gq/KvLMhYIiS4dMxgOK+mXiByuArnXigQi7/VTAMRqNePL4CXfu3EErRWot2hjhV7BOUq9syVvwY5oEhykiI2lR+wdHHHQXWV9ZwjpN7jK/jgWWFl4k5009COIvwMSJCL4yb37T50WRHxmXtZYoilBRDZTi4PCQpcUD1tYviyk35P78TJaNqU4f+3m6A+GQzHM5VLQRrc9EhjyTgERhoX+doH99i2sR9VpDzNG5WJi01t7ELrwfb6JDRVowz1ZG4FXrPM9x3m00SRLSJPW+Si0mX2PQxmCVI8ssUVxjbm6OLMsl9skHr40nEyZJwuLSIh98+CFrK8uMx2NajQaRD7x12DMcymdrWou7I0YVikM6GXs+j6g4kI8ZB8sJKGfHBUNf8BF7K4QXbqEkQjBuhHTUqtdRnYE8JWSiOJ+2aIyQp41GQ54/f8729lYFkLhCLmmtxR2lhAtGmQijhIhtOBrjcMy1WlIZ1mbUa3WuXL7Ab379MR9+8Cs21lYAyFNLrRZhlHCo4BwmPvl5nN2xUioMkrmjPZW3BDyKKVqhXISOOywubzJ/+B2T9IgkS1AqxeWGWMdiIXAOFWlc7tjZecb8/DIry5sYPQHbmJHur+jdqR9V3IpT460mA88wR8xsG5CYgUH/gNGoRxSD0j6F3kLd1OVaU6PdWaLdWQS8e1uJjqeAyFu3tFPU6nPML65hogZ5miEkablk8mBxZDibkKYjxqM+6WRAXOt4d0qxgM9kZXsTm81zsjQjbkbUajUpSZJMQAtdfxTF2FxVZJyjjNGwBIZU7TNXwjVCcSBWTuUVAqOVWLH83KZZiokEUAc23eo6isqcpUpn85xHjx7xh//4D8ajMXG9QZ4nTNKE1lzbp9n4aORQEelHttzmjLOUubrBxHUePX7GlUubXL64QaxPpNahJCmyRSbLDNFvceVsU6jKr5WvZixzoYwiV4409f52By7N0LopJEy5nl6rp1sif/ZW0MMHgR1qekTmVcpLpbnXhl8EU/cU3Xblu915snH9nM1zSGilMSZE2Mv2UFoXmycchmIyNoUFpHDBBC1ea8ku8AexQyj+rbNMxhPu3r3L1osXrK0u886N63z0wQesLC97o6QctiHVzOZe265219Nyq9emnVafU+nWkFgGAxbyM+3jQCk9C3YpLEPBZRlaFHkriLUUIWRnWB5KUdRniuMaURR7jhJxGeZZTm6FYCiKI+JandFoRJokuGrAqg80z62l0agzHA4Zj0a0221WV1e4cf06H334K27dfJtGo1GY2SMjPEOyd2bm9wct76orwhXrRykj7qDQXbSctKbO0somm6O3GIwOmEwOAB+D4IMBrc3IJzlRTVGPNS9fPKU9t8yVyx3ieluEodFUJWKaJv57JC5GOQvmLAOa9SlNjycMIJjOi6hfcibjPkfdXcbjI7R25HmG0RH1uE6agSOi01mmM7+MihuI5UysG4Fkj+IbFKiYufYSmxff4v7dL+i0IlAyN9ZmKOUwpkaWDNnbfcnmxas4m3qAHFX2AT/wWf7Cm7eMBittlmdEUVRke+W5Jc+dMLaWf3TsNuJQCNCytGyJXCptXdX9XhASenkgyn25f6KC17/SWQjkTcKz4JKEZrOBMnkRwBVMJedh4TCRwaiYZJSSWYuyOSaCpeUN3rp6k0YciUlNV0lWxFukfMCXdharhamwMhiOWQLCb6YC2qpoD5zOcCrzps46Dx89YX3tMu12E2309L6DWcz2E7TZm5/8ZVrrwp2Re+NrsAqdNYhTrn/1Nbn1LKxQuFWm5m/WQvCmtCD0VfjBbyjKtMwiJkYZ0vB3fn5DPRTjzbVKgbOOzEnmiolinzoMo9GQyWREr9uld9TluydPeHD/W37/6e+4+c4NOnNzZV+cHL467FV/Ks4eAac2J/3IXVb0K4oiSW93vsaLD2J97Y1UcCKo4jkff9mCeK5QDUKfzxhoHuY6MOVKBoQlioxwcViHMUZ4GKwAE6UUtXodpTVpkmCtJY5jlBLftTGaZqPOXLvNjRvXee/2Ld6+cYP1tVVaDU+wRiD6m9JHiuGfpFy4U346+Veu8qocotODBx2h4haLSxssLW+wsz0iS1NJ58d533yOzROcNRitSCdDDva2Wezssrw8D7VG5Tt9tlplLctPIQPvFc/ixMFUVT8XoGTlEgfKgc2YjPuMx13ybIxSGUrLs7TeuoyqMddZpNVaABVR0mqf0A8FqIgonmOus0y90SZ3E09tQDFOXIbNJ0zGfQa9QxaWmqgorsz33yLSkKaVwvm9LXtHjAO5t+rluZOzrZjgYIkI8xIsQQrrs1RCKH1RYMQfE9bLJnHZh6TY8kyc2kcURrdyJ0n5bMPS0hLXrl3ju+cvOOgeMV9vEEWKNMtwXmNTngHwfFpZ0CjNMm5ev8Fbb91gfeMykfEcGIUP2aenFuax4DtiJr7iFYuqKlxnzljrEiwJzmlePN/h//uXf+f99ybcvtWi0WgCqlAK5DmdIIl+EvQ8e8Oq80h8lFEkBGVZJgJbKy2LxjnvfjuD4fc1z1Qpg81dJb0zUFmHQN43tYlff+qE8VMR9oVc5Wg2G9QqWR2R8XT8WpFZyZAAAdMOxcQm2CxD4w97H9A1mUzY29sjSxIODw7o9Y548eI5H3/0IZcvXi7nMlhV/HyL8NVnA7oqDBXT7gAAIABJREFUWEnE519G/gsxV4hZOH0vB03GZ4x41d8Yn6ViwtozxAUfi7cWeokzvR3OtkKUfx4izzxVvnNitXCW3KdcFimxyqC1EcHqoNFs0Ww2UTg67Q2uvnWZa1evsrS4yPLyMivLS8zNtYiNnlLyZ4Xk9+v28T16zDJQ3YPHONOrt4hpz6+ysXmVweCIXjcrZJ51ebHfbG7ROkI5x1F3n92dZzTrCzRra4C4LJy1XoR6GeqoaJ9q5ounQVHxq8IvdnydhPNqOiHGYpMBg/4+49EhWT7BaEkFTzK5v9IRcSTpwK3WPNWSGCfOqAOUQUdN5trLdBZWONp/jomqBHkWZzOsS0kmQ/b2dmjPr6Kj6rjOZml7E5sq3NtpATZQunB/R1Edo+s4J9lRZWBuGcPhVI5ypmCwDXV2lApsVxI0GkVNosAIGxDGlLI2AzgKP0sFzmutWV5e5tbtWzx++pRu7xsmkwSnjPeLKiJvxj2PLJU8z7DOEccRkQatG3zyyadsbF4hiuc8kJAI2IAqyiJUHr17wOGOGyCmWkjVC4ROYVamBLczYDWD4ZCvvr7HZ198zSQxLC5vcmFzk7hW89rgCcLip1jFU+iz+MVU67Tn2Lxwgc7cnC8QFkzwbuo27iQB9z1bljn2D4747rvvPMq1/gDwAaN+wb95TfS0qmtTfgt4wLG8tMSVy5dYXV0VTcIf4kKCJ86QJJlw1Dti/+CA4WgsXBfDEYPhiCzPybO8KJGOc2RphrWW8XjC3b/eo9vtorWh2ZhjcX6BKNI+jKTitig6xtkep1Keclj+zzMRRvOdDhcuXGBhfh7njjskgYJF1fuWJF4Kz/7rLM5atNLU4phLFy8KYZnfZ1PutiCIisPrLN1Wxdi1B1tay0bP8gzrrB+XBiUgJMsknmZhcYl33r7B1bfeYmlxnvXVVS5sbtBsxFhf9AtvJdUFB8l57N8TzCBTJ3EAHTMLbaY5NLreYWX1slRXHY9JJwMcqQdFAvSwMjdGK8bDPgd7L1noLFOfa6HrMfjMIuOtcwLggrvuNBBxQp/89JwAR4o7qHCdL/Q0Gffp9fYYj7tYN0FhhfUVR+4U2mra7SU67WWotcDXwXq1VDUo3aTVXmJxaZ3u/haOTJgxNQhzaQ6kJJMRuztbXLx0nbg2J+fIG2h8/b4tuMwgKAqGHNAqotNepN1ZAlfzcx1ctfLMnAcdUhQ17AtX8F9ZpbwVyhDHHebaC0IdoeR65xUFWQslKymcFDTqF3Kr1eLK5Su8++4tnr/c5uCwi4k8cnJOMlbO6ck5J+abOJKKiBfXL/Hee7+i1WpjLb6aoycaCWLBo+mCxCWgq9d2KVw3I1yrcQcqZpJlPP1ulz9/foe9gx73vn3IlasPaXc6LDdqfuNVCkeFdDCYliPnIL9mGR5nb6kcrCwv8+lvf8vmxoZn8JMia9ZHXWnv+zov4q87d++xtbXNJJmUyNdnwsSRPoN5/hfYKsvHeZAX4KlYODQb68KX8daVy75sfHBFWG+FsCRpSr/fZ3tnh273iMFIuDuev3gpIGQ8Fo3TZ3IYIxTbDrEg7u0f8Jc7d2jPtfnogw9YnJ8vyK+KGBE3Azpe1bzLx3ggqBTkTgDP2uoqH3/4IdevXytAdFgp4b/gxCyIv3xckC58tdYfeIZmo8HCfOeYq1VpX/XEVcXPq7ssVs/QDSc1WRS0Wi1qcY3hSECccxSF85QHVUYbjNasr63x+09/x/JiK1h9pSS68xwROrhPZg//s6/faX0u/D+lwVSuEh6NMkDPcszqqPz4lQFiao0l1tauMOgdsT+ZYN2EyMhBoFVEllmcVRgVYa1jODzk8OAZzc4i7biNjmoVt7l/usEyXLXoHZNXsxaO18yLm/nBZoyGfQb9Q9JkIBYZH+OltBBOWWdYXFqn0ZonlHuftZHOziZOo1SdRmOBxYU1nsdNsBmS2RIAuUVjybOEo+4+o1GfZnMBpWqzHf2ba6VC7cG4Lgs9mqjBwuIaFy5e8zwcEc5Fsrf930kBP0mL1QUPR15YOURxlfNYUaMWt0FJVd/gVNHBqurs1LqKCifxbKeVot1uc/PmTR4//Y7+V19jUURRRJoLoUioYfBjm/ZU0gpNe26OT3/3e1ZWVmUzaC352KqkXy56GyxBRXj996FO9lwHxzaR+Le6R12+/Po+Dx4/I3Oa3YMuX3/zDRsXNphf7Mgh4TlASmGlSuByXsrSa1rYjHOtFtfeusKNG9eIdflZlvkpPEeDw2F/zFF/6NkOxZJiIlMEpAUt/I1sVdw5FdsExrsf5tttVpYWiYxnVtQVoej8+b62xtvXrmOd46jX5+mzZzx++pTHT57y9NkzDg+7TJKE0WhMo1FHa0OSp8SRIbOOR4+f0Kw32FxbZ67ZpF6LhVGxaN9zgbmAs0Xoa6WoxzWWFhe5fu0av7p9c0qwz74P3xhKDBSU+pWeKLy1ywaw4mO9ipgB/P444+oI1kgf/KxjjTGa1dVVNtY3ODjs8u23DxiNRwUIkwBMg7OW3tERjx894sGli7Q//BWx0dg8BR1TiyQbSHngMU3BPKWvn62rxRy9CnRQsWzMvmZupAXuYiVGamnpIt2lfXq9fZLxUP7GWbSSmKA8gzg2RMaRZyO63efUD1aoza3TiGre4lgCw5Jm/vsKKVV5TVtP5VkVkAaXThgMjhiPejg7RmuvmDjQJgYXEekmi0vrxLWWlPY201T1x/CPVwScitCmSbuzwtzcIuP+CM8fLdPnLd2ZTT0HyCFz7RUapuGBHN97C705zXmFWtynUoZEXhDRmltkcfUiRG0g9i8PPBWUZUPE5VKkyhYpGeWOd87grFS7xWk8L12BC2anNzr519Jq9RqXLl3k1q1bPP3uOXsHh948I8GJkgnz448W8Yo4TN1w6eIVPv309zQaTZQrmeGE2lzNDNe/VI4OE3SWFeSoWDjU1J84axlNUr57vs1fvr7PUW9MFMWQ5tx78IDLVy6xvrHC+toyasrCUdmAP9FpW/0WPfVbcDYnz7LCF12IO+/7VsrMDvXU73hd/+MootlokmcSOKp8ufQ81+Akc8Dm55O99HO3oFk7V7KzulBNFYnCjyNNSPpxuVQyFotbMGHiH5I8haWFDkuLt3n/vds8fPyUP/zxT3z51Ve82NoSfo88F3eiisltzmQ4ZDTWvNza4uGjR6ytrlBfXir6WOoIZ5OYQeO3zhU06kI7TBF0PbWfirtWrB3FVvFzUQFj5fVK3BTGW7tmA9LBZ/vMGuRP6rPfpgHA+XsZY1hdW+P9999nZ3eX7W2xsoWUdrwFKM8yBoMBDx8+oNmosbqyxPWrl6mZWMZgc6nBYXOJvVG1cjBTO+37nUgFDDs2PFe5d+UVAIiqXqfKx+vrrJjmAisrF+gdbbG/3yNPh2hncdqA84eJk/m3NmUw2Gd/f5vWwhGNVtsDKqE2kIDhiFxplMpLJem0sR6z2J583ZTRBMto2Kff75IkQyAtSlEJMIyw1tBZWKLdWUCpSCxQ5jTNqDqhwe0Z0ZqbZ2lple3RLuRh9iXKz1a4JQ4P9llY3KBW76BNVEFGf5OIAxDxo5Um9UUkpZibQpsaxC2gDi4GpHhbMCcGO8Y0PX4AHKGeCoiCL8UsnZX748DlUlRPqeMK/YxLxRGKgIhw1bTbHW7fvs2Dh4/pffEVk1QOEqmbcD4xHDgwJmZtdZ3ffPIJiwsLUoDMs++5EIDG9NqXochEiHtDISx3lXufFCSpKkK76kt1UlVze3uXL778hhdbe0RxC2OkdkGvP+Duvb/y1tULLC23qabl/1zFgIo9P4UMZAxK+TPOycM3GqkOGPzTZ0inUWdBHE7y6PPcC3mEShooXG72HIDoz958Omu5uHxMB1AWmZLMrEIseg1ZedrpwElRHDrWkUwSTBxjYs3VK1eo1SSQb+/gQC6xlvEkIfbpndpItd1eXw7M2+/eZLkCOGSjf5+BiU/VKMjJilPc5jnpZEI6mWBzCXyVuinBahckCATwIQB/9jBWBNdK6JjNc6IoLl1txd9xJhk/m3ZX5dtoNppcuHCB5eUVtre2SZKEXq8n1tc0lQBmb9Lt9Xp8c/cuayvLLC92WF5YIFS318ZANKOkTG2wHwY6ZkbCMamlKkCjsBtVry3nSSnkINURi4vrXLx4mSzdZX9vgPWEh1pFUqTRz5lzGVmWcNTdY2dni/mFZRpNyVgJwc/iDhNrw3RW7CtAxynTUf2VLbiZLIP+EYN+lyQd45ACa6L8hAQAzfraJrV6U7JyvOVhVnIUxcSK5qm4nabemGNldZ29rftYq5H4DZnHkKERGcPBwT6r633mF7KZdNC/weY80PIyWDiCZI1Yp8hzBdYgbpAaAQaEzBOnQq5WRZlwxj+fiCp5pLB7V2qn6BAf5EoFt7JejsFJ5wsk2cIcCpcuXeD27XdZWlogigCXkWVj0nRS6ZLih27MyGiW5tu8c+MaH334AePRuNBqkiQlt5aqrCpfx5fmseYqb1x1k8/+ndRWSLOcl1vb3PnmG0bjCVGtho5ikiwjzXPuP3jAX+9/S384IqRvlfEbZxeoP6SF28qiqOhJSoRyiJvIsxyXZ+AofPZFBa6zfEmIhznl5awlzzJfC6SOtZZJkghLptJFpdridpzw1Weco6rid+zPfgJMowqgVLrKnD+gnbPY3IMt6wpQrvzJEIoB4hyegxq0otms+7gWqMVwcXOdT3/3Gz797ScoZ0kmY1rNBlmWMZkIS2ea5eztH7C1tc1gMCw2sQjskybPH85Tj1nGEKwoSmtqtZrPkhG/rjFRETtVPvqZZ16QYErWk/a6z9RLafRUSfTSjSL1jVS5/cKKUNPPs7pMHa6waupIo43x8iAhzzIirbn61hX+8z/8ntWVZdI0JZlMcD74vFavCRFbZBiPx/zLv/0rf/jDfxTulzI4pFQ2yoy3WbXm9c0d+6mUM/74K3GsK8d5TB9SYF1ObjN8oVX5P1dQm2Np9RJz82s4VccSS/HAyBDFhpCdISDYMRn3Odx/znh4gMtHgGS5BD4GMUJNKy3Vfk/t3WNGEK/c+SvKfRpYKjMmkwGTcR+bTeT31oGN/IEvz3NpeRFtAJ2jdIayEyIyIjIMKYYJigRIQIVXSuQsxk1A5cy354hMjCIWmey0P3MzsCmRyRkNDkgnfaxNkHiEQPp4+pOrOstnW3U6XifKpu6hqjPsP//hR+erv9TKk5HgYIMxEmeR5Xj+CONf0/079ZYuqB0GV7yU16tUKJwNKF/EMygr5U1LC0dYVRW/Kc5JACLw4Qfv8e239+gPuqTpkNholKkVJZbBoX26mrWi7UaeFEmqYkZYm5NlQRMOaFcx16xz/coFfvvxr+jM1WUZ+50YxVFFcJ0EFWTRlxz+M5PnlBcg/q8rAMRahzaGzFO2pxbu3n/IH/70R/YO98A4cjI0EgRhnSNH8+cvvqY51+F/+1//G61ag8xm2CyjHmvSyUiYPouUyXNYSaJiy4HjF6dV4LQPBq98h5ZJFV82rnCmhVCq81jXzgvMOIoYj8eyZnwgQ+ZJ2EKWinI+q9uVSyxsuldl6FaBRrhOOaZjezmX2S3vV8QaOJ/ymSMEXspPpbBoKi2gygI6inypegmECxqcM5XxUp5vCqgZWF9e5O2rl/ny8wZZOsZmKfVaTJrnZRVTEzEcj/nu+XNu3b41RT3uvCukGnsQnnR4zkGeKqWwSpFmov1pfKaJk0MjWHGqgLYKHMJDcCfOeLk3q/tUR6YEia8yx/h1oX0HqmeA08pnVcn73DnqtRpYh8ssrZrmxrVr/Pd//Ecm4wkvXr4s9mnm66UopZmkGXo05v/953+h2Wjw+9/+hlajTsF55fuX5TlRVDEt595qqk8WylOHRpiD6nGiSl6gkB6Mn1vlFNrJ/wXFq/K6vBL5F+SdBZQRLiIdL7C6eYvB2LL14iH1miZLxthsTLNWR2tHloLJY1AZg6PveHgfbt/+gObCEhpf7dv6Z68NjqSsEKok3Vb7IOhidc0i/8DVQBkHYhQQOXAJdtxl68Vjhv0DIiWWv9xF5K5OlmtqccTK2hrJpM94uEcUDeRbLUUAYwl8XMXyFmSZWG8VOdlkyPLSKnu7CaNhLhV1jSJSDqNzbNajHrV4+vgOq2ur1JoNcH4PKFP5nipLtYKpXTHTxMTi2a4DpPQfqfL/As9Wfh9u78q359oUwhOEdqSpJTI1rJN4C1SEVOA9Hn5QlVHiMdDlfqys+dl1j4YoVsX4hMdOTf+Rf3t6tVgVOiCVWpeXFvjNbz7i+YunjMd9rM3J84wcn9MdwIrW/oCxvjqfzGySTNBKeCKcc6RpQr0utRzarQY3b7zFxc1VYm/fC0WzZrMdTv7phEemZn+oTFPIsjERmXUoH5C6f3jEt48e8+zFC7I8o4jKVcI+anNFZhXd3ojHT1/w9Ltt3r1xFXTs/ccQx5F8l0tAVVN5f3ib1vxK0Gi9ohZ+Dgeznhq/KrSrGV3kh7fKQWKDtqj84RACRlUJCAoLcmUPV68p7qmOg8rZ7X9MBpxdCT3TwIJAC6WdwxpU5aApfOyhX8W+0lOHjPzt8bGAo9WosbG6woX1VUajIZmVNRn4ERwa63Imk4T9/X3SNKMWl2WkT7NyBGOoq/wcmiWAtuqslgiwestSx61O8elBhq8QzWe6uABHFWA6tdaVtyMqLW4EK7bFVr3GjatX+c//8Hv+j//z//IHtsgsC8Ta4BSMJwnbO7v82x/+g067w3u3btKoxSJWi2ftyGzuC8GFOQ4xJ+rEAbqZ/8sDunIQKYKnuhiYVmGspWCeOrqcRSmRPYF8VGFQUYe5zkUWVwZ0e0ck40Nyl1OLwakMcisWJ2ewNkXlR0yGOxzsfUez0yJEOjt30kYK8MZNnywKiloZRatYN1wAWhZsAjqhd7TLeHSEJgNyIa3TBkWNNLUkkwlHh/s8mIyJohp403zxwE9bOAqUy9EuF6I9LVQNo9GA0SjFOU1k6miVg0vQOsflI5RTpOMuw/4+7fklodv3mY/l3Y+vd/n3BCHjp0+7EqKE51zIuPB/5eytzvQ0rDpf4CFyyXdCy9yWCsMM11DlvfJxGhKqEAPRqzFX+D5VAd1VIT6zzF5Znj5caa0ljmrcvPku77wjpawPDg4kfkMHb4+Q0QTzqlDv5hL05Hkh0FK4yjlH7iOI6rUaFy9e5Oa7N1lcXCx8tTIIvwBmfv6xrWBXVbLhrXXkzvH06Xd8e/8BBweHBM6DALxCRLe1OUky4eXLLe5+81c219ZY7LTQWj4zvp5IOdHnjV//3n66Ng1gy1yMk68sri4Oa1/hNXzyikcfRRHzCwusb2zy9PlL0kki1j9tfIFE2XeTycQDjqQoKy/3VpwkB09u5e53U2al8lR51So9ywr+H7LK/bwvzM/z0Ycf8s3du3z78KFUg0WUHpxYcPI8I0ngwYOHfLa8zOJ8h8sXL9KoxwQwYfz8Ou/MVtprgW72iPhpm0jT8rt89rEAWB3RbLZZXVln0Nvk5fMBmVWYWozzrKyBzda6DAdMkhFbL5+ztrZJPLeAdRlFvlGZVlL5dnXs7fQVswdzAIzi0lEqZ3d3R5RMo7GZgECxngzRxuEsTJIxk+TQ30hI20C9Ii7QWzaUKAHW+si9wiqfo7TDqRDT54ox2jwDI8Gj7fkN5ubbKD9P0wD8tCcyO+JfcgvAMQTu515eVFKxi3RsN2PBKJWQY7PxfZb/rObo26mAo1xUpXl8fq7Dhx9+yO7uLv1+nzTPfY0IOWRtqFBqArVzYLRzAjRy67MXFLW4RpalLK2vc/vWbS5dvEStJsE8s3Tr51bVT+EdohTARilNbnN2dvf49v4Dnj17zng0BhOED4U2oHw57jTLONjf5969e1x96zIfvv8eDosYc4I2pKZVxr+3N6SVYGN6h538LI9DlNOvhRI8oxRxXKM1N1dU+JUDVNwAUvbdkaYpR0dHZFk2la1R3vCs43KVd1X1tQI6fgpV66R2XtvZWz3iWLG2tsp//a//C+PJmO+ePcdGVkCbs17rEg6fSZJy9+5dlhYWJPh0c0OsPlgfg1KRvyHsvmrdeGXfq/P6o0ZWWHaDzmJ9FoAQ68V02ousr12g190lSwZTa0NpRSgC5chJkhH7+7sc7O+yXm+gtEPpYHacNmUUWr561fo/aZXLfZSyZOMhe/s7ZFmC8SYrAQSJzLOmyFv1yUwoZdBKwJ/TrwYcknFnsM76ItgabbTfsRbrJIZEK2/h88kA2jgODw9YWD6iObeKMTXEQqOm3R1vfHNIGqsHHCETSVX4XwrgUQLO6ZV7Cto86/dX7lu9l37dfR0Q6QiHI3c5169d452332ZpcVHyuaGo31EUDPNCNTAbgqJeq6O08oJTSnDX4phrV69y+9a7zM21AIoiWDB9rzO3182Tj8ANJNy5c2R5zr179/j24QN6g/70xLtQxKvCJ+BgPJ7w4sUL7tz5hoPDQx9ga2QDFJkKf29vVqtWGy5NxuWCUFPyuQj8Q353ekxK5QN/ixCUbZ1Uj3UoVBHzBDixFIafnWMqGLe471n2hxINE++nP5kLYqa7xa9f8dkpf/5ztfCUXG5p1CI+/NX7/Prjj1hcnCeOI7E65jnOOU8e6IjimJfbO/zps8+5/+Ah/eEY66QqqQXy4BLUIRguCOWf70Qq9Wkb9KNCQbUWcBoTN1lcWmN19QL1RocktVgnsVSi3+c+MMaSZROSZMju7kuG/UOMcV6fyotYufKbw5qfHW/4TM9cFxZAOMRyDg936fUOcS4nyz0rqtI+7igEGotSa7T2VcJDTIgwwBqlZ15yrfG+KEcuVO1GVQmowQMuFzYl4dGJQhgyZ7JsgtQ+9aNz01FLr34ylJv9DKUifv4WLBxVa8bM/zOb159w/lWSbE49ak7a6u6E75sRDpVpe82p6CqHv1gnWs0Wb9+4wbWr12g1GwXDH86XKC/cIHKHkJ4mB7bXSpQiSSZcunSRDz/4FZubm8WCtNYec6Wce/Nqg0NSeA67h9y5+w3Pnj8nydIKWi5mwY9H+TLs4vPt9fvcu3eP+/e/xdry5u7UTfv39ma0WcFbPsvik1kDQTicXWVbTh3YYR/JerLOkaQZw+GIJM0EcGjtD7+Sc6JWq7OwMI8xVbr4aQDzuhYsGq5ARVWhMHO/mb8s0M7rgMWrAIiaeZ0TShGtWczlsVG0GjV+/fGHvPPO27SaTa8+l1pc7sQ6mWY5z56/5LMvvuLh46dMMsngcQ6y3EosDRSg438MjZ0rSgb4rvgsgMgH/8U0Gx3W1y+ysLBCbrU4EZQidxm5S1HKimrlMox2HB7usrf3EptPUFXTejGb+Mdy2qI6zcrnEG06I88n7O6+JEmHKCVMnyCAA+ezuoLb3AlXpakCjmCRqhx/pUQtciKECdMI4HAaciwWW2TsKR9wHIK+lZIg0zQZMxz2SCYDhP7cSeDuzAinRlpVOGZOhpkLfhlNOW/F8BlDJ4KMKtioBLwWgKPMQJnd1uWeqIKNUwRABfjBGWI4hCrWYpRnk8wSLl64yO1bt3i5vc/w6fMi88SYCGVK4BCsAgCTyQQFGCNVaOu1mF+9/x7vvvsOtZoRJsFQidML1lnA8YNcKzN/EhgJ0ZokTUFp/nLnG54+e0b36AinFHE9KlKKtAr9qGg53pqTpilb29t8+dVX3HznbZYX5iUzBxAO+VdFAfy9/dJaQPnTAsYxLYaOC6dT71ZsNg+gi22qyLKcXr/PYbdbWgJdoIeXgGZtDM2mcE4IpwUz58PZ15abfVfkZn5PYRkuP1kiT7efYelrBfU48sDDsrG2xu9+8wmHBweMRkNUJtknOIkRmCQJrdYcWZbx1dd3aM11aHfmuHLlgj/0hLjOeRZl9TqdzLcfY4A+3lxxz+LeijKhwhnhUdB1FhbEynHU3SdL+1hSbxXxmSZKMgK1cQwHR+ztbtFoNLE2Qakc568pgUbVgvH6bhbBolhwKeNxn/2DHZzLQE+Hq+fWkGexVy49hFARWglhm3YS2zEVn6QqX+b/18rJvZUWwrO8NAM5l5FZh3Yao2VdKK1RkluMc47RsMtgcMDc3AI6Ek6cWXdidde/egp+YWDjhFY+zZNI4+F4TE658k6ah/Jnd8rvT/52eA3gCN3J88ynxwqQaM/N8fb1G3z3fJuDbo9eb8B4MpFaDcqIWdIFsh8BIGmW0ajVZElruPnOTd5/7zZLix1/nXxnFWxUCX/kmtcvgRPlYfVzH5GOcyRpyu7ePn/805/YPzgsCE/yXGJRQqBo0EiVC0qrT09FMRyN+eabu3x95xs++uB9FjodMfv5a/8exvEmtermmP3fzVzHK6RS+GD6mK9qCL3+gCdPnvJya1uAeogfcCErRszVjUaDSxcvFQRrgQMQKyRkZw4eLRfvsb79oFaM/azWluroz2dTiE6ToX3VWiNqLLfffZe9vX2SNOXZ8xf0B0OU38/GRERxTG4dh0dHfPbFl3TmWzSa/5mN9TWiKPL7v9Jzd3qPz2EmT2nOp0Grkx+Zt3KY2hzr65cY9Ltsbz8mTTIf7OoVHue8aynBkXF0tMdgEJMmQxS+yFmRQjZj1Tu5W8W4Q1Oe+jpPx3QPdxn0D9HaYW2GMZKmLOKygXVNmo02jUZLUmXFu06oOC1Krpn+wlmrmEpxKvOl0bVUnI1jtII0GTAadMkzi3ZgbUYcgQDJBKViRsMuR4fbzHdWaXXmj41PVbb3WR7u+djrfopWHcisqhR+0qdsyePP//S1fpo7KqzdMwKOgIjC7cbjMbVajNERq6sr3Lh+jUePn5JlGePxiDxPi8DKEjCUQtQYQ5Ym4BSf/PrXrK+tYvOc2PuuoQQaIX7j+1g1Xv/QvXvHOSZpSr3e4E9/+jPPX7zgsNul0ZzDIT51MfMJOZK1EvFsPfdBQM3BR7z08JNLAAAgAElEQVS9u8sXX37J29ev0ajXqcexVGY8c8//3t6cVtmsJ27SigXB/85V/g+vo16Ph48fs7294w8Ib1HT3sLnLHmeE8cxy8vLBRV5cWx7q9vZ9kew0DElRc+mnZ1y/1O/9lX3rIrmH787lPLT7Hl0RLYZlNH8+uMP6R512d3dZTQSzoUkyWg2W/QHA/Isp92eZzQe8/kXX7K0NE+99glLiwsAAjq0MGJOhc6cIJx/in1eFKZUwgZqfaJByWljQEkRybnFddY3jjg43GEyGRJH0qMsTTDKYjRMJmNqtSaT8YA0y4RVVkml3/JgCsxNZxtgqReL9SDPxvR6B6TpCKNynM2Iowibp1igVusQNzdYX7/E2to6rVYLZ5UntavcsfJ+GmjIe61zjMlJc4skdkVEUUSWJhzuv2Tr5RN6h1vYtO85oRSOHGtTtFakSZ/hYI8kGdAq3EqVcQeM8zosX/38lyTsA7dLUTrdvy/A5NTFQAVzVtpJQ5p+5id9djL0CO0Y4JhFKA4h8AJo1uuFgGs1mty4fp2X27vs7OzQqNdI01QYKI0hjmPSNCVNpRaJaHGCPj759Sdcv3aVhflOUdk0DCPcv1re/HuDjqD4OVcUF6vSMSttQFnu3b/PH//8Z7rdHiYWNlGUJq7VKIi2KC011Tolkv5qGQyGrCwv8fkXX3L92jX+y3/6PbW4hi+oKamyxhzrZ4hVObcMnJ+zKYpUNKAyt9IcQWj4i+Wiyqe/0DF7v3IAmeGETrOMyAdv5nkuKd7KE4ki55LNcl+RV9a4Q641kUTeJ2mKjmKsc2xt7/LlV19z/9sHjCcT5tptanGNXn8gzJoGQLEwP89bV64wvzDvs6kcRmmJuFeyJoFSOgZAXW2VNRvFMTbLsFkuQXgVoH+iIeeYTqNOB1lBVjukXL32ZQlm3ANhp58NjstBZMtUhiJFPbwXUCB3lUwEqSfSbNR5/73bdLtH/PO//lvBPREAnYqNuFRR7O7u8dlnn7O8tET91m1azXp5/DgPPpwr0mZPm50wPgXeAqUlLsdaTHBVnCEuTawxpfzTipJIrtDA/S9zIKqzunaJg4MdknREMumhlJMaMTiczanXIpzLhbrA1zoRoi+8gmh8+NF0sHS11p7IM98nHeYmQ6kUrVOGwyN2dp6TZWOimkIbsY673GIig3U1TLzIxoV3mF9ckvsWqceU33vCOpgKmnIZkFFTijx1mDj2k5Qz15xnPEo43N1DUaNeNziXoLDEBiw5qR0xGh4wHBywsDBGmYbvhy4O5KoxMFi4AkdOKIx27MEf4zYp5+3nlHlSrE2IMGu1OqNJiokNSsU4ZSTOstRcyn5WgNbJcnrWTlv9vS7mJ7AiS3jE9B1e66AMFg4FBXVxeL+4sMDNGze4+tYVbJYSB81eCSeF1pL6JwFvijRJuHL5Mrduvcvqygq1OMIwTY70o5urCLlqPAjBXiM+3b29ff7y9R2Oej1y60vcoSCU8g0L3FV2W4H+xdfucMy12wyHI6y1/Pmzz3j+covME54praaAUzX7pvr/m9t+2IP7RY96yo3njq0lpcvgTRUY7cFn/XuNFG/VMxEORZrn/mCEnd19/vXf/51/+8Mf6PX6xFGMQpGmKUZrYmPQzhFpxerKMm9dfYt2uyOp5jAz5e4MB5gqYqryPMfmtjgoc1sJkKQi82f+3iPMV85Z9TplNE7hLYJVaPHDrRsVsXhSByh3t1zZbDS4dFGC0m+9e5M8TWk2G4xGIwKlu/FxMlme8+z5C/79D//B9s6uZHzYAn+CUlJ35ZRvPrXHAZ997wVfmc/qfWY/Uhq01MLQcYullQ068yuga2TW1ytxCD+HzbHWk3BpccfJq1Ioburm1Y5XLGQzS8EYjTaKLB3T7x2SZmO0tjhSIMhBg7UKZRq0OqvEzSUwbSwN0K3pl5l9NeWlZ96rNqh5tJkH3QHmQLXRtQXm5lapN+bJrcFayYkR5TMBl6JISCZH9Hv7TCYDyqDKUKCsMt+/aGF1cpM8IIPNlQeIPiA6zYqsLYm5Cf6svFzszvmfJbX41e8rQdmuzPgRF5n8ZGdE1KmA4ywioVGrcfHCJr967zad9hxFTLfNPXmLIvKFgrTXSG7dusXbN67TnmsVHT5X7Oc1oGpqbtA2rReuo/GYh48e8vkXX4iW46/BUyEDU2lSs80hwtShiGs1oTzPLY8fP+HOnW84POwWgDdokD863ffv7advCh8XIdkB1gf+eoRdVCvOrCX1qe1OCQumRQnrrlagDBZV1N9BG3r9IX/+7Ev+7//nn/js8y/Y29snzXJMFJFnOWkyoR7HxFIRkVa9xuVLF7l29Sr1eq3U7GEqtqkoBf+KFoCSzS15bsuj2YkygSrdPdbNJNQV45t5f8prtu5sbq2vUinBmITvPLdnFu5VpqwrHJE2tOdaXL9+jU9+/RGrayvgM+2szcuYGM/w2j064t79+/zLv/4rw+GINJN+57kLxpVXNFd5ncugmDKDw+kCWRmwGlSN5eVNVlcv0mjOg6rhnGfTdPh1EjIFZyoEO5+o6ryWX3xn4F8VS6/HXtUpDzcgGQ/pdvewNiGK8NYU61NaI5w1xLUGiyvLRPUYpxxWU6RrW+XK1O3iZaffFymemqLKqaqDMzgb4fIIVJ12Z4XO/Cq4iDwH4fgwvrq1RStLmow4OtpnMDhEMjkyOUiVFdqGmafxZjXPVGzFFad93STrK+dqJRlFkIFKgZSyVs1E3hP+n32f+Ov936oAPjIKNtpgIFOlTAntDEGjpzejYKHT5ubNd7h9+xaff/kVWZ6SW19LAQqXRmQMy2srvPvuO6yurkjNAptTirrzNXPk1hauIGeFZl0bTZqm7OzscO/+fR4/eUxcb6CMwVUCRV+Zzhr2otce0jSl0aiTTiY4Z/nL11/z1pUrdNptGvUaIebDBjMz04Do7+2X1Dzy93UipPqrLjZP7iyZtWTWMU4yD6ZBaUVunbhdrBxSWZ6SZhmH3V1evHjJ0++e8fDRIwli7A/I8hyHZHaJr0a+Nc1S4iji0oV1br7zNuvr64SK7mWSlNd8S9X0lU2yrYLAKX8LikmSsLu3z/MXu36/HDeZFozThb2TSnJL0H79/06qc3Y6HWq12FufXXk7da5wg6rckGfli+iRo5RiYb7Duzdv8uLlS/75n/+VLMsLpSLzBQ5B3DHdox5/+vNnbG5e4He/+Q2RaYhl60wdPuf9XPLl+8Fx3PAAiPaqUTomas6zvHKB7lGXJEkg6SF1UZDnIxSd3mpn/aPzgfEu1KLS0/JvitLcFaCu7IOFPGE4OOLoaJ88m6C0xWaZrxMjIEZjaLbmmF9aREVGuEI0hDyIwIA7PdVu5iW/0xgUZmoeBFRpjKrRai2xuLjOwc4z0mQCThOZiMQXkdNakeUJw36X3tE+K+sXkDIUSsCMCgXuPYBVha3pDWkCWKW6q/ZD8llXypIkI5L+IcYkOCIBbARlJlgrbEH+dvK4PZ+VrzisTY3G3DzgCqZkCEpN2V4TNPqa5iCKDJsb63z6u9/x7NkLnr/cwtkcoyWOIU0TtFK0F+b5+KOPufrWVeo+W0XiAM4bcMhIRTstyx0rX5P6qNfj2wcPefDwIUmSoqMaOq4V+y/EXpTmWcXx1MEy9iJNMmrNBnG9jstznj9/yZ1v7rK2usaVyxfQ5rhL5Y2N3fibb6HEOqC8k6SID7AkacrWzg5//POfefz0icTxOKm+6ZyTmAggz1KsFVrpra0tHj5+Qrd7xGg0ZjyZeJ4NXaTDxnFEliQkkzFGKzbXV/nwV+9z6+ZNWq1GoaFGxrPjAgQ7+xm4XqxPGXUotHcZKoTvY3dvn8+/+IrnL15W6hZNg43yNyXgCJaE8lPRmiOjWVle5v3332NzY0PqZzhX7iFHpa7IObUgPlQgj5KmnCPSmrXVFT797W/Z3trm3v2H5NaRJBNwzruJffHGLGN/f59/+qd/YmNtnWtXr9Ksx6+wA5ez8pMeRlNEbT6wM4zZgdKRR6M1Op0V1tYuMRwO6B9MRKlTQqaljMLi68xYi1aqKFNftUoJwAzAJIwxgPGSgVnStDMm4yH9/hGj4YAsS9AqJ6RwS/yLoV5v0uksMNeaI4Q/T7GphqEW704GGwW4LVyZ3iWvy55G9SbzC0vMtefZ3+165bOGznNwGuWk3leSTDg6OiCb9IkabYKPVKHF0jEDaqZ7GU6I0yvK/o9qDkAposj4JAmLcxlKWWw+4fBgi8cAxB5sGB80Ks9YeUtSAF2zybTFOkGDMuioxlxnkYvNOqhYXi54DZiaw+8PONzMD87RajS5fes2t2/f4+CwSz4cignP+721MWxsbPDp737HyvKS5FE7Jwsl8GKcgwSSIM8QuV/mECstQVhJmvDi5Uu+ufMNL15sUW80yYOfWWufZjfbl8rOhmMdVUqqcLYadQb9PhM74f79b7mwucny0gJL8x3J3Km4U6ZM4n+3dPximnNiThUwHNaSPLPcWpI04dHjx9y7f59GowGIKy0UTJPYJetr6oAxhiSTwMRWUyjMs1yKWEVRVMRVxEaTZxnO5mxsXuTjDz7g4w8+YHNjRcR8fnKc01kPOudrBWnv3gRv5rSW3f0DDrtH0vc8m7r5lKhX4RtVSbIon6BcSRHUrNd55+232djYFMARgsBVYEx156ZfFH3zAiQoMbrSd4eiWa/z1pUr/Kd/+Af6/SFb27sMB2NqtTpa6bJEg3Nk1vHw0SP++V/+hUajzuWLF9GxkQSO6her6V6caHz4gS0AuvKHWeImBcoULnetjTdD5Zhah+XlCxwdHZH0j7Cjcbi8CHiUGjOlnPQnVOULZx9OJXjeA56iPKCVwmmDYZ8sm2DzFG1yD9YVeWYxWjHX6jA/v0BkIknYdc6nvx7/rvL/E8BGeGmLtVp6VXHzOBRKGZqtNvMLSxzuvyDPUuLICN+Hj83RSpPnGYP+IUfdfZZrNTA1JE0YPG12eeOTn9IvsoVzxRiDw2JthrISIJznOQf7LznqHpJmoLxlS/a0VAumAjhc1cUGlOtDPlOmRqPVYW3jEhcvXpS4LRNiIH32XeXPvx//9sxuUkr5IFFot1t8/NGHbG5u0Kg3SNMEa3Pq9ToL8/PcuHGDa9cuY7QMOmyg4Cs/n1Ye4NVcauWLye3vH3Dv/n0ePHzAYDCgVpfaLSEjIRR0c8cGe1yMBHBjIsm+GU8mhZl8Z1dcNs+ePyfNUkAOn3MhMvt7+4nbjKCTUwyHExO8VtSbDYndQOI6LEpq7xiD0wanNGhDXK8Tx3XSLGc0mWCBqFYjimO0zxBJJgmj0QhwbG5s8Lvf/oZPf/dbLmyslwqdwmfABI6O0M+zWcq01sJTENg0Mx88qhTOCZfMYDgs4jdyhEspd/599WfnKj9Lqnj42ToYJwn9waAIFLNWQFmIZyrLHZxD888mxGCFmBs3ewlQiyPef+82H3/8EfVaLAHrWgnI9HEmtVqNNEloNJr88U9/5IsvvmBvb6/o/9RNf/YWLAzhMJiuiAMamwPu/2/vXJvkOK4z/ZzMqr7O9NwHA4DEkBRIkKAuK9J2OLyO/Q3+Df6fG7ER/uYIX2Ity5LslSxaEiGTIAHMrburMnM/nMy69HTPDDANELTrjWigp7u6KjMrK8+b52oZjSbs7h2xNdnBGC1F711Qs3EifEClrUqj1IxQWXJdHzNzNr9zruTi4pyL81NCLAoXYvRLIjRZ1mMy2WGysa2mEG+QkCFkCBbBYMgwQU0l5tLLtP6OTyNBikpzFlAFhY+j0uv3mUy26feHlS+DRHNR8NrXEAIX0zOefvMVPqY610Jny7QrTTT1MMsI2neLEDzOuyhbU3I3T5ZBnoP3U4r5KUbmiMwxMsOYKdZMMTLFyhRrLrAmvl94GZlhZI6ROd5pVJQrL8CCsTqGocr92h7Fm2s4llJ3nfbOO8RkvPfeezx+/CnnFzMunjzB+8BwOOT9Dz7g008/xaA1C5LjUR0yl/Zq679xaocXphdTfvOb3/CLf/kXnj1/js0znPfYLI/1E9SbOkCMTY+dXrE4NjcgeZ7z/Nm3DAcDCJ6L6ZTffvEFv/rVr7izt8ve3m4Vgph8OTo/jrcPDaWy+gGEoLZtIWqp4l4veErnsTZTR9KgpDYlvhMjCJ55WTIrSnwQghgtpV2WXFyckYlhOBiQZRlbmxvciWaUP/38c+4eHWKNJqAzmbk8BVXtUgvca2CMAZspIY7aAB/UsbKX5/T7fZwr1bG5sYAn343aahMLXaXBQtshjachz3NG4w36gwEQVeo+NDQEYe2PedIYOu8oXSxbTq1aFtR8tbGxwZ/96Z/w+9/9gV//+t95cXJK8C76Vmk4X38wqHJ2/O3f/i2TjQ0GvZ+wNdmk11seqbJ2NBQZ7Q+SpsEQ0FDWFASneTpyEAemx/bWPuXhXcqzr5heeKbFVMfC1LlbooJZ3zXNKota7ERvKtNYLULKsuD05ITT0xMNkTVKjtMaaoyaUyaTbUbjCQSLhKhpWybPq343BPmlcSgRCjVLCvhQmwkDTjeCvZyNzU3GG5u44lQjVNBaLM4HjUIygfl8ytNv/pMHx8f0+8N4fQvBx93/20UmbgoR8HicLxETMDYgxpPF/FHOOUKYUUeRpQpj6v6uad8tSUsRz0qqhhPid9b26OVgrQeKKNMtAU34hvRiwTbF7Xw4YkNTlcXNjTE/fPwp//Hb33Py4pSL6ZTN4YBHP3iPRw+PMUBZzujnmZKPslSLmY2FYm4JwWgG+OjIIkBRliDCyekZ//7Ff/DF7/4AJmM4GHByesZoY5NyNgcBK+pVH7xvLKiQHN2qZ6NBFLQmRkF/MMTmFu88RTHjq6ff8NsvvuDRww8YDgdsbm5irY3alHSapI25ru/pQUtqTdEMggv8uhIWktTtUh0Pa350YsVB3d8LJkQv9tCoe7BUtkSVfCU024vKagrW0uPH/+q6C2vpEkS7srYteK+sPTFkoRJORgK5tfgQKHxB8I7Sx518LJDmC4cRYTQcElCbsQCb4xESAq4s2N/b5qOHD/n0k0c8+vBD9vdjki9RQhAtkwgaxmpNs6Lp6t1VdQ8IeOeYl47glRz385yyKPCupAie2rznmyPdHvp40cvJwtKOWQWS956yLGKOC83hk1wMfNxhq8q1ziGSpgIkchOimT4+H9EEoKnGEyEKsYKqJ4t+UjblUmg0OM1GzTsCd+8c8r/+8n/yzdOnnJ28AKsz2IXA2fkZ49FIfXBKx9dPn/J3f//3bGyM+cmPf0zeWnxXrVhJQBPvQEagp4XVJJCqdvq4b1ek9aapVbt8N1uUOCjxNRKjEXxQR3zAO0N/MGF754jnX/0B52FaRMf1WLRNTStpwGMEVjDVnJL4nEokywHi/NB1KFAg3lMUZ5yfPeP8/BTvPZnNMSbT/Bs+J7N98t4m/eEW9EYQNRrV8x5958zqqdzSyKQJUwdci5pB03xKpMhm9IdjhuNNzk6/ZT4r1WfFxvT1zummwgdOT0+rUhxJAxS8Qx0uTWO5bzwIaR7GjbPWbUliW8cxYGKCeUtz5qbWt+9vw7xUEa7FObDwZ9M3SlcvAgaT5WT9PiHMNM276ObFxSy0alqLdc8krdN6XyUG+F/W8KheqR1GXSscylLNsfP5XPNYETcCCz29OeFYMhl8UKWJET2NL+D43jE/+eRHfPWHJzCd8/H77/HTxx+R+znGBIwtMUGdj6wkBiWtndqrig99ZgUc2CDgHHmWM3Ml//fnP+dnv/gV53OHJ8cVYPMRRRFi+wOUJZaabDTnWZMJ6sVU8DhfUpQl1lpc0AfXZD28GL743e/5h3/8R+4eHVWajaLQfCXLasYsJgNL5MRYwWQQUK/6zGbMZjPyLEOqnbiq0WZlSS/PmBWa5S+N6jpjA2xmyHNLUVzgyhmDbBCJmkYoEDxhXuCKgixmS3MuYK1Kzpj8rzITNIa5GvPqvWgpbWM0gkMLnKl2wTkXI6td9L8IlS0+CdGXSY0vosrdEITMZOqfF0lna0ELMSIlRjnk0qB3UeuQnDs1FwuxLdoOExzb2xPej5WSP/7oQ3a2t1XNb5M3uY5Cc3eQyMaqvnjvKYpSo0NCJEregSvoZf3YH9U42Eoux2VyYcFvPYNS34tau0HUbkRCFImRMWmhoTq2dDHhVoz4SefzENub1U6AXjNU4ksIunRnYhErlPMC0+vhQ4kLupvOWiPUbJy+V/mh0UY+Rsw9fP+YP/vsf/A3Z6c8efIlZRC8sYxGo2rh7A16qqn83Rf80z//jMn2hA8f/iDWSlLzWqqbpH2tw36tDbouOI/zPeZFn8yoKApB3RLFZhSl3mGMA9FoCgnqiNd4cKkt37baOqjwjCLXEJ3i9ViTDUACo81DDu8/YuYs356WBFfQyw0iJT4UuFDHdouxeJEYPhqgDBpuG1TDJiaHUFCWBVkmiC0opic8e/4lp2dfE0KheU2MIXgVPGUhbIw3GU+O6I/3QaIgakbeWrg8k5fcygZC3EGnyZSZekMlNiXHsWT9MRtbB3zz/Bmz6RRDqdujzBBwMUeEMJ97/u1ff82PfvwZZBqtEnxAWmGetRYt7T9U/gUN1zSqxStCQKxGfrhgMNmQIDllSMTaIeI0VLihxaqjRBYH4IrNolEHdWNBxFIGQ+kNpQeJEaDG5ipeibXOWmQmEThtgco8G2l6/DdpotL2RdL/6mzqNLYZ2xsCln5vAORkkjEvlBBJVkuf22s4Qqicpg2wMbA8fO99nn76Q87PTvjRRw852BphpECTziRP54B6s6bFepl+7WXbYqAMhGKODHK1zeJ58uQP/OJXv+LL//yKMojO8hDNGr5OGKT1FkuCGJrZQZq3pyYhqXS0xMRmtsURnQ+cnJ7x299+wc9//nM+//xzhsNhZVpZjFi5KpW7Dx4f4sIscSfnLHme6S48BLVL93uN2Oe6bFJS2CxmfXtVlK6gcDOGwz5GdBdb4glOBTFiGfb7DPoDyjJgjarw03K5zAFykWwkOO+0lk9mkFhzxHlHlmc4pyfq93OyLNPkWdFXJv3/MhFBgpbArsoyL4E6kLq2PNAvqp2QsYYs+vbovdWIgMnmBvfv3ePBg3e5f+8uhwf77O3tMB6NyKqIFx2BEMOmRFap8aVqT5Ooqme6UBRzCJ5+L2fY71G2OpRUT9fsohbgpdaiVSPW3JQHIc8yenle5d8wQiUYQ7zJ3uu5jIDNs+p+ly5grRZ2HPY0bXdZlhXJwwj9Xk5mDS6owMiWNrn57IbY3VBVtR4PBzz++COeffM1wc356tkLnMnI8ozSlVpI0mqxyrPzc/7t179mZ2+HydYGO9vbDAcDjNUlWZV0iXil3V/ABY/YjLw/ife1hDDHi49Ow33wFuch+BKxBZAj1dq4bAe84k61pmutPTL9CZPd+2y8OKd/MmM2O8EFp/4SWY4VTwhqShLpI/TIsiF53keCrpFga4FlemgehhIomBcnzOen+DCPWjj1y0Ay8t6IvNdjvLnHcLyPyTeAbKFfix25KdoLWS2W04qn7Rbbpz/eZrixy3ReUJbneOMw4pEMTMjxIQcs02nBdDpn0M+1y1JvMdtPTj3/Q1xUxRpdXG2mWiLbw/tYcVX6eHICtdknSYnQqGNypX9q6lqrMfFhSowfkGrcR8zntt4yNx7ZVVb85R9LbXKLfycXedV6GSTrkfdHGJtXif503TVYqfWwCbciHMr0NOZdJ5NmiL1zdMCPfvyY2fSMo7s7BAp8oRNVs90ZjOjkDN4SxFelhG8D4w1SqoCWucULTJ3jl7/4J37/H7+mmJ9hTJ+ArwdSIDkLhZhpLu5DWRysJpKN3xitQglU6rhETObzOU+efMnPfvYzHj9+3CIcSUjUY7l6tm1ubPDhww8rzUgIAVe6WKfAQYAH777Lxnhc5R4xjd1wPcte6em+hDzLuXNwyE9/+tOK8JSFCgZrbGVGeOed+6rFCO1U9dUANRh+tWlufC3A1mTC408+YTQaVUncSq81RpKz7+HODgcHB+1U3XAliVuGg/19/uTzz2P8+XKcnZ7y9OnTqq1pbKsqxASGozF7e3uMxiMmkwnj8Yh+L2c0GrG7s83u9jbj8YheL9MKpSlPjNRGkqtIzyIS2Ugl7UHHe2dnh0ePHrG1u0eMG7jZCVcgqY1b107/xy/yLOPw4JDtrUlFLqxZIOvUGpFULiB9d//+fX7yk58wvZhijKEsy5ZT+Xg85vj4mMnm5kv3xqQ049Zy9+5dPvvsM0ajEX/85hnB5oixzOczvHcMB31CNA9ZYxgO+sxnM7yLUUykDMaq2dNcB0l1LhiTM5ns4t0cV+wiUiJhrouyCFk+YD4P9PubiGi2UBFLiOGEa3lSjaU33GDv8B5ehOn0FKFAjNPNlXgISQuUEUKPLBsx2d4n6w91Ma+leVzvozY4WIQeg8EWu7v3GI92onZLs1yGkJHZAePRFts7+/R6w3X1ioWZtPBe0NwfAWOGbG7uc3TkGI0mFPNzoEBEk3/50Kf0SgY2N7cxRjMDSzSlJBnQNIAkrUQyFlhr2NjY4/69RwRfEDAqfL3gnCCmR683YntrH2ty3eySyGrDn+a6oVn4PhkLTSN3TpbnbG5uEQ4f4Le2EG4XjNE2rbDg05WIR0beGzKZ7GIkq8ycVkJlCm7doXALz8VAiaeM2oIeZeHpWVWpffP0ay4uToAZzp9SZSeLajzNfqaEQ7OWrUHD4URjrLOMaTEn7w+YOcf//j9/wz/80y94cT5DzAAvvTgpE4NVwiHiEJwy02AvMdyWuj9u14zJNMTKe1qJogBTTOmL56OHP+Cv//qv2dvbq3bei7vvZZ/5KIguyoJnZ6ecnJxWi7CgphXvSgQV8FuTLTbGI13co+1Oteq6uq9NwxHg+dkZT/74x1rwJ01RUAGYGcN4PObwYJfgGwQY3pUAAB2MSURBVFqNukRJMme3sKjpmJclz58/59mLF+Q9ZdFlWZLlOWm/MbQ5k9GIrUld+THV0Wk66JprBuDZyRlPvn565SycXkx5cfKiuka9idBdeADNOTCZkOc5w+GAjY0R/X6vctjSFT5qJUKdnzP5QiXprULt+pvW1JY1H+fT01NevHjBxWyOb+qxXxEpq2oTTT8diYSrn/fY29tjOOhRFi6S0HiM1OeptB6JdAR4/uwFz58/pyjLllksvbfWsjEeM5lMGPSza0dnkXQmom+M4fz8nOfPn/PiYoZDw/dVY+SwNmq7vMOVJXlmmUw2mWxu0svyir5Vvi8S0P2bmiCCmzO9eE4xO8VIgcTsjsk/zJge06lj7/A+mD7QA9Qsq3PhVrcqogQ/pywumM3OcW4G6BonpFTnEomYxXuLMX36/Q36/U2w/ermePRZlXTeMKcszilmZxTFuTrfJkHkVSNjTY88H5DnQyQfgM1hHfOwin2AJNKqlbpaPGL2S1dQFBcU8wucm5HyURij96v0gvOQ5wM2N7dRh6MM1SjVz18StpVjbDSjlqHAz57hp9+q34cIYjJC0Eq4iDpW5r0BeW+I2B5gYsKsJAfrvt1kZHTZcZU2NEV8uqARQ+X0gmwNGbx1nsRoUtQ8kjIv11REtR15b8hotKUO8t5ibC+mVZfoWxXPuQ7CEQJY6eGcV9s3MD0/5ezsGU+//j1fPvkNZXmBNaXa8b3uyo1kqrYLLtrLbomgYX4Yo/k1spwyGP71/33BP//y13zz4oJgBgT6kVTEyS/RMxcH4qI6MWaeW9rvCFEhEUIM9Y1CTZJ6vJyxNerx+U9/yl/91V+xtbXVchy9jnCkz5wQBYa2qIzOgwbVtCRdTPC1Ax0NQZDu8KJwf1U41FbpfSC39Y5MSPkdQmXHbxa8A3BliE6RtL+g/rtF7NAEVc5HjQ5QuJLMZtUxloBtCj6Riqw1ScZ1hKOZ7eAqLBJQVvztvLbdWiFLAhZ1ngzBVyHlptoxoRorQswdkxa9q5HmSdrBNwW0Nvi2e526f01CuHgLKwIRVKsBer81R0nVlEaSpjrRHlKrlYOn0gQI9bxNlpVkQ7+p6Gpm+m1qF6vkfQGKmDHbVoJFCXvSziTNhrWGlMfCmrphmvo77ZBB/U9i+miT0gDEsNKgs9YXHtMbgtdS80FMNR7rIByaojsm4aoCnBuzPKXwTvkwvEE11WpmqIRtfCWlm+BVmDfPWWWaJbLSZNpJRdFiwjKzykT4Ev1q1DypCUecDdXEguAdYoWU0ErT3jbbG3vng45B9bw1U7zHtTjOT43IpBL2HocNpcoPH0Mwo2O5OomkPqcHQM+tGnLN/9TUo990Pofgow9c7cir3XaIT2vHLSdReuAi2ajHrXG/oTE5sugXYzQcO0RtX4NkriFKJcHHRUYZfH+g1QHFOC4uTrg4f4aRgn7f4ssCvNOshzFhze0VvkAU/rOiYLS5ydmLAk/O0dEWT59tcz6bMS8cLpQN4aA3LVSDGqpP0/9NAdi6HERnxbgIoqulL9WBsZdZju4c8fjxYwaDQSu1+dLmL/lcPYr1JqekTVkkG/XOUrUXYk21nqVFvEk81qWrDUE9m3sNslGdOl48OT6mhTt1rfIsWdWOOJap+T4QM0aqB4iB6n26bvIJT0SuaVZokreb4qZDtIozpVmUGchMVEyG+lgli3EnHHzlZBPSj68YnkUkYZoEapNUNQXrWjbMC1hGOCoyFtferGEzqeZlXIehLVi991GVHeI41d+l3yay8TJY9HNZnBMG0UqiSdgT74VTFqJ+KMkDKcT6K1pxN+mNk4rdEW9nEN3RY6NgTwIvCmVjVQ6FDOdS5A43v/E36TeC1qkVBKt5NEKqNNycZCr8EBNNJkp8KmIptJ5zHbGMFD6qQjvm+CDdoCYBaPy/pp41I/bakUmNI4LFJo3qgg+MTqhUDwQlBR6dmOm+RnNTc6NWP0tJTghIv636q/raWIjTxI+/rj9u0vjUl5eBqAuBpF9bMDktVr8OVBMggMS5XDnVhvrexwRjEBbGai2EQxOyhCRsk3AMKvwGgx5bWxN2d3b42p3jy5LMQCklQUoyEytXpof3ltCFPZDnnrI4VWdGHxgPJ9w72uf583P++PUJPjgkhhBVZKIhNdvcdjV8rEpjRG15watvhQ8hOglO+OAHH/Dhhx/S6/Ua9rp2ltFFonE5QRhVKQSorRICVZQKPmW6DI3zpIm9XnGj0Rx1WyvtTPShSILBe9X8ZL2s8VvqlUvZwtXXQsfXmDpqKJP2NK5O1zCbLAqWG/lxNJnBykPi/G6yonRf0zFx/U0FRr3T1OLGqKmpWutDwJdaMtwaqz4oNtrNU7zgNc1O5oFlhKqaX+taeKT1X+t9tZ4GYrlzjUKSlPaT9jRcvO0hJOKoZ0th1a25snCOm8zqdO+TE+8ybUeIV0x+JQL0rBCSJi6ksVTtnLUpN0rdt9b4SOOPVBAtuFooCySfN108w80687KQ5J+RouEgVfGsNALE59erZLX2slYjoTUdK7VT1Pj4em0jZiNtPUtVFM0aukV72OtPG3+Zhn+Qr8lkJehFgCxq21XDEXw0iaecJGHh7ELc9DW3q0L0Mr3cP1n4X1vT+jreAV5uNyiNFwSvYbnJb2/ZvXsVmKXrRuwvJpKOmjB570Fs1NosX9hvSTh0cjXzAahd28VkI5atyRZHd464OPuWkxdn+LLAl3OEAowlBEdwAd90cnxFaFa1QGYzzs5PGYwnFF548ewrJuMNjg52ef78gvNpHCQJVdQxSHQWfImcIEK0yZpKnR1iJcrxaMzxgwc8/uQTdnd3W/k3lqm9l+3E02eWdgGpprIsM6qeq6IFGvM+ON8ITYlbljWQj4aMxTtPnlmc9/UOtGo/9QKWFvPYHh/VdWbZxGxO9EqtpyajQKgigpK6LwBW1HenauMraDaqnd81vdeQ19ULqIGGvTtGaaRCgkHLRAuBPM/J8gzI2otzQJ8JHDa72Y4nEa12xEpjPG50lqvRkPtLz1sNXUPTpn2JmXybQmfxRAFs5ejRONkSopHOHeBGZsJmuLSLyc/SeKUwThdDtX3SyJlaRvqQCH/dCFMJXGpVuo3URWhpBVTCZZc22WksohV6rRvSdIFmm9WWftmkUSkkFj9rtKrmfgtkX6L6PsW3NjuxaBdaG6lqete1hW8TVcK69Cw2ZHq1SSYn7XzERDNQw1qzikOk06VrN+lCWHKwLLxrju/id9fj8lOYomp8CLqhXoNNzou0NyvNDQASyVmoCLNpRNQtjkclr27XpFjAJS4AuqOxuMLpomst/fEmBwdHPP36CbPzFxgzrzIy5pk+lS4uZbcdosxqfPV0ds7WZIPSecR7rMkYjwc8uH/EixczfvPFVwTqxFRVVEIwrZoRV5HOZEJxuqWDYPCRLQ96PXZ3tnnv+Jjj4/eq3xRFUdXQSOrvRUe/ZRlIUxN8dGjLbFNAtdM/tSNf6q7oQ/QyLHo1UkRG5QCZPveh0u4k4eHj3JjN5lq0Lz7EuvO9vi0pfX5SGyQWL80Ohvq6UFcoXjzPDXp2o1W/WnJXHLvobOxdJEVxx9zLs7ir9HFh0PfeOfULMAaxtgojvgmau/amg2QqLrceLdfV56hmVyBGbujNTqa+NA8DoU0+gBRDO58XGJFaK5ZYToM3Vy25QZeaxD6FTTcjxbREgUQtpc4nV0aCFCeraRGgmBAOrYmje65EqlP9ndrUmDh/q6nxmahSHDS6uZ4nNPY9nTvUeXCEmsMvmxZJQSqS8sbUYjX95QMEr7b5FoeMgrqSdfUSRa2uWlfP0oRY7snTIsfS/iz134pul72v/Z+MVc21NP3Mlly/FR4br1Hdy9Ae1xYPq8Y3fSqNo14NWpCxvoCGaa/Ba0u0htDlz2siHRrPevA1kQ+RhDfDi4HbOY1CHLLmGdKMxoM4CHMoz3n+7RN+/rO/49m3X5LbEvwUax1GSi3Cs4Y0soYSETVpYDJ8sLiQEeiDjCl8nz9+dc4v/+33PPnqBb3RFmfTQj3mM4vJYnS0C1hfPzWtiplpYoVQPWF5Zsms5fz0lDzL2d7a4tNPHvOXf/HnfPLoYXQuSzH7tef9yyLtNaT5BL3Mj5dvBF6pHc2FctkpmxskESqb/pItwkteecm2Y21Y1x7z8o5ntVkjNJ6ZxdG8OVG4ek6tr1/Ns0nzj+twlWpk2XE3vccvMRdWmzBpTavK6rGygSuZJqooSctx/P+qMZJ0xvR0V4GZV3fmxgiXif2y9iwyouQcGFvnq2/SOm3bPwuXZm7jTXNur6NfzXvQFtiLXbvqb8M196YJaf+2ziua/l3dr8Vv1rt8Xe5A7VR7u+c+0LtS/yKNI2sKstCshR/dujz9pcEL0NLRSQZ2wGi8w/7Bfc7PTnDFC6xkmlUw1gZ4KVPGyuYYJDgMqn5XVyl9XJwvsWRsjPoc7u1wdl5ycn5BLx/EiItozpM62Umbx9bd037pEcnxbz4vGQ6HBOfY29nho4cPeef+/dqTnaan/qv1c+GWvsqP14ab8PLmLnQ9ETKvk2wkrEc4X/I8b21zWgcuHPRqTbixBudWuMUMbLGvGxz3GrDaWXvF3yvv18LNbGxfGzWq4+HS7nvrPM0T1C9ZsWt/aYTmea8R9q3NdiIbNeFImSe157WTZiVXZNVwVXoRbh5XdB1enri09RGJ4jUKCV7zaFzmy82bWlfTbbcxHfc6F63L567z/N6WcDhCpAjtGV8XzWi24RLZSO8bTVxDptHWNRsXiSw4vs/zMUdHD3j27VO+fTpDTIxpRtQmH9YQxoMnpEx9VIGG1CFqBaN+nzv725ydz3j2/HcMBwOCg3kslRkW1pKaOSdNR723D6KPoHeO4DxiLcPhkPeOj3nv+AEbG+Nb9qeJJZPnViv/q2OV7Hzpq7zUFvlGJ3uL8DL3a+HYtXdF6m38LU9zo8+WYdk68VbdsnXerxXqnKXnawr0NWVcXjj3pXZc95sWUQlt7Q/1ith8tzi7Eh1p92ld/VqNRcHYHN/Ln2VRXnDLtTSlVVj8rvnSzy7Fi12rbXrpA6m9/G433trycuFaofVt832TfK669BrDYhdQXdCqFM9GbG4dsrd/j4vzFxSzZwQsEhOthDWYVAIWCfXErpmeQygxWPp5n+3JgIO9CX/4UusyBB80nCgaNSU0B7XVmcbfSe2oyKylmM/54PiYjz9+xOHBwUsHOF3Vs/U8rOtb4ddzprevX+vB619YXx7f8Ri9bbeohfXMw/ae//I3l0Vy89ph4bdrIIiAmn2XCYulB9PUarR/0/xV2tWHS5/Wxyay4UlZMeuj1tGvhb+l/TYlB5NWfxZf66j+K6TEkZfvs9CMeVzQea6eciuH6Bry2Drf7aWPJsJMKSQWr7cslnPFfW30Z/2EY1G15oFgtPhPNmBv/y6nL57y9dfn4DNEHDEDO7d+6EPUqjQfYkmEo4jts+S5sLPV5537+/z2D19pMqp8WEVQXMXQQuyjmlN05yiiDpS9/oBPPv6Y94+PGfZ7lxJPvW6sRevwhvF2tXmdV7t+Ll8+Qq7465Z4gwP5dt3T9eH6+3WV+nz1+nb5d+tUw9cm3Xac8cL5K04ijd/F41L56WqHfnV95kVFu7SuuaZ+NdfoJRqmS8L90o/aR92uKc2MwIuEo/nZQv+X8c9XxWvZ46Tw1vZ8kUv9afcrycj6+BrrJRwtFXmtbtO/NHvn1tY+ewd3OTl9ivNTAmWjgNptLy9ohtDosBoZeyrTDVqsiADjcY/33zviyVdfcTGbY6SHJrKJJGLVw7Ewl1LWweA9Hz58yONPPo51JOrqoG8CN7nSmvYWly/4iid9422+EdZxtduQjbXvBd8o3s57envc5H7pgc2VdlGLsewcaSFZsULfCkvOKU2B20Sj2nFotiuQkmDV51rdwLTq18kGFoXuGrFSC7DIRJbvIIWridPNL52yky5ec/EXV/T/ik3utVilVLstJKWzW9b2Ntm46nLN5309hENg0Su2so0lghTUKdP0huztH/Ls2z1Kd8ZsdqFZR9cyF5PtKr2SSi8WKsKhcT5akfJgOOFgf4u5+5Z5cHhfEILRLIErq3TGXgYlG74syWNp688/+4x79+6R2Zjd780pN9ptW4HXtsjfQoLcpL3fRwF1U3wn9+sN4Lp+fV/v6Y3uV6VIkIVO+mVHt4X5dVaPl8LC9eOGsGkQabcm0oNFD9DFA0PNOVaPx4IJ4Y3c8IXBW9xqLzagMR7LII1/L3/evKxwI1G6kiBJ/f269qhrG+tFIrX8QnXTl02cmrDcknAEqkxjUhOOWIqK5kCqZUXNHYOtHQ7v3uVi9i2z4jlIieAbvhOv2hrNHlory6KGQ7RIkWYXLWJp3TlIwYPjIy5Kx38+PcX5EmO0aqOEJfN14WoppfRwvMHjTx/z8OFDRsNRnXnzNZpT3pzu5IZ4iQXlsnX45r/h5pd5JazveV/cP9bf/FfCq4xXU7F/W6xvNNd0v5qT+0pmFRfhVsz9Vce/AhZIT/KqgJCKOVQH1vvYOlNwqw+rFDQrL9zA6+jbddRv8etVJvJr23NNo2+ymMmSY6T5QSKia5IXUtPK250m1sC54jptNK/ZfF9zgTVKxFqzUNvs4qWTdiMlAMKyvXvEcGMPsZtgBpEsSOM0DTKzavDiMVrePoVxNW+ehWCRkCHBxGyBHmtKvDtjev6U+3d32Nsek5uACZ4cLRkeqvPGWydSaTYEzTqYWUNmLTs7W/zFn/85k43N6nOCUBaLnsvrGd+rXqvta29CnfmqJ7rt623EVe1adr+u+833C9+/nrzO+9U8fsWcfV1ToMVnmjqHNsFYvPjSzdYSBcGyJ/H13/trBOnbtBu7EaFp/H/lkvYy696i7HyV1/pxOw1Hy7bXbuCl8B8TqxaKELwhH+xw791POZtavvr9LzESsJmnKGZ4X9LLVRvinFMThclwMUVyfaW66FoQj4SYBz8oMxN62sWQfDq0JLOXgkF/Az89Z37+Ncf393n+zRlP/niGhAyfwUzm5L0eZ+dTQBiNx5SuZD6bYgTynoUQ6PUsP/3xj3j/+AHj4ZBU9Fbrf6zDC1pH8/L4LsfVfPztIB3tBe4qpexrbshrP9OypbyN+n59/0Q0vOo8vPq33w3WdL9kxfulQkLau9/XOCDpSWtmwQ0LjV3a9FUsQpa+Xf7Z2vt11bohl6+3amwl9Xr5uW70XNYDe/Ux135xk6dlRZ+X8tc1bcZe4hTLZ1B7cNboNLrqYQ0gDi2VHOs9kGEkZzA+YGv3gtNnT5mdXKAaCy3844P6X7ST8LTZnWoefP11dBYVJOb1SBqVADEPhxGPiAM/JbOCp8eoN+DO3jYXJ4GzM6GUklIchkDe7wGG0jnKUiu2WiPgA73c8u69e5FsDFq+yo1GrQk3u/Nv1yJ+Nb7PgvZqfBdU6e3C96tfa7xfNxIut2rCK2Nxhb7xJa848Lu7zy8lCa/56pa9uNXPX+bHr+vYdeJqtdgbcmtsq4Ik5rju9frs7+2xt39AluVVZUNjM3yIBb5iKnDnXXUuiY6fEs0lhBwJPQI2em2EaArRZF2Vkki01osYS1Fqxdgss4gJHB7usru7QZY5gnfgLWUBmeljJWc+dfgSrOlhJCMEYWuyww9/+COOj4+1dkcqzvL9Wm07dOjQoUOH1443RjikkSikLp5j2NjY5GD/gK3tHYzJCUEwRks3h+gwEYKvq61GTYeaTyziMyTk4HOg6Xvh26RDUnCs+oo450hZ8EQ8m1tD9g8mjDdy9c0wPXwpuFIo5xCcwUquZMMLg/6Id9895pNPHrO7u1sVegphMcVthw4dOnTo0OH1ZRptQKp/YhRLNHMEEfI8Z3tnj9nZO0ynF8zmc62SKTGfBhBazqPN88aqjOl8+MrEor8V1KzSznzvfbIrebyfYyTDmILdnQGnB0Om3lHOLN4HQulxztPLemSZxfkCI4bDg0M+fvSI+/fvk5uMEEqsaLVaza9j3hid69ChQ4cOHd52vDmRWBVFI5bRjkRADKPRhL39u4zG2wTJcD4ShUgoEKIvRyNyRdUWSIiRKKluS/TjCOKUfKRIFm0EwQcImorcCHg3x5oSV5yyObbcORyzudlDQiAzFisWi6Gf95FgcIVjNBzx/nvv89FHHzEeDAloafFU0jngavNKhw4dOnTo0GFNhOMGgrVKXh7AiMVIrF2CgWzAeLzH9vYRo9EOPmT4YAjxGEnemM0qho0wWEGzfaZsoqmYjhbUcaRso6mpRoTMaCVZi8dQgL+gn5fs7fTY2eqTWQdhjrWOzAYIBWUxxZrA0Z1DPvrwIXfv3AHAe1dXgjVWyVSHDh06dOjQocLtTSrXkI0Qi6lJTJMaYu2R2rsyABm2t8nB4QMuZjOefFlQFiXGaJ0VPYdPtpPGJWszi5aBdjGjaPq6TmhD8tdANSPBeYw1iBGcm5HbDPwZ/cxyuD/m6xPHH778BoLDGsN8PiN42Nvf5eNHH/LB+8dkVgjBY01MiZ76JJ3naIcOHTp06NDEG9mKh+ToGcNdqzygQVNk4AyYIVs7R+zvv0Oeb+DJCMESgqH0Aed9NK8kPw0H4kBKUo6NlK20elUaj0g2QipHI/jCgfNkAqGc08/AF2cEd87B3ogH7+6RZQWEC4yZE9wFg75w/+4BHz58j8PDHbx3zOdTpRkiFPMiuo4IOPBl50DaoUOHDh06wBsgHCKmUTFVsDarkpIYsZocy/SAAdgROztHHN55F2OHFE7A9DC2Fw0nAR8CHo8Th6PEUehL5rGQGuBF66GkcJjg61IvHvCGzOZIMPjSkxnBFzMsDhsKJEyZbFreubcF4Zxi/pxe7tjfG/PZZ5/y/nv3EfR3g34v9kzI8x6YmPvDxMyqHTp06NChQ4c3n4fjcuptU5sjZMBgtM2dowds7xxizICiBI9FbE9roBghxBBUTIgvry9B05iTIcFisFGfUb+0GE2GkMfjDEZs9O3Q1OdGCjbHluPjQ/Z2BvRyx6APH3/8AQ/ePWI4zGNwbcBUphPhO6nW1qFDhw4dOnwP8EbCYm+EFPGa9djZPWR//x6np884O5vjgyezWXQCXZLJNP6vBCL6aERyI433DddVfYX6fbOUkXcBTMHmeMDdo31OXpxw/94dHn/yiMODfXJrW0yt89jo0KFDhw4drsbbQziIBd7EYPojdvbu8O2zrynKAu/ONAo2ONq5OJoF3jzGZ5iQNeq71JncQ0U4mt8k4uEb50k8pCQzGXeP9nnx/AWfPn7Eew/eYXNjhBWoK7o0tDZvU9GgDh06dOjQ4S3C20E4krwWCN4hRphMdrhz9A7GGGbT0+if0XbCDNREIYjH+Bzjk4/Issp3zWoCTZ2Er4+TwMDkeJNROkPYytjZus8HH3zM9mQfK30tDieGSwwjXbZhZenQoUOHDh06gIQQvvt9eYMThDBHrIcw4/zsGScvnlHMLhqVDutwWk197mMmUo/4HON7Uc6nxF+eNjFosIGQDCNtTYkYC2JxDooSdnfuYOyA0XgLYzP13DB1MrK6lByN8NiFy3Xo0KFDhw7/jfFWEI4URKJBHSWEQolCKHBFASFgTQYSK8AmKS5N0qGEQ3xOqlCbwmVpVZRtOqs2PDGahMMDPuA9eGfIBht4Z/DeYDPBx0SnNuqH6vDbhOgI25GNDh06dOjQAXjTJpUV1MaHgAslxlgET+kcWWZAetg8RyV3BsFGkpAIR9R1pJLzJq8+RwJBSrQsfZtwhKqQfONcpLwdodJcGAST9fBzj8kMZRlPHXmKVOaT2nE19qiR/KtjHR06dOjQocObJRzJx2EBxgqaaFwTfGlhWCUD3nvwovk6xLZ+V4v5qK1o+E+ERFLQIm3NWJZKw7FACPTnQbOhEjSnhvOY3ICH3iA6lIp+dXXHLvuNdOjQoUOHDv9d8VaYVABS/tEQo0ZEKuZAO2/HEkiDazRdKYC2qaP+wWKSdFn8Nl23DnO5wil0UcPRPluHDh06dOjw3x1vDeHo0KFDhw4dOvzXRZcas0OHDh06dOjw2tERjg4dOnTo0KHDa0dHODp06NChQ4cOrx3/H+2W21MhfYt2AAAAAElFTkSuQmCC;" parent="1" vertex="1">
          <mxGeometry x="13249.975" y="1999.75" width="93.38" height="41.5" as="geometry" />
        </mxCell>
        <mxCell id="VN2mlmmHDfHBYRUEVJJL-13" value="" style="shape=image;verticalLabelPosition=bottom;labelBackgroundColor=default;verticalAlign=top;aspect=fixed;imageAspect=0;image=https://5.imimg.com/data5/CO/RG/WK/GLADMIN-14526645/selection-036.png;" parent="1" vertex="1">
          <mxGeometry x="13244.955000000002" y="1930" width="103.42" height="50" as="geometry" />
        </mxCell>
        <mxCell id="VN2mlmmHDfHBYRUEVJJL-17" value="" style="shape=image;verticalLabelPosition=bottom;labelBackgroundColor=default;verticalAlign=top;aspect=fixed;imageAspect=0;image=https://images.velog.io/images/hanblueblue/post/555fec4c-4e3c-4b31-8b31-3284fa34b471/webflux.jpg;" parent="1" vertex="1">
          <mxGeometry x="13757.495" y="1916.56" width="175" height="98.44" as="geometry" />
        </mxCell>
        <mxCell id="VN2mlmmHDfHBYRUEVJJL-21" style="edgeStyle=orthogonalEdgeStyle;rounded=0;orthogonalLoop=1;jettySize=auto;html=1;entryX=0;entryY=0.25;entryDx=0;entryDy=0;entryPerimeter=0;strokeColor=#0000FF;" parent="1" target="BC6KzmhpLjGoGfEVz04S-1" edge="1">
          <mxGeometry relative="1" as="geometry">
            <mxPoint x="13020" y="2158" as="sourcePoint" />
            <Array as="points">
              <mxPoint x="13020" y="2158" />
              <mxPoint x="13125" y="2158" />
            </Array>
          </mxGeometry>
        </mxCell>
        <mxCell id="VN2mlmmHDfHBYRUEVJJL-25" style="edgeStyle=orthogonalEdgeStyle;rounded=0;orthogonalLoop=1;jettySize=auto;html=1;entryX=0;entryY=0.5;entryDx=0;entryDy=0;entryPerimeter=0;fontColor=#FF0000;strokeColor=#FF0000;" parent="1" target="BC6KzmhpLjGoGfEVz04S-1" edge="1">
          <mxGeometry relative="1" as="geometry">
            <mxPoint x="13020" y="2178" as="sourcePoint" />
            <Array as="points">
              <mxPoint x="13140" y="2178" />
            </Array>
          </mxGeometry>
        </mxCell>
        <mxCell id="VN2mlmmHDfHBYRUEVJJL-18" value="Actor" style="shape=umlActor;verticalLabelPosition=bottom;verticalAlign=top;html=1;outlineConnect=0;" parent="1" vertex="1">
          <mxGeometry x="12980" y="2140" width="30" height="60" as="geometry" />
        </mxCell>
        <mxCell id="VN2mlmmHDfHBYRUEVJJL-22" value="&lt;font color=&quot;#0000ff&quot;&gt;1&lt;/font&gt;" style="ellipse;whiteSpace=wrap;html=1;aspect=fixed;strokeColor=#0000FF;" parent="1" vertex="1">
          <mxGeometry x="13020" y="2130" width="22.5" height="22.5" as="geometry" />
        </mxCell>
        <mxCell id="VN2mlmmHDfHBYRUEVJJL-23" value="&lt;font color=&quot;#0000ff&quot;&gt;1&lt;/font&gt;" style="ellipse;whiteSpace=wrap;html=1;aspect=fixed;strokeColor=#0000FF;" parent="1" vertex="1">
          <mxGeometry x="12940" y="1833.69" width="22.5" height="22.5" as="geometry" />
        </mxCell>
        <mxCell id="VN2mlmmHDfHBYRUEVJJL-24" value="Registrar Cliente (Sincrono 1MSV)" style="text;html=1;strokeColor=none;fillColor=none;align=left;verticalAlign=middle;whiteSpace=wrap;rounded=0;" parent="1" vertex="1">
          <mxGeometry x="12970" y="1829.94" width="207.5" height="30" as="geometry" />
        </mxCell>
        <mxCell id="VN2mlmmHDfHBYRUEVJJL-26" value="&lt;font color=&quot;#0000ff&quot;&gt;2&lt;/font&gt;" style="ellipse;whiteSpace=wrap;html=1;aspect=fixed;strokeColor=#0000FF;" parent="1" vertex="1">
          <mxGeometry x="12940" y="1870.56" width="22.5" height="22.5" as="geometry" />
        </mxCell>
        <mxCell id="VN2mlmmHDfHBYRUEVJJL-27" value="Actualizar Contraseña&amp;nbsp; (Sincrono 1MSV)" style="text;html=1;strokeColor=none;fillColor=none;align=left;verticalAlign=middle;whiteSpace=wrap;rounded=0;" parent="1" vertex="1">
          <mxGeometry x="12970" y="1866.81" width="250" height="30" as="geometry" />
        </mxCell>
        <mxCell id="VN2mlmmHDfHBYRUEVJJL-28" value="&lt;font color=&quot;#0000ff&quot;&gt;2&lt;/font&gt;" style="ellipse;whiteSpace=wrap;html=1;aspect=fixed;strokeColor=#0000FF;" parent="1" vertex="1">
          <mxGeometry x="13051" y="2130" width="22.5" height="22.5" as="geometry" />
        </mxCell>
        <mxCell id="VN2mlmmHDfHBYRUEVJJL-29" value="&lt;font color=&quot;#0000ff&quot;&gt;3&lt;/font&gt;" style="ellipse;whiteSpace=wrap;html=1;aspect=fixed;strokeColor=#0000FF;" parent="1" vertex="1">
          <mxGeometry x="12940" y="1904" width="22.5" height="22.5" as="geometry" />
        </mxCell>
        <mxCell id="VN2mlmmHDfHBYRUEVJJL-30" value="Actualizar Cliente&amp;nbsp; (Sincrono 1MSV)" style="text;html=1;strokeColor=none;fillColor=none;align=left;verticalAlign=middle;whiteSpace=wrap;rounded=0;" parent="1" vertex="1">
          <mxGeometry x="12970" y="1900.25" width="250" height="30" as="geometry" />
        </mxCell>
        <mxCell id="VN2mlmmHDfHBYRUEVJJL-31" value="&lt;font color=&quot;#0000ff&quot;&gt;3&lt;/font&gt;" style="ellipse;whiteSpace=wrap;html=1;aspect=fixed;strokeColor=#0000FF;" parent="1" vertex="1">
          <mxGeometry x="13082" y="2130" width="22.5" height="22.5" as="geometry" />
        </mxCell>
        <mxCell id="VN2mlmmHDfHBYRUEVJJL-32" value="&lt;font color=&quot;#0000ff&quot;&gt;4&lt;/font&gt;" style="ellipse;whiteSpace=wrap;html=1;aspect=fixed;strokeColor=#0000FF;" parent="1" vertex="1">
          <mxGeometry x="13113" y="2130" width="22.5" height="22.5" as="geometry" />
        </mxCell>
        <mxCell id="VN2mlmmHDfHBYRUEVJJL-33" value="&lt;font color=&quot;#0000ff&quot;&gt;4&lt;/font&gt;" style="ellipse;whiteSpace=wrap;html=1;aspect=fixed;strokeColor=#0000FF;" parent="1" vertex="1">
          <mxGeometry x="12940" y="1944" width="22.5" height="22.5" as="geometry" />
        </mxCell>
        <mxCell id="VN2mlmmHDfHBYRUEVJJL-34" value="Obtener Cliente&amp;nbsp; (Sincrono 1MSV)" style="text;html=1;strokeColor=none;fillColor=none;align=left;verticalAlign=middle;whiteSpace=wrap;rounded=0;" parent="1" vertex="1">
          <mxGeometry x="12970" y="1940.25" width="250" height="30" as="geometry" />
        </mxCell>
        <mxCell id="VN2mlmmHDfHBYRUEVJJL-35" value="&lt;font color=&quot;#0000ff&quot;&gt;5&lt;/font&gt;" style="ellipse;whiteSpace=wrap;html=1;aspect=fixed;strokeColor=#0000FF;" parent="1" vertex="1">
          <mxGeometry x="12940" y="1983.75" width="22.5" height="22.5" as="geometry" />
        </mxCell>
        <mxCell id="VN2mlmmHDfHBYRUEVJJL-36" value="Eliminar Cliente&amp;nbsp; (Sincrono 1MSV)" style="text;html=1;strokeColor=none;fillColor=none;align=left;verticalAlign=middle;whiteSpace=wrap;rounded=0;" parent="1" vertex="1">
          <mxGeometry x="12970" y="1980" width="250" height="30" as="geometry" />
        </mxCell>
        <mxCell id="VN2mlmmHDfHBYRUEVJJL-37" value="&lt;font&gt;12&lt;/font&gt;" style="ellipse;whiteSpace=wrap;html=1;aspect=fixed;strokeColor=#FF0000;fontColor=#FF0000;" parent="1" vertex="1">
          <mxGeometry x="12940" y="2023.75" width="22.5" height="22.5" as="geometry" />
        </mxCell>
        <mxCell id="VN2mlmmHDfHBYRUEVJJL-38" value="Bloquear Cuenta&amp;nbsp; (Asincrono 2MSV)" style="text;html=1;strokeColor=none;fillColor=none;align=left;verticalAlign=middle;whiteSpace=wrap;rounded=0;" parent="1" vertex="1">
          <mxGeometry x="12970" y="2020" width="250" height="30" as="geometry" />
        </mxCell>
        <mxCell id="VN2mlmmHDfHBYRUEVJJL-39" value="&lt;font&gt;13&lt;/font&gt;" style="ellipse;whiteSpace=wrap;html=1;aspect=fixed;strokeColor=#FF0000;fontColor=#FF0000;" parent="1" vertex="1">
          <mxGeometry x="12940" y="2063.75" width="22.5" height="22.5" as="geometry" />
        </mxCell>
        <mxCell id="VN2mlmmHDfHBYRUEVJJL-40" value="Activar Cuenta&amp;nbsp; (Asincrono 2MSV)" style="text;html=1;strokeColor=none;fillColor=none;align=left;verticalAlign=middle;whiteSpace=wrap;rounded=0;" parent="1" vertex="1">
          <mxGeometry x="12970" y="2060" width="250" height="30" as="geometry" />
        </mxCell>
        <mxCell id="VN2mlmmHDfHBYRUEVJJL-41" value="&lt;font&gt;6&lt;/font&gt;" style="ellipse;whiteSpace=wrap;html=1;aspect=fixed;strokeColor=#00CC00;fontColor=#00CC00;" parent="1" vertex="1">
          <mxGeometry x="13960" y="1840.56" width="22.5" height="22.5" as="geometry" />
        </mxCell>
        <mxCell id="VN2mlmmHDfHBYRUEVJJL-42" value="Crear Cuenta&amp;nbsp; (Sincrono 2MSV)" style="text;html=1;strokeColor=none;fillColor=none;align=left;verticalAlign=middle;whiteSpace=wrap;rounded=0;" parent="1" vertex="1">
          <mxGeometry x="13990" y="1836.81" width="250" height="30" as="geometry" />
        </mxCell>
        <mxCell id="VN2mlmmHDfHBYRUEVJJL-43" value="&lt;font color=&quot;#0000ff&quot;&gt;7&lt;/font&gt;" style="ellipse;whiteSpace=wrap;html=1;aspect=fixed;strokeColor=#0000FF;" parent="1" vertex="1">
          <mxGeometry x="13960" y="1874" width="22.5" height="22.5" as="geometry" />
        </mxCell>
        <mxCell id="VN2mlmmHDfHBYRUEVJJL-44" value="Registrar Movimiento&amp;nbsp; (Sincrono 1MSV)" style="text;html=1;strokeColor=none;fillColor=none;align=left;verticalAlign=middle;whiteSpace=wrap;rounded=0;" parent="1" vertex="1">
          <mxGeometry x="13990" y="1870.25" width="250" height="30" as="geometry" />
        </mxCell>
        <mxCell id="VN2mlmmHDfHBYRUEVJJL-45" value="&lt;font color=&quot;#0000ff&quot;&gt;8&lt;/font&gt;" style="ellipse;whiteSpace=wrap;html=1;aspect=fixed;strokeColor=#0000FF;" parent="1" vertex="1">
          <mxGeometry x="13960" y="1914" width="22.5" height="22.5" as="geometry" />
        </mxCell>
        <mxCell id="VN2mlmmHDfHBYRUEVJJL-46" value="Obtener Cuenta x Nro Cta (Sincrono 1MSV)" style="text;html=1;strokeColor=none;fillColor=none;align=left;verticalAlign=middle;whiteSpace=wrap;rounded=0;" parent="1" vertex="1">
          <mxGeometry x="13990" y="1910.25" width="250" height="30" as="geometry" />
        </mxCell>
        <mxCell id="VN2mlmmHDfHBYRUEVJJL-47" value="&lt;font color=&quot;#0000ff&quot;&gt;9&lt;/font&gt;" style="ellipse;whiteSpace=wrap;html=1;aspect=fixed;strokeColor=#0000FF;" parent="1" vertex="1">
          <mxGeometry x="13960" y="1953.75" width="22.5" height="22.5" as="geometry" />
        </mxCell>
        <mxCell id="VN2mlmmHDfHBYRUEVJJL-48" value="Obtener Cuentas Activas&amp;nbsp; (Sincrono 1MSV)" style="text;html=1;strokeColor=none;fillColor=none;align=left;verticalAlign=middle;whiteSpace=wrap;rounded=0;" parent="1" vertex="1">
          <mxGeometry x="13990" y="1950" width="250" height="30" as="geometry" />
        </mxCell>
        <mxCell id="VN2mlmmHDfHBYRUEVJJL-49" value="&lt;font color=&quot;#0000ff&quot;&gt;10&lt;/font&gt;" style="ellipse;whiteSpace=wrap;html=1;aspect=fixed;strokeColor=#0000FF;" parent="1" vertex="1">
          <mxGeometry x="13960" y="1993.75" width="22.5" height="22.5" as="geometry" />
        </mxCell>
        <mxCell id="VN2mlmmHDfHBYRUEVJJL-50" value="Obtener Movimientos x Nro Cta&amp;nbsp; (Sincrono 1MSV)" style="text;html=1;strokeColor=none;fillColor=none;align=left;verticalAlign=middle;whiteSpace=wrap;rounded=0;" parent="1" vertex="1">
          <mxGeometry x="13990" y="1990" width="290" height="30" as="geometry" />
        </mxCell>
        <mxCell id="VN2mlmmHDfHBYRUEVJJL-51" value="&lt;font color=&quot;#0000ff&quot;&gt;11&lt;/font&gt;" style="ellipse;whiteSpace=wrap;html=1;aspect=fixed;strokeColor=#0000FF;" parent="1" vertex="1">
          <mxGeometry x="13960" y="2033.75" width="22.5" height="22.5" as="geometry" />
        </mxCell>
        <mxCell id="VN2mlmmHDfHBYRUEVJJL-52" value="Obtener Movimientos x Usuario y Fecha&amp;nbsp; (Sincrono 1MSV)" style="text;html=1;strokeColor=none;fillColor=none;align=left;verticalAlign=middle;whiteSpace=wrap;rounded=0;" parent="1" vertex="1">
          <mxGeometry x="13990" y="2030" width="330" height="30" as="geometry" />
        </mxCell>
        <mxCell id="VN2mlmmHDfHBYRUEVJJL-54" value="&lt;font color=&quot;#0000ff&quot;&gt;5&lt;/font&gt;" style="ellipse;whiteSpace=wrap;html=1;aspect=fixed;strokeColor=#0000FF;" parent="1" vertex="1">
          <mxGeometry x="13144" y="2130" width="22.5" height="22.5" as="geometry" />
        </mxCell>
        <mxCell id="VN2mlmmHDfHBYRUEVJJL-55" style="edgeStyle=orthogonalEdgeStyle;rounded=0;orthogonalLoop=1;jettySize=auto;html=1;entryX=0;entryY=0.5;entryDx=0;entryDy=0;entryPerimeter=0;strokeColor=#FF0000;" parent="1" source="BC6KzmhpLjGoGfEVz04S-1" target="BC6KzmhpLjGoGfEVz04S-5" edge="1">
          <mxGeometry relative="1" as="geometry">
            <Array as="points">
              <mxPoint x="13450" y="2177" />
              <mxPoint x="13450" y="2195" />
            </Array>
          </mxGeometry>
        </mxCell>
        <mxCell id="VN2mlmmHDfHBYRUEVJJL-56" style="edgeStyle=orthogonalEdgeStyle;rounded=0;orthogonalLoop=1;jettySize=auto;html=1;strokeColor=#FF0000;" parent="1" source="BC6KzmhpLjGoGfEVz04S-5" target="BC6KzmhpLjGoGfEVz04S-2" edge="1">
          <mxGeometry relative="1" as="geometry" />
        </mxCell>
        <mxCell id="VN2mlmmHDfHBYRUEVJJL-57" value="&lt;font&gt;12&lt;/font&gt;" style="ellipse;whiteSpace=wrap;html=1;aspect=fixed;strokeColor=#FF0000;fontColor=#FF0000;" parent="1" vertex="1">
          <mxGeometry x="13021" y="2187" width="22.5" height="22.5" as="geometry" />
        </mxCell>
        <mxCell id="VN2mlmmHDfHBYRUEVJJL-58" value="&lt;font&gt;13&lt;/font&gt;" style="ellipse;whiteSpace=wrap;html=1;aspect=fixed;strokeColor=#FF0000;fontColor=#FF0000;" parent="1" vertex="1">
          <mxGeometry x="13051" y="2187" width="22.5" height="22.5" as="geometry" />
        </mxCell>
        <mxCell id="VN2mlmmHDfHBYRUEVJJL-60" style="edgeStyle=orthogonalEdgeStyle;rounded=0;orthogonalLoop=1;jettySize=auto;html=1;entryX=1;entryY=0.25;entryDx=0;entryDy=0;entryPerimeter=0;fontColor=#00CC00;strokeColor=#00CC00;" parent="1" edge="1">
          <mxGeometry relative="1" as="geometry">
            <mxPoint x="14100" y="2168.9999999999995" as="sourcePoint" />
            <mxPoint x="13920" y="2168.75" as="targetPoint" />
            <Array as="points">
              <mxPoint x="14060" y="2169" />
              <mxPoint x="14060" y="2169" />
            </Array>
          </mxGeometry>
        </mxCell>
        <mxCell id="VN2mlmmHDfHBYRUEVJJL-63" style="edgeStyle=orthogonalEdgeStyle;rounded=0;orthogonalLoop=1;jettySize=auto;html=1;entryX=1;entryY=0.75;entryDx=0;entryDy=0;entryPerimeter=0;strokeColor=#0000FF;" parent="1" edge="1">
          <mxGeometry relative="1" as="geometry">
            <mxPoint x="14100" y="2190" as="sourcePoint" />
            <mxPoint x="13920" y="2190.25" as="targetPoint" />
            <Array as="points">
              <mxPoint x="14050" y="2190" />
              <mxPoint x="14050" y="2190" />
            </Array>
          </mxGeometry>
        </mxCell>
        <mxCell id="VN2mlmmHDfHBYRUEVJJL-59" value="Actor" style="shape=umlActor;verticalLabelPosition=bottom;verticalAlign=top;html=1;outlineConnect=0;" parent="1" vertex="1">
          <mxGeometry x="14106" y="2140" width="30" height="60" as="geometry" />
        </mxCell>
        <mxCell id="VN2mlmmHDfHBYRUEVJJL-62" value="&lt;font&gt;6&lt;/font&gt;" style="ellipse;whiteSpace=wrap;html=1;aspect=fixed;strokeColor=#00CC00;fontColor=#00CC00;" parent="1" vertex="1">
          <mxGeometry x="14073" y="2140" width="22.5" height="22.5" as="geometry" />
        </mxCell>
        <mxCell id="VN2mlmmHDfHBYRUEVJJL-64" value="&lt;font color=&quot;#0000ff&quot;&gt;7&lt;/font&gt;" style="ellipse;whiteSpace=wrap;html=1;aspect=fixed;strokeColor=#0000FF;" parent="1" vertex="1">
          <mxGeometry x="13956" y="2200.5" width="22.5" height="22.5" as="geometry" />
        </mxCell>
        <mxCell id="VN2mlmmHDfHBYRUEVJJL-65" value="&lt;font color=&quot;#0000ff&quot;&gt;8&lt;/font&gt;" style="ellipse;whiteSpace=wrap;html=1;aspect=fixed;strokeColor=#0000FF;" parent="1" vertex="1">
          <mxGeometry x="13986" y="2200.5" width="22.5" height="22.5" as="geometry" />
        </mxCell>
        <mxCell id="VN2mlmmHDfHBYRUEVJJL-66" value="&lt;font color=&quot;#0000ff&quot;&gt;9&lt;/font&gt;" style="ellipse;whiteSpace=wrap;html=1;aspect=fixed;strokeColor=#0000FF;" parent="1" vertex="1">
          <mxGeometry x="14016" y="2200.5" width="22.5" height="22.5" as="geometry" />
        </mxCell>
        <mxCell id="VN2mlmmHDfHBYRUEVJJL-67" value="&lt;font color=&quot;#0000ff&quot;&gt;10&lt;/font&gt;" style="ellipse;whiteSpace=wrap;html=1;aspect=fixed;strokeColor=#0000FF;" parent="1" vertex="1">
          <mxGeometry x="14046" y="2200.5" width="22.5" height="22.5" as="geometry" />
        </mxCell>
        <mxCell id="VN2mlmmHDfHBYRUEVJJL-68" value="&lt;font color=&quot;#0000ff&quot;&gt;11&lt;/font&gt;" style="ellipse;whiteSpace=wrap;html=1;aspect=fixed;strokeColor=#0000FF;" parent="1" vertex="1">
          <mxGeometry x="14076" y="2200.5" width="22.5" height="22.5" as="geometry" />
        </mxCell>
        <mxCell id="VN2mlmmHDfHBYRUEVJJL-70" value="" style="shape=image;verticalLabelPosition=bottom;labelBackgroundColor=default;verticalAlign=top;aspect=fixed;imageAspect=0;image=https://www.ovhcloud.com/sites/default/files/styles/text_media_horizontal/public/2021-09/ECX-1909_Hero_Kafka_600x400%402x-1.png;" parent="1" vertex="1">
          <mxGeometry x="13520" y="2090" width="93.73" height="36.25" as="geometry" />
        </mxCell>
        <mxCell id="VN2mlmmHDfHBYRUEVJJL-71" value="" style="shape=image;verticalLabelPosition=bottom;labelBackgroundColor=default;verticalAlign=top;aspect=fixed;imageAspect=0;image=https://www.docker.com/wp-content/uploads/2022/09/container-gearing-color-2-copy-1.png;" parent="1" vertex="1">
          <mxGeometry x="13254.36" y="1711" width="84.61" height="85" as="geometry" />
        </mxCell>
        <mxCell id="VN2mlmmHDfHBYRUEVJJL-73" value="" style="shape=image;verticalLabelPosition=bottom;labelBackgroundColor=default;verticalAlign=top;aspect=fixed;imageAspect=0;image=https://www.docker.com/wp-content/uploads/2022/09/container-gearing-color-2-copy-1.png;" parent="1" vertex="1">
          <mxGeometry x="13532.62" y="1980.06" width="84.61" height="85" as="geometry" />
        </mxCell>
        <mxCell id="VN2mlmmHDfHBYRUEVJJL-74" value="" style="rounded=1;whiteSpace=wrap;html=1;fillColor=none;dashed=1;" parent="1" vertex="1">
          <mxGeometry x="13466.87" y="2065.06" width="223.13" height="194.94" as="geometry" />
        </mxCell>
        <mxCell id="VN2mlmmHDfHBYRUEVJJL-75" value="" style="shape=image;verticalLabelPosition=bottom;labelBackgroundColor=default;verticalAlign=top;aspect=fixed;imageAspect=0;image=https://www.docker.com/wp-content/uploads/2022/09/container-gearing-color-2-copy-1.png;" parent="1" vertex="1">
          <mxGeometry x="13797.25" y="1719" width="84.61" height="85" as="geometry" />
        </mxCell>
        <mxCell id="VN2mlmmHDfHBYRUEVJJL-78" value="" style="shape=image;verticalLabelPosition=bottom;labelBackgroundColor=default;verticalAlign=top;aspect=fixed;imageAspect=0;image=https://cdn.iconscout.com/icon/free/png-256/free-docker-226091.png;" parent="1" vertex="1">
          <mxGeometry x="13499.31" y="1588" width="100" height="100" as="geometry" />
        </mxCell>
        <mxCell id="VN2mlmmHDfHBYRUEVJJL-79" value="ARQUITECTURA DEVSU CHALLENGE" style="text;html=1;strokeColor=none;fillColor=none;align=center;verticalAlign=middle;whiteSpace=wrap;rounded=0;fontStyle=1;fontSize=29;" parent="1" vertex="1">
          <mxGeometry x="13235" y="1490" width="630" height="30" as="geometry" />
        </mxCell>
        <mxCell id="MWMOtJagE3GRHmI_m3Ce-1" value="By: Jose Ivan Villanes Corrales" style="text;html=1;strokeColor=none;fillColor=none;align=center;verticalAlign=middle;whiteSpace=wrap;rounded=0;fontStyle=3" vertex="1" parent="1">
          <mxGeometry x="13402.86" y="1526" width="300" height="30" as="geometry" />
        </mxCell>
        <mxCell id="MWMOtJagE3GRHmI_m3Ce-2" value="" style="shape=image;verticalLabelPosition=bottom;labelBackgroundColor=default;verticalAlign=top;aspect=fixed;imageAspect=0;image=https://developrogramming.com/wp-content/uploads/2021/11/1_J8sjpKQJswCKiPUYVefbgQ.jpeg;" vertex="1" parent="1">
          <mxGeometry x="13355.38" y="1795" width="50" height="29" as="geometry" />
        </mxCell>
        <mxCell id="MWMOtJagE3GRHmI_m3Ce-6" value="" style="shape=image;verticalLabelPosition=bottom;labelBackgroundColor=default;verticalAlign=top;aspect=fixed;imageAspect=0;image=https://karatelabs.github.io/resources/wide.png;" vertex="1" parent="1">
          <mxGeometry x="13288.38" y="1793" width="62" height="31" as="geometry" />
        </mxCell>
        <mxCell id="MWMOtJagE3GRHmI_m3Ce-7" value="" style="shape=image;verticalLabelPosition=bottom;labelBackgroundColor=default;verticalAlign=top;aspect=fixed;imageAspect=0;image=https://developrogramming.com/wp-content/uploads/2021/11/1_J8sjpKQJswCKiPUYVefbgQ.jpeg;" vertex="1" parent="1">
          <mxGeometry x="13879" y="1794" width="50" height="29" as="geometry" />
        </mxCell>
        <mxCell id="MWMOtJagE3GRHmI_m3Ce-8" value="" style="shape=image;verticalLabelPosition=bottom;labelBackgroundColor=default;verticalAlign=top;aspect=fixed;imageAspect=0;image=https://upload.wikimedia.org/wikipedia/commons/c/cb/Gradle_logo.png;" vertex="1" parent="1">
          <mxGeometry x="13735" y="1792.51" width="91.93" height="32.11" as="geometry" />
        </mxCell>
        <mxCell id="MWMOtJagE3GRHmI_m3Ce-9" value="" style="shape=image;verticalLabelPosition=bottom;labelBackgroundColor=default;verticalAlign=top;aspect=fixed;imageAspect=0;image=https://www.campusmvp.es/recursos/image.axd?picture=/2022/2T/apache-maven.png;" vertex="1" parent="1">
          <mxGeometry x="13201.43" y="1800" width="81.04" height="20.5" as="geometry" />
        </mxCell>
      </root>
    </mxGraphModel>
  </diagram>
</mxfile>
